#include <stdint.h>
const uint8_t midifile[] = {
0x4d,0x54,0x68,0x64,0x00,0x00,0x00,0x06,0x00,0x01,0x00,0x02,0x04,0x00,0x4d,0x54,
0x72,0x6b,0x00,0x00,0x00,0xe2,0x00,0xff,0x54,0x05,0x60,0x00,0x00,0x00,0x00,0x00,
0xff,0x58,0x04,0x04,0x02,0x18,0x08,0x00,0xff,0x59,0x02,0x03,0x00,0x00,0xff,0x51,
0x03,0x07,0xa1,0x1f,0x00,0xff,0x51,0x03,0x07,0xa1,0x23,0x00,0xff,0x51,0x03,0x07,
0xa1,0x1f,0x00,0xff,0x51,0x03,0x07,0xa1,0x23,0x82,0xd0,0x00,0xff,0x51,0x03,0x07,
0xa1,0x23,0x82,0x00,0xff,0x51,0x03,0x07,0xb2,0x72,0x82,0x00,0xff,0x51,0x03,0x07,
0xba,0x40,0x82,0x00,0xff,0x51,0x03,0x07,0xc3,0x19,0x82,0x00,0xff,0x51,0x03,0x07,
0xd4,0x05,0x82,0x00,0xff,0x51,0x03,0x07,0xdc,0x15,0x82,0x00,0xff,0x51,0x03,0x07,
0xe5,0x3c,0x82,0x00,0xff,0x51,0x03,0x07,0xed,0x6f,0x84,0x00,0xff,0x51,0x03,0x07,
0xa1,0x23,0x83,0xbd,0x7f,0xff,0x51,0x03,0x07,0xa1,0x1f,0x00,0xff,0x51,0x03,0x07,
0xa1,0x23,0x01,0xff,0x51,0x03,0x07,0xa1,0x23,0x82,0xd0,0x00,0xff,0x51,0x03,0x07,
0xa1,0x23,0x82,0x00,0xff,0x51,0x03,0x07,0xb2,0x72,0x82,0x00,0xff,0x51,0x03,0x07,
0xba,0x40,0x82,0x00,0xff,0x51,0x03,0x07,0xc3,0x19,0x82,0x00,0xff,0x51,0x03,0x07,
0xd4,0x05,0x82,0x00,0xff,0x51,0x03,0x07,0xdc,0x15,0x82,0x00,0xff,0x51,0x03,0x07,
0xe5,0x3c,0x82,0x00,0xff,0x51,0x03,0x07,0xed,0x6f,0x84,0x00,0xff,0x51,0x03,0x07,
0xa1,0x23,0x83,0xb9,0x1a,0xff,0x2f,0x00,0x4d,0x54,0x72,0x6b,0x00,0x00,0x12,0xfc,
0x00,0xff,0x09,0x16,0x53,0x6d,0x61,0x72,0x74,0x4d,0x75,0x73,0x69,0x63,0x20,0x53,
0x6f,0x66,0x74,0x53,0x79,0x6e,0x74,0x68,0x20,0x31,0x00,0xff,0x03,0x14,0x53,0x6d,
0x61,0x72,0x74,0x4d,0x75,0x73,0x69,0x63,0x20,0x53,0x6f,0x66,0x74,0x53,0x79,0x6e,
0x74,0x68,0x00,0xc0,0x01,0x00,0xb0,0x07,0x7f,0x00,0xb0,0x0a,0x40,0x03,0xb0,0x64,
0x00,0x00,0xb0,0x65,0x00,0x00,0xb0,0x64,0x00,0x00,0xb0,0x65,0x00,0x01,0xb0,0x06,
0x0c,0x00,0xb0,0x06,0x0c,0x01,0xb0,0x26,0x00,0x00,0xb0,0x26,0x00,0x05,0x90,0x3e,
0x3b,0x00,0x90,0x42,0x49,0x00,0x90,0x2f,0x43,0x83,0x2d,0x80,0x3e,0x00,0x00,0x80,
0x42,0x00,0x00,0x80,0x2f,0x00,0x84,0x67,0x90,0x42,0x37,0x00,0x90,0x45,0x45,0x81,
0x45,0x80,0x42,0x00,0x00,0x80,0x45,0x00,0x82,0x34,0x90,0x45,0x36,0x00,0x90,0x49,
0x44,0x81,0x4a,0x80,0x45,0x00,0x00,0x80,0x49,0x00,0x86,0x32,0x90,0x42,0x36,0x00,
0x90,0x45,0x44,0x81,0x45,0x80,0x42,0x00,0x00,0x80,0x45,0x00,0x86,0x2d,0x90,0x3e,
0x36,0x00,0x90,0x42,0x44,0x81,0x47,0x80,0x3e,0x00,0x00,0x80,0x42,0x00,0x82,0x38,
0x90,0x3e,0x43,0x00,0x90,0x38,0x37,0x81,0x6a,0x80,0x3e,0x00,0x00,0x80,0x38,0x00,
0x82,0x34,0x90,0x3e,0x3e,0x00,0x90,0x38,0x32,0x81,0x48,0x80,0x3e,0x00,0x00,0x80,
0x38,0x00,0x82,0x34,0x90,0x3e,0x3f,0x00,0x90,0x38,0x33,0x81,0x45,0x80,0x3e,0x00,
0x00,0x80,0x38,0x00,0x92,0x22,0x90,0x3d,0x3e,0x00,0x90,0x35,0x3e,0x83,0x7f,0x90,
0x3e,0x39,0x00,0x90,0x2f,0x31,0x00,0x90,0x36,0x3f,0x38,0x80,0x3d,0x00,0x00,0x80,
0x35,0x00,0x81,0x32,0x80,0x3e,0x00,0x81,0x1c,0x80,0x36,0x00,0x81,0x18,0x90,0x3e,
0x36,0x00,0x90,0x42,0x44,0x43,0x80,0x2f,0x00,0x81,0x05,0x80,0x3e,0x00,0x00,0x80,
0x42,0x00,0x82,0x34,0x90,0x42,0x37,0x00,0x90,0x45,0x45,0x81,0x45,0x80,0x42,0x00,
0x00,0x80,0x45,0x00,0x82,0x34,0x90,0x45,0x36,0x00,0x90,0x49,0x44,0x81,0x4a,0x80,
0x45,0x00,0x00,0x80,0x49,0x00,0x86,0x32,0x90,0x42,0x36,0x00,0x90,0x45,0x44,0x81,
0x45,0x80,0x42,0x00,0x00,0x80,0x45,0x00,0x86,0x2d,0x90,0x3e,0x36,0x00,0x90,0x42,
0x44,0x81,0x47,0x80,0x3e,0x00,0x00,0x80,0x42,0x00,0x82,0x38,0x90,0x40,0x3b,0x00,
0x90,0x44,0x3b,0x00,0x90,0x4c,0x49,0x00,0x90,0x38,0x43,0x8c,0x12,0x80,0x40,0x00,
0x00,0x80,0x44,0x00,0x00,0x80,0x4c,0x00,0x00,0x80,0x38,0x00,0x01,0x90,0x3f,0x36,
0x00,0x90,0x43,0x36,0x00,0x90,0x4b,0x44,0x00,0x90,0x37,0x3e,0x83,0x5f,0x80,0x3f,
0x00,0x00,0x80,0x43,0x00,0x00,0x80,0x37,0x00,0x1e,0x80,0x4b,0x00,0x01,0x90,0x3e,
0x39,0x00,0x90,0x42,0x39,0x00,0x90,0x4a,0x47,0x00,0x90,0x36,0x41,0x83,0x10,0x80,
0x3e,0x00,0x00,0x80,0x42,0x00,0x00,0x80,0x4a,0x00,0x00,0x80,0x36,0x00,0x8c,0x5f,
0x90,0x44,0x43,0x00,0x90,0x2d,0x43,0x81,0x6a,0x80,0x44,0x00,0x00,0x80,0x2d,0x00,
0x86,0x30,0x90,0x49,0x3f,0x00,0x90,0x3d,0x37,0x00,0x90,0x40,0x45,0x81,0x27,0x80,
0x40,0x00,0x1e,0x80,0x49,0x00,0x00,0x80,0x3d,0x00,0x82,0x34,0x90,0x42,0x3e,0x81,
0x4a,0x80,0x42,0x00,0x86,0x32,0x90,0x49,0x3e,0x00,0x90,0x34,0x3e,0x81,0x45,0x80,
0x49,0x00,0x00,0x80,0x34,0x00,0x86,0x2d,0x90,0x44,0x3e,0x00,0x90,0x38,0x3e,0x81,
0x47,0x80,0x44,0x00,0x00,0x80,0x38,0x00,0x86,0x56,0x90,0x49,0x3e,0x00,0x90,0x3d,
0x36,0x00,0x90,0x40,0x44,0x81,0x48,0x80,0x49,0x00,0x00,0x80,0x3d,0x00,0x00,0x80,
0x40,0x00,0x86,0x2d,0x90,0x43,0x3e,0x00,0x90,0x37,0x3e,0x83,0x7e,0x90,0x42,0x39,
0x00,0x90,0x36,0x39,0x3c,0x80,0x43,0x00,0x00,0x80,0x37,0x00,0x82,0x76,0x80,0x42,
0x00,0x00,0x80,0x36,0x00,0x84,0x45,0x90,0x40,0x3f,0x00,0x90,0x3d,0x3f,0x81,0x45,
0x80,0x40,0x00,0x00,0x80,0x3d,0x00,0x86,0x33,0x90,0x36,0x3b,0x00,0x90,0x3c,0x45,
0x00,0x90,0x26,0x42,0x81,0x6a,0x80,0x36,0x00,0x00,0x80,0x3c,0x00,0x00,0x80,0x26,
0x00,0x82,0x34,0x90,0x36,0x36,0x00,0x90,0x3c,0x40,0x00,0x90,0x26,0x3d,0x81,0x48,
0x80,0x36,0x00,0x00,0x80,0x3c,0x00,0x00,0x80,0x26,0x00,0x82,0x34,0x90,0x36,0x37,
0x00,0x90,0x3c,0x41,0x00,0x90,0x26,0x3e,0x81,0x27,0x80,0x3c,0x00,0x1e,0x80,0x36,
0x00,0x00,0x80,0x26,0x00,0x8e,0x29,0x90,0x36,0x2b,0x00,0x90,0x3c,0x35,0x00,0x90,
0x26,0x32,0x81,0x45,0x80,0x36,0x00,0x00,0x80,0x3c,0x00,0x00,0x80,0x26,0x00,0x82,
0x34,0x90,0x36,0x2a,0x00,0x90,0x3c,0x34,0x00,0x90,0x26,0x31,0x81,0x47,0x80,0x36,
0x00,0x00,0x80,0x3c,0x00,0x00,0x80,0x26,0x00,0x82,0x38,0x90,0x36,0x2f,0x00,0x90,
0x3c,0x3d,0x00,0x90,0x26,0x36,0x81,0x6a,0x80,0x36,0x00,0x00,0x80,0x26,0x00,0x1f,
0x80,0x3c,0x00,0x8e,0x08,0x90,0x38,0x39,0x00,0x90,0x3b,0x39,0x00,0x90,0x3f,0x47,
0x87,0x76,0x80,0x38,0x00,0x00,0x80,0x3b,0x00,0x00,0x80,0x3f,0x00,0x01,0x90,0x37,
0x37,0x00,0x90,0x3a,0x37,0x00,0x90,0x3e,0x45,0x87,0x73,0x80,0x37,0x00,0x00,0x80,
0x3a,0x00,0x00,0x80,0x3e,0x00,0x05,0x90,0x3e,0x3b,0x00,0x90,0x42,0x49,0x00,0x90,
0x36,0x3b,0x00,0x90,0x39,0x3b,0x00,0x90,0x3d,0x49,0x83,0x33,0x80,0x3e,0x00,0x00,
0x80,0x42,0x00,0x4c,0x80,0x36,0x00,0x00,0x80,0x39,0x00,0x00,0x80,0x3d,0x00,0x84,
0x1b,0x90,0x42,0x37,0x00,0x90,0x45,0x45,0x81,0x45,0x80,0x42,0x00,0x00,0x80,0x45,
0x00,0x82,0x34,0x90,0x45,0x36,0x00,0x90,0x49,0x44,0x81,0x4a,0x80,0x45,0x00,0x00,
0x80,0x49,0x00,0x86,0x32,0x90,0x42,0x36,0x00,0x90,0x45,0x44,0x81,0x45,0x80,0x42,
0x00,0x00,0x80,0x45,0x00,0x86,0x2d,0x90,0x3f,0x36,0x00,0x90,0x42,0x44,0x00,0x90,
0x3e,0x3e,0x83,0x7a,0x80,0x42,0x00,0x00,0x80,0x3e,0x00,0x05,0x90,0x40,0x39,0x00,
0x90,0x38,0x31,0x00,0x90,0x3e,0x3b,0x38,0x80,0x3f,0x00,0x81,0x32,0x80,0x40,0x00,
0x00,0x80,0x38,0x00,0x00,0x80,0x3e,0x00,0x82,0x34,0x90,0x40,0x3e,0x00,0x90,0x38,
0x36,0x00,0x90,0x3e,0x40,0x81,0x48,0x80,0x40,0x00,0x00,0x80,0x38,0x00,0x00,0x80,
0x3e,0x00,0x82,0x34,0x90,0x40,0x3f,0x00,0x90,0x38,0x37,0x00,0x90,0x3e,0x41,0x81,
0x27,0x80,0x3e,0x00,0x1e,0x80,0x40,0x00,0x00,0x80,0x38,0x00,0x86,0x32,0x90,0x44,
0x39,0x00,0x90,0x4c,0x43,0x81,0x4a,0x80,0x44,0x00,0x00,0x80,0x4c,0x00,0x82,0x34,
0x90,0x44,0x36,0x00,0x90,0x4c,0x40,0x81,0x45,0x80,0x44,0x00,0x00,0x80,0x4c,0x00,
0x82,0x34,0x90,0x44,0x37,0x00,0x90,0x4c,0x45,0x81,0x27,0x80,0x4c,0x00,0x1e,0x80,
0x44,0x00,0x86,0x33,0x90,0x2f,0x43,0x83,0x33,0x80,0x2f,0x00,0x6b,0x90,0x3e,0x36,
0x00,0x90,0x42,0x44,0x81,0x48,0x80,0x3e,0x00,0x00,0x80,0x42,0x00,0x82,0x34,0x90,
0x42,0x37,0x00,0x90,0x45,0x45,0x81,0x45,0x80,0x42,0x00,0x00,0x80,0x45,0x00,0x82,
0x34,0x90,0x45,0x36,0x00,0x90,0x49,0x44,0x81,0x4a,0x80,0x45,0x00,0x00,0x80,0x49,
0x00,0x86,0x32,0x90,0x42,0x36,0x00,0x90,0x45,0x44,0x81,0x45,0x80,0x42,0x00,0x00,
0x80,0x45,0x00,0x86,0x2d,0x90,0x3e,0x36,0x00,0x90,0x42,0x44,0x81,0x47,0x80,0x3e,
0x00,0x00,0x80,0x42,0x00,0x82,0x38,0x90,0x40,0x3b,0x00,0x90,0x44,0x3b,0x00,0x90,
0x49,0x49,0x00,0x90,0x34,0x43,0x90,0x10,0x80,0x40,0x00,0x00,0x80,0x44,0x00,0x00,
0x80,0x49,0x00,0x00,0x80,0x34,0x00,0x01,0x90,0x3e,0x39,0x00,0x90,0x42,0x39,0x00,
0x90,0x47,0x47,0x00,0x90,0x32,0x41,0x83,0x10,0x80,0x3e,0x00,0x00,0x80,0x42,0x00,
0x00,0x80,0x47,0x00,0x00,0x80,0x32,0x00,0x8c,0x5f,0x90,0x47,0x43,0x00,0x90,0x34,
0x43,0x83,0x7f,0x80,0x47,0x00,0x1f,0x90,0x43,0x3e,0x83,0x5d,0x80,0x43,0x00,0x1e,
0x80,0x34,0x00,0x01,0x90,0x3e,0x3f,0x00,0x90,0x3b,0x3f,0x81,0x45,0x80,0x3b,0x00,
0x82,0x15,0x80,0x3e,0x00,0x1f,0x90,0x3d,0x3e,0x00,0x90,0x2d,0x3e,0x87,0x5d,0x80,
0x3d,0x00,0x00,0x80,0x2d,0x00,0x1f,0x90,0x47,0x3e,0x00,0x90,0x39,0x36,0x00,0x90,
0x3d,0x44,0x81,0x45,0x80,0x39,0x00,0x00,0x80,0x3d,0x00,0x82,0x15,0x80,0x47,0x00,
0x1f,0x90,0x43,0x3f,0x83,0x5a,0x80,0x43,0x00,0x1f,0x90,0x3d,0x3e,0x83,0x5c,0x80,
0x3d,0x00,0x23,0x90,0x45,0x43,0x00,0x90,0x32,0x43,0x83,0x7f,0x80,0x45,0x00,0x1f,
0x90,0x42,0x3e,0x83,0x5d,0x80,0x42,0x00,0x1e,0x80,0x32,0x00,0x01,0x90,0x3c,0x3f,
0x00,0x90,0x39,0x3f,0x81,0x45,0x80,0x39,0x00,0x82,0x15,0x80,0x3c,0x00,0x1f,0x90,
0x3b,0x3e,0x00,0x90,0x2b,0x3e,0x87,0x5d,0x80,0x3b,0x00,0x00,0x80,0x2b,0x00,0x1f,
0x90,0x41,0x3e,0x00,0x90,0x37,0x36,0x00,0x90,0x3b,0x44,0x81,0x45,0x80,0x37,0x00,
0x00,0x80,0x3b,0x00,0x82,0x15,0x80,0x41,0x00,0x1f,0x90,0x3e,0x3f,0x83,0x5a,0x80,
0x3e,0x00,0x1f,0x90,0x3b,0x3e,0x83,0x5c,0x80,0x3b,0x00,0x23,0x90,0x36,0x3b,0x00,
0x90,0x3d,0x45,0x00,0x90,0x2f,0x2f,0x00,0x90,0x34,0x3d,0x81,0x6a,0x80,0x36,0x00,
0x00,0x80,0x3d,0x00,0x00,0x80,0x2f,0x00,0x00,0x80,0x34,0x00,0x82,0x34,0x90,0x36,
0x36,0x00,0x90,0x3d,0x40,0x00,0x90,0x2f,0x2a,0x00,0x90,0x34,0x34,0x81,0x48,0x80,
0x36,0x00,0x00,0x80,0x3d,0x00,0x00,0x80,0x2f,0x00,0x00,0x80,0x34,0x00,0x82,0x34,
0x90,0x36,0x37,0x00,0x90,0x3d,0x41,0x00,0x90,0x2f,0x2b,0x00,0x90,0x34,0x35,0x81,
0x27,0x80,0x3d,0x00,0x1e,0x80,0x36,0x00,0x00,0x80,0x2f,0x00,0x1f,0x80,0x34,0x00,
0x92,0x03,0x90,0x46,0x3e,0x00,0x90,0x31,0x3e,0x83,0x7f,0x90,0x47,0x39,0x00,0x90,
0x32,0x39,0x38,0x80,0x46,0x00,0x00,0x80,0x31,0x00,0x82,0x09,0x80,0x47,0x00,0x00,
0x80,0x32,0x00,0x81,0x5d,0x90,0x49,0x3e,0x00,0x90,0x37,0x3e,0x83,0x7c,0x90,0x4a,
0x39,0x00,0x90,0x38,0x39,0x3c,0x80,0x49,0x00,0x00,0x80,0x37,0x00,0x81,0x60,0x80,
0x4a,0x00,0x00,0x80,0x38,0x00,0x81,0x5d,0x90,0x4e,0x3e,0x00,0x90,0x3d,0x3e,0x83,
0x7e,0x90,0x51,0x39,0x00,0x90,0x43,0x39,0x3c,0x80,0x4e,0x00,0x00,0x80,0x3d,0x00,
0x81,0x65,0x80,0x51,0x00,0x00,0x80,0x43,0x00,0x9d,0x5f,0x90,0x39,0x3e,0x87,0x77,
0x90,0x3a,0x3e,0x27,0x80,0x39,0x00,0x87,0x51,0x90,0x3b,0x3e,0x00,0x90,0x34,0x43,
0x23,0x80,0x3a,0x00,0x87,0x76,0x80,0x34,0x00,0x01,0x90,0x34,0x37,0x00,0x90,0x37,
0x45,0x83,0x5a,0x80,0x34,0x00,0x1e,0x80,0x37,0x00,0x01,0x90,0x3a,0x3e,0x00,0x90,
0x2f,0x3e,0x3c,0x80,0x3b,0x00,0x83,0x42,0x90,0x3b,0x3e,0x3c,0x80,0x3a,0x00,0x83,
0x23,0x80,0x2f,0x00,0x1f,0x90,0x34,0x36,0x00,0x90,0x37,0x44,0x8b,0x6c,0x80,0x34,
0x00,0x00,0x80,0x37,0x00,0x05,0x90,0x2d,0x43,0x83,0x7f,0x80,0x2d,0x00,0x1f,0x90,
0x34,0x36,0x00,0x90,0x37,0x44,0x83,0x4e,0x80,0x3b,0x00,0x2e,0x90,0x39,0x3e,0x83,
0x78,0x80,0x34,0x00,0x00,0x80,0x37,0x00,0x01,0x90,0x3a,0x3e,0x00,0x90,0x34,0x3e,
0x3c,0x80,0x39,0x00,0x83,0x42,0x90,0x3b,0x3e,0x3c,0x80,0x3a,0x00,0x83,0x42,0x90,
0x42,0x3e,0x3c,0x80,0x3b,0x00,0x83,0x3c,0x80,0x34,0x00,0x01,0x90,0x36,0x37,0x00,
0x90,0x37,0x37,0x00,0x90,0x3b,0x45,0x83,0x79,0x90,0x3d,0x3e,0x27,0x80,0x42,0x00,
0x83,0x53,0x80,0x36,0x00,0x00,0x80,0x37,0x00,0x00,0x80,0x3b,0x00,0x05,0x90,0x3b,
0x3e,0x00,0x90,0x32,0x43,0x38,0x80,0x3d,0x00,0x87,0x61,0x80,0x32,0x00,0x01,0x90,
0x36,0x37,0x00,0x90,0x39,0x45,0x83,0x5a,0x80,0x36,0x00,0x1e,0x80,0x39,0x00,0x01,
0x90,0x3a,0x3e,0x00,0x90,0x2d,0x3e,0x3c,0x80,0x3b,0x00,0x83,0x42,0x90,0x3b,0x3e,
0x3c,0x80,0x3a,0x00,0x83,0x23,0x80,0x2d,0x00,0x1f,0x90,0x36,0x36,0x00,0x90,0x39,
0x44,0x87,0x71,0x80,0x36,0x00,0x00,0x80,0x39,0x00,0x01,0x90,0x31,0x3e,0x83,0x5c,
0x80,0x31,0x00,0x23,0x90,0x32,0x43,0x83,0x7f,0x80,0x32,0x00,0x1f,0x90,0x36,0x36,
0x00,0x90,0x39,0x44,0x87,0x74,0x80,0x36,0x00,0x00,0x80,0x39,0x00,0x01,0x90,0x2d,
0x3e,0x83,0x7d,0x80,0x3b,0x00,0x01,0x90,0x3b,0x3e,0x87,0x76,0x80,0x2d,0x00,0x01,
0x90,0x3c,0x3e,0x00,0x90,0x36,0x37,0x00,0x90,0x39,0x45,0x27,0x80,0x3b,0x00,0x87,
0x4c,0x80,0x36,0x00,0x00,0x80,0x39,0x00,0x05,0x90,0x3d,0x3e,0x00,0x90,0x2a,0x43,
0x23,0x80,0x3c,0x00,0x87,0x76,0x80,0x2a,0x00,0x01,0x90,0x33,0x37,0x00,0x90,0x3b,
0x45,0x83,0x5a,0x80,0x33,0x00,0x1e,0x80,0x3b,0x00,0x01,0x90,0x3c,0x3e,0x00,0x90,
0x31,0x3e,0x3c,0x80,0x3d,0x00,0x83,0x42,0x90,0x3d,0x3e,0x3c,0x80,0x3c,0x00,0x83,
0x41,0x80,0x31,0x00,0x01,0x90,0x31,0x36,0x00,0x90,0x3a,0x44,0x87,0x71,0x80,0x31,
0x00,0x00,0x80,0x3a,0x00,0x01,0x90,0x29,0x3e,0x83,0x5c,0x80,0x29,0x00,0x23,0x90,
0x2a,0x43,0x83,0x7f,0x80,0x2a,0x00,0x1f,0x90,0x31,0x36,0x00,0x90,0x3a,0x44,0x83,
0x7b,0x80,0x3d,0x00,0x01,0x90,0x3d,0x3e,0x83,0x78,0x80,0x31,0x00,0x00,0x80,0x3a,
0x00,0x01,0x90,0x3c,0x3e,0x00,0x90,0x25,0x3d,0x3c,0x80,0x3d,0x00,0x83,0x42,0x90,
0x3d,0x3e,0x3c,0x80,0x3c,0x00,0x83,0x42,0x90,0x44,0x3e,0x3c,0x80,0x3d,0x00,0x83,
0x3c,0x80,0x25,0x00,0x01,0x90,0x31,0x37,0x00,0x90,0x3a,0x45,0x83,0x79,0x90,0x3f,
0x3e,0x27,0x80,0x44,0x00,0x83,0x53,0x80,0x31,0x00,0x00,0x80,0x3a,0x00,0x05,0x90,
0x3d,0x3e,0x00,0x90,0x2a,0x43,0x38,0x80,0x3f,0x00,0x87,0x61,0x80,0x2a,0x00,0x01,
0x90,0x36,0x37,0x00,0x90,0x39,0x45,0x83,0x5a,0x80,0x36,0x00,0x1e,0x80,0x39,0x00,
0x01,0x90,0x3f,0x3e,0x00,0x90,0x2f,0x3e,0x3c,0x80,0x3d,0x00,0x83,0x42,0x90,0x3b,
0x39,0x3c,0x80,0x3f,0x00,0x83,0x23,0x80,0x2f,0x00,0x1f,0x90,0x36,0x36,0x00,0x90,
0x39,0x44,0x87,0x44,0x80,0x3b,0x00,0x2e,0x90,0x3d,0x3e,0x83,0x7a,0x80,0x36,0x00,
0x00,0x80,0x39,0x00,0x05,0x90,0x3e,0x39,0x00,0x90,0x28,0x42,0x38,0x80,0x3d,0x00,
0x82,0x09,0x80,0x3e,0x00,0x81,0x5d,0x90,0x42,0x36,0x00,0x90,0x45,0x44,0x83,0x0e,
0x80,0x42,0x00,0x00,0x80,0x45,0x00,0x84,0x67,0x90,0x3e,0x3e,0x83,0x5f,0x80,0x3e,
0x00,0x1e,0x80,0x28,0x00,0x01,0x90,0x40,0x39,0x00,0x90,0x44,0x43,0x00,0x90,0x31,
0x2d,0x00,0x90,0x3b,0x37,0x81,0x4a,0x80,0x40,0x00,0x00,0x80,0x44,0x00,0x00,0x80,
0x31,0x00,0x00,0x80,0x3b,0x00,0x82,0x34,0x90,0x40,0x36,0x00,0x90,0x44,0x40,0x00,
0x90,0x31,0x2a,0x00,0x90,0x3b,0x34,0x81,0x45,0x80,0x40,0x00,0x00,0x80,0x44,0x00,
0x00,0x80,0x31,0x00,0x00,0x80,0x3b,0x00,0x82,0x34,0x90,0x40,0x37,0x00,0x90,0x44,
0x41,0x00,0x90,0x31,0x37,0x00,0x90,0x3b,0x41,0x83,0x0d,0x80,0x40,0x00,0x00,0x80,
0x44,0x00,0x00,0x80,0x31,0x00,0x00,0x80,0x3b,0x00,0x84,0x6a,0xb0,0x64,0x00,0x00,
0xb0,0x65,0x00,0x00,0xb0,0x64,0x00,0x00,0xb0,0x65,0x00,0x01,0xb0,0x06,0x0c,0x00,
0xb0,0x06,0x0c,0x01,0xb0,0x26,0x00,0x00,0xb0,0x26,0x00,0x05,0x90,0x3e,0x3b,0x00,
0x90,0x42,0x49,0x00,0x90,0x2f,0x43,0x83,0x2d,0x80,0x3e,0x00,0x00,0x80,0x42,0x00,
0x00,0x80,0x2f,0x00,0x84,0x67,0x90,0x42,0x37,0x00,0x90,0x45,0x45,0x81,0x45,0x80,
0x42,0x00,0x00,0x80,0x45,0x00,0x82,0x34,0x90,0x45,0x36,0x00,0x90,0x49,0x44,0x81,
0x4a,0x80,0x45,0x00,0x00,0x80,0x49,0x00,0x86,0x32,0x90,0x42,0x36,0x00,0x90,0x45,
0x44,0x81,0x45,0x80,0x42,0x00,0x00,0x80,0x45,0x00,0x86,0x2d,0x90,0x3e,0x36,0x00,
0x90,0x42,0x44,0x81,0x47,0x80,0x3e,0x00,0x00,0x80,0x42,0x00,0x82,0x38,0x90,0x3e,
0x43,0x00,0x90,0x38,0x37,0x81,0x6a,0x80,0x3e,0x00,0x00,0x80,0x38,0x00,0x82,0x34,
0x90,0x3e,0x3e,0x00,0x90,0x38,0x32,0x81,0x48,0x80,0x3e,0x00,0x00,0x80,0x38,0x00,
0x82,0x34,0x90,0x3e,0x3f,0x00,0x90,0x38,0x33,0x81,0x45,0x80,0x3e,0x00,0x00,0x80,
0x38,0x00,0x92,0x22,0x90,0x3d,0x3e,0x00,0x90,0x35,0x3e,0x83,0x7f,0x90,0x3e,0x39,
0x00,0x90,0x2f,0x31,0x00,0x90,0x36,0x3f,0x38,0x80,0x3d,0x00,0x00,0x80,0x35,0x00,
0x81,0x32,0x80,0x3e,0x00,0x81,0x1c,0x80,0x36,0x00,0x81,0x18,0x90,0x3e,0x36,0x00,
0x90,0x42,0x44,0x43,0x80,0x2f,0x00,0x81,0x05,0x80,0x3e,0x00,0x00,0x80,0x42,0x00,
0x82,0x34,0x90,0x42,0x37,0x00,0x90,0x45,0x45,0x81,0x45,0x80,0x42,0x00,0x00,0x80,
0x45,0x00,0x82,0x34,0x90,0x45,0x36,0x00,0x90,0x49,0x44,0x81,0x4a,0x80,0x45,0x00,
0x00,0x80,0x49,0x00,0x86,0x32,0x90,0x42,0x36,0x00,0x90,0x45,0x44,0x81,0x45,0x80,
0x42,0x00,0x00,0x80,0x45,0x00,0x86,0x2d,0x90,0x3e,0x36,0x00,0x90,0x42,0x44,0x81,
0x47,0x80,0x3e,0x00,0x00,0x80,0x42,0x00,0x82,0x38,0x90,0x40,0x3b,0x00,0x90,0x44,
0x3b,0x00,0x90,0x4c,0x49,0x00,0x90,0x38,0x43,0x8c,0x12,0x80,0x40,0x00,0x00,0x80,
0x44,0x00,0x00,0x80,0x4c,0x00,0x00,0x80,0x38,0x00,0x01,0x90,0x3f,0x36,0x00,0x90,
0x43,0x36,0x00,0x90,0x4b,0x44,0x00,0x90,0x37,0x3e,0x83,0x5f,0x80,0x3f,0x00,0x00,
0x80,0x43,0x00,0x00,0x80,0x37,0x00,0x1e,0x80,0x4b,0x00,0x01,0x90,0x3e,0x39,0x00,
0x90,0x42,0x39,0x00,0x90,0x4a,0x47,0x00,0x90,0x36,0x41,0x83,0x10,0x80,0x3e,0x00,
0x00,0x80,0x42,0x00,0x00,0x80,0x4a,0x00,0x00,0x80,0x36,0x00,0x8c,0x5f,0x90,0x44,
0x43,0x00,0x90,0x2d,0x43,0x81,0x6a,0x80,0x44,0x00,0x00,0x80,0x2d,0x00,0x86,0x30,
0x90,0x49,0x3f,0x00,0x90,0x3d,0x37,0x00,0x90,0x40,0x45,0x81,0x27,0x80,0x40,0x00,
0x1e,0x80,0x49,0x00,0x00,0x80,0x3d,0x00,0x82,0x34,0x90,0x42,0x3e,0x81,0x4a,0x80,
0x42,0x00,0x86,0x32,0x90,0x49,0x3e,0x00,0x90,0x34,0x3e,0x81,0x45,0x80,0x49,0x00,
0x00,0x80,0x34,0x00,0x86,0x2d,0x90,0x44,0x3e,0x00,0x90,0x38,0x3e,0x81,0x47,0x80,
0x44,0x00,0x00,0x80,0x38,0x00,0x86,0x56,0x90,0x49,0x3e,0x00,0x90,0x3d,0x36,0x00,
0x90,0x40,0x44,0x81,0x48,0x80,0x49,0x00,0x00,0x80,0x3d,0x00,0x00,0x80,0x40,0x00,
0x86,0x2d,0x90,0x43,0x3e,0x00,0x90,0x37,0x3e,0x83,0x7e,0x90,0x42,0x39,0x00,0x90,
0x36,0x39,0x3c,0x80,0x43,0x00,0x00,0x80,0x37,0x00,0x82,0x76,0x80,0x42,0x00,0x00,
0x80,0x36,0x00,0x84,0x45,0x90,0x40,0x3f,0x00,0x90,0x3d,0x3f,0x81,0x45,0x80,0x40,
0x00,0x00,0x80,0x3d,0x00,0x86,0x33,0x90,0x36,0x3b,0x00,0x90,0x3c,0x45,0x00,0x90,
0x26,0x42,0x81,0x6a,0x80,0x36,0x00,0x00,0x80,0x3c,0x00,0x00,0x80,0x26,0x00,0x82,
0x34,0x90,0x36,0x36,0x00,0x90,0x3c,0x40,0x00,0x90,0x26,0x3d,0x81,0x48,0x80,0x36,
0x00,0x00,0x80,0x3c,0x00,0x00,0x80,0x26,0x00,0x82,0x34,0x90,0x36,0x37,0x00,0x90,
0x3c,0x41,0x00,0x90,0x26,0x3e,0x81,0x27,0x80,0x3c,0x00,0x1e,0x80,0x36,0x00,0x00,
0x80,0x26,0x00,0x8e,0x29,0x90,0x36,0x2b,0x00,0x90,0x3c,0x35,0x00,0x90,0x26,0x32,
0x81,0x45,0x80,0x36,0x00,0x00,0x80,0x3c,0x00,0x00,0x80,0x26,0x00,0x82,0x34,0x90,
0x36,0x2a,0x00,0x90,0x3c,0x34,0x00,0x90,0x26,0x31,0x81,0x47,0x80,0x36,0x00,0x00,
0x80,0x3c,0x00,0x00,0x80,0x26,0x00,0x82,0x38,0x90,0x36,0x2f,0x00,0x90,0x3c,0x3d,
0x00,0x90,0x26,0x36,0x81,0x6a,0x80,0x36,0x00,0x00,0x80,0x26,0x00,0x1f,0x80,0x3c,
0x00,0x8e,0x08,0x90,0x38,0x39,0x00,0x90,0x3b,0x39,0x00,0x90,0x3f,0x47,0x87,0x76,
0x80,0x38,0x00,0x00,0x80,0x3b,0x00,0x00,0x80,0x3f,0x00,0x01,0x90,0x37,0x37,0x00,
0x90,0x3a,0x37,0x00,0x90,0x3e,0x45,0x87,0x73,0x80,0x37,0x00,0x00,0x80,0x3a,0x00,
0x00,0x80,0x3e,0x00,0x05,0x90,0x3e,0x3b,0x00,0x90,0x42,0x49,0x00,0x90,0x36,0x3b,
0x00,0x90,0x39,0x3b,0x00,0x90,0x3d,0x49,0x83,0x33,0x80,0x3e,0x00,0x00,0x80,0x42,
0x00,0x4c,0x80,0x36,0x00,0x00,0x80,0x39,0x00,0x00,0x80,0x3d,0x00,0x84,0x1b,0x90,
0x42,0x37,0x00,0x90,0x45,0x45,0x81,0x45,0x80,0x42,0x00,0x00,0x80,0x45,0x00,0x82,
0x34,0x90,0x45,0x36,0x00,0x90,0x49,0x44,0x81,0x4a,0x80,0x45,0x00,0x00,0x80,0x49,
0x00,0x86,0x32,0x90,0x42,0x36,0x00,0x90,0x45,0x44,0x81,0x45,0x80,0x42,0x00,0x00,
0x80,0x45,0x00,0x86,0x2d,0x90,0x3f,0x36,0x00,0x90,0x42,0x44,0x00,0x90,0x3e,0x3e,
0x83,0x7a,0x80,0x42,0x00,0x00,0x80,0x3e,0x00,0x05,0x90,0x40,0x39,0x00,0x90,0x38,
0x31,0x00,0x90,0x3e,0x3b,0x38,0x80,0x3f,0x00,0x81,0x32,0x80,0x40,0x00,0x00,0x80,
0x38,0x00,0x00,0x80,0x3e,0x00,0x82,0x34,0x90,0x40,0x3e,0x00,0x90,0x38,0x36,0x00,
0x90,0x3e,0x40,0x81,0x48,0x80,0x40,0x00,0x00,0x80,0x38,0x00,0x00,0x80,0x3e,0x00,
0x82,0x34,0x90,0x40,0x3f,0x00,0x90,0x38,0x37,0x00,0x90,0x3e,0x41,0x81,0x27,0x80,
0x3e,0x00,0x1e,0x80,0x40,0x00,0x00,0x80,0x38,0x00,0x86,0x32,0x90,0x44,0x39,0x00,
0x90,0x4c,0x43,0x81,0x4a,0x80,0x44,0x00,0x00,0x80,0x4c,0x00,0x82,0x34,0x90,0x44,
0x36,0x00,0x90,0x4c,0x40,0x81,0x45,0x80,0x44,0x00,0x00,0x80,0x4c,0x00,0x82,0x34,
0x90,0x44,0x37,0x00,0x90,0x4c,0x45,0x81,0x27,0x80,0x4c,0x00,0x1e,0x80,0x44,0x00,
0x86,0x33,0x90,0x2f,0x43,0x83,0x33,0x80,0x2f,0x00,0x6b,0x90,0x3e,0x36,0x00,0x90,
0x42,0x44,0x81,0x48,0x80,0x3e,0x00,0x00,0x80,0x42,0x00,0x82,0x34,0x90,0x42,0x37,
0x00,0x90,0x45,0x45,0x81,0x45,0x80,0x42,0x00,0x00,0x80,0x45,0x00,0x82,0x34,0x90,
0x45,0x36,0x00,0x90,0x49,0x44,0x81,0x4a,0x80,0x45,0x00,0x00,0x80,0x49,0x00,0x86,
0x32,0x90,0x42,0x36,0x00,0x90,0x45,0x44,0x81,0x45,0x80,0x42,0x00,0x00,0x80,0x45,
0x00,0x86,0x2d,0x90,0x3e,0x36,0x00,0x90,0x42,0x44,0x81,0x47,0x80,0x3e,0x00,0x00,
0x80,0x42,0x00,0x82,0x38,0x90,0x40,0x3b,0x00,0x90,0x44,0x3b,0x00,0x90,0x49,0x49,
0x00,0x90,0x34,0x43,0x90,0x10,0x80,0x40,0x00,0x00,0x80,0x44,0x00,0x00,0x80,0x49,
0x00,0x00,0x80,0x34,0x00,0x01,0x90,0x3e,0x39,0x00,0x90,0x42,0x39,0x00,0x90,0x47,
0x47,0x00,0x90,0x32,0x41,0x83,0x10,0x80,0x3e,0x00,0x00,0x80,0x42,0x00,0x00,0x80,
0x47,0x00,0x00,0x80,0x32,0x00,0x8c,0x5f,0x90,0x47,0x43,0x00,0x90,0x34,0x43,0x83,
0x7f,0x80,0x47,0x00,0x1f,0x90,0x43,0x3e,0x83,0x5d,0x80,0x43,0x00,0x1e,0x80,0x34,
0x00,0x01,0x90,0x3e,0x3f,0x00,0x90,0x3b,0x3f,0x81,0x45,0x80,0x3b,0x00,0x82,0x15,
0x80,0x3e,0x00,0x1f,0x90,0x3d,0x3e,0x00,0x90,0x2d,0x3e,0x87,0x5d,0x80,0x3d,0x00,
0x00,0x80,0x2d,0x00,0x1f,0x90,0x47,0x3e,0x00,0x90,0x39,0x36,0x00,0x90,0x3d,0x44,
0x81,0x45,0x80,0x39,0x00,0x00,0x80,0x3d,0x00,0x82,0x15,0x80,0x47,0x00,0x1f,0x90,
0x43,0x3f,0x83,0x5a,0x80,0x43,0x00,0x1f,0x90,0x3d,0x3e,0x83,0x5c,0x80,0x3d,0x00,
0x23,0x90,0x45,0x43,0x00,0x90,0x32,0x43,0x83,0x7f,0x80,0x45,0x00,0x1f,0x90,0x42,
0x3e,0x83,0x5d,0x80,0x42,0x00,0x1e,0x80,0x32,0x00,0x01,0x90,0x3c,0x3f,0x00,0x90,
0x39,0x3f,0x81,0x45,0x80,0x39,0x00,0x82,0x15,0x80,0x3c,0x00,0x1f,0x90,0x3b,0x3e,
0x00,0x90,0x2b,0x3e,0x87,0x5d,0x80,0x3b,0x00,0x00,0x80,0x2b,0x00,0x1f,0x90,0x41,
0x3e,0x00,0x90,0x37,0x36,0x00,0x90,0x3b,0x44,0x81,0x45,0x80,0x37,0x00,0x00,0x80,
0x3b,0x00,0x82,0x15,0x80,0x41,0x00,0x1f,0x90,0x3e,0x3f,0x83,0x5a,0x80,0x3e,0x00,
0x1f,0x90,0x3b,0x3e,0x83,0x5c,0x80,0x3b,0x00,0x23,0x90,0x36,0x3b,0x00,0x90,0x3d,
0x45,0x00,0x90,0x2f,0x2f,0x00,0x90,0x34,0x3d,0x81,0x6a,0x80,0x36,0x00,0x00,0x80,
0x3d,0x00,0x00,0x80,0x2f,0x00,0x00,0x80,0x34,0x00,0x82,0x34,0x90,0x36,0x36,0x00,
0x90,0x3d,0x40,0x00,0x90,0x2f,0x2a,0x00,0x90,0x34,0x34,0x81,0x48,0x80,0x36,0x00,
0x00,0x80,0x3d,0x00,0x00,0x80,0x2f,0x00,0x00,0x80,0x34,0x00,0x82,0x34,0x90,0x36,
0x37,0x00,0x90,0x3d,0x41,0x00,0x90,0x2f,0x2b,0x00,0x90,0x34,0x35,0x81,0x27,0x80,
0x3d,0x00,0x1e,0x80,0x36,0x00,0x00,0x80,0x2f,0x00,0x1f,0x80,0x34,0x00,0x92,0x03,
0x90,0x46,0x3e,0x00,0x90,0x31,0x3e,0x83,0x7f,0x90,0x47,0x39,0x00,0x90,0x32,0x39,
0x38,0x80,0x46,0x00,0x00,0x80,0x31,0x00,0x82,0x09,0x80,0x47,0x00,0x00,0x80,0x32,
0x00,0x81,0x5d,0x90,0x49,0x3e,0x00,0x90,0x37,0x3e,0x83,0x7c,0x90,0x4a,0x39,0x00,
0x90,0x38,0x39,0x3c,0x80,0x49,0x00,0x00,0x80,0x37,0x00,0x81,0x60,0x80,0x4a,0x00,
0x00,0x80,0x38,0x00,0x81,0x5d,0x90,0x4e,0x3e,0x00,0x90,0x3d,0x3e,0x83,0x7e,0x90,
0x51,0x39,0x00,0x90,0x43,0x39,0x3c,0x80,0x4e,0x00,0x00,0x80,0x3d,0x00,0x81,0x65,
0x80,0x51,0x00,0x00,0x80,0x43,0x00,0x9d,0x5f,0x90,0x39,0x3e,0x87,0x77,0x90,0x3a,
0x3e,0x27,0x80,0x39,0x00,0x87,0x51,0x90,0x3b,0x3e,0x00,0x90,0x34,0x43,0x23,0x80,
0x3a,0x00,0x87,0x76,0x80,0x34,0x00,0x01,0x90,0x34,0x37,0x00,0x90,0x37,0x45,0x83,
0x5a,0x80,0x34,0x00,0x1e,0x80,0x37,0x00,0x01,0x90,0x3a,0x3e,0x00,0x90,0x2f,0x3e,
0x3c,0x80,0x3b,0x00,0x83,0x42,0x90,0x3b,0x3e,0x3c,0x80,0x3a,0x00,0x83,0x23,0x80,
0x2f,0x00,0x1f,0x90,0x34,0x36,0x00,0x90,0x37,0x44,0x8b,0x6c,0x80,0x34,0x00,0x00,
0x80,0x37,0x00,0x05,0x90,0x2d,0x43,0x83,0x7f,0x80,0x2d,0x00,0x1f,0x90,0x34,0x36,
0x00,0x90,0x37,0x44,0x83,0x4e,0x80,0x3b,0x00,0x2e,0x90,0x39,0x3e,0x83,0x78,0x80,
0x34,0x00,0x00,0x80,0x37,0x00,0x01,0x90,0x3a,0x3e,0x00,0x90,0x34,0x3e,0x3c,0x80,
0x39,0x00,0x83,0x42,0x90,0x3b,0x3e,0x3c,0x80,0x3a,0x00,0x83,0x42,0x90,0x42,0x3e,
0x3c,0x80,0x3b,0x00,0x83,0x3c,0x80,0x34,0x00,0x01,0x90,0x36,0x37,0x00,0x90,0x37,
0x37,0x00,0x90,0x3b,0x45,0x83,0x79,0x90,0x3d,0x3e,0x27,0x80,0x42,0x00,0x83,0x53,
0x80,0x36,0x00,0x00,0x80,0x37,0x00,0x00,0x80,0x3b,0x00,0x05,0x90,0x3b,0x3e,0x00,
0x90,0x32,0x43,0x38,0x80,0x3d,0x00,0x87,0x61,0x80,0x32,0x00,0x01,0x90,0x36,0x37,
0x00,0x90,0x39,0x45,0x83,0x5a,0x80,0x36,0x00,0x1e,0x80,0x39,0x00,0x01,0x90,0x3a,
0x3e,0x00,0x90,0x2d,0x3e,0x3c,0x80,0x3b,0x00,0x83,0x42,0x90,0x3b,0x3e,0x3c,0x80,
0x3a,0x00,0x83,0x23,0x80,0x2d,0x00,0x1f,0x90,0x36,0x36,0x00,0x90,0x39,0x44,0x87,
0x71,0x80,0x36,0x00,0x00,0x80,0x39,0x00,0x01,0x90,0x31,0x3e,0x83,0x5c,0x80,0x31,
0x00,0x23,0x90,0x32,0x43,0x83,0x7f,0x80,0x32,0x00,0x1f,0x90,0x36,0x36,0x00,0x90,
0x39,0x44,0x87,0x74,0x80,0x36,0x00,0x00,0x80,0x39,0x00,0x01,0x90,0x2d,0x3e,0x83,
0x7d,0x80,0x3b,0x00,0x01,0x90,0x3b,0x3e,0x87,0x76,0x80,0x2d,0x00,0x01,0x90,0x3c,
0x3e,0x00,0x90,0x36,0x37,0x00,0x90,0x39,0x45,0x27,0x80,0x3b,0x00,0x87,0x4c,0x80,
0x36,0x00,0x00,0x80,0x39,0x00,0x05,0x90,0x3d,0x3e,0x00,0x90,0x2a,0x43,0x23,0x80,
0x3c,0x00,0x87,0x76,0x80,0x2a,0x00,0x01,0x90,0x33,0x37,0x00,0x90,0x3b,0x45,0x83,
0x5a,0x80,0x33,0x00,0x1e,0x80,0x3b,0x00,0x01,0x90,0x3c,0x3e,0x00,0x90,0x31,0x3e,
0x3c,0x80,0x3d,0x00,0x83,0x42,0x90,0x3d,0x3e,0x3c,0x80,0x3c,0x00,0x83,0x41,0x80,
0x31,0x00,0x01,0x90,0x31,0x36,0x00,0x90,0x3a,0x44,0x87,0x71,0x80,0x31,0x00,0x00,
0x80,0x3a,0x00,0x01,0x90,0x29,0x3e,0x83,0x5c,0x80,0x29,0x00,0x23,0x90,0x2a,0x43,
0x83,0x7f,0x80,0x2a,0x00,0x1f,0x90,0x31,0x36,0x00,0x90,0x3a,0x44,0x83,0x7b,0x80,
0x3d,0x00,0x01,0x90,0x3d,0x3e,0x83,0x78,0x80,0x31,0x00,0x00,0x80,0x3a,0x00,0x01,
0x90,0x3c,0x3e,0x00,0x90,0x25,0x3d,0x3c,0x80,0x3d,0x00,0x83,0x42,0x90,0x3d,0x3e,
0x3c,0x80,0x3c,0x00,0x83,0x42,0x90,0x44,0x3e,0x3c,0x80,0x3d,0x00,0x83,0x3c,0x80,
0x25,0x00,0x01,0x90,0x31,0x37,0x00,0x90,0x3a,0x45,0x83,0x79,0x90,0x3f,0x3e,0x27,
0x80,0x44,0x00,0x83,0x53,0x80,0x31,0x00,0x00,0x80,0x3a,0x00,0x05,0x90,0x3d,0x3e,
0x00,0x90,0x2a,0x43,0x38,0x80,0x3f,0x00,0x87,0x61,0x80,0x2a,0x00,0x01,0x90,0x36,
0x37,0x00,0x90,0x39,0x45,0x83,0x5a,0x80,0x36,0x00,0x1e,0x80,0x39,0x00,0x01,0x90,
0x3f,0x3e,0x00,0x90,0x2f,0x3e,0x3c,0x80,0x3d,0x00,0x83,0x42,0x90,0x3b,0x39,0x3c,
0x80,0x3f,0x00,0x83,0x23,0x80,0x2f,0x00,0x1f,0x90,0x36,0x36,0x00,0x90,0x39,0x44,
0x87,0x44,0x80,0x3b,0x00,0x2e,0x90,0x3d,0x3e,0x83,0x7a,0x80,0x36,0x00,0x00,0x80,
0x39,0x00,0x05,0x90,0x3e,0x39,0x00,0x90,0x28,0x42,0x38,0x80,0x3d,0x00,0x82,0x09,
0x80,0x3e,0x00,0x81,0x5d,0x90,0x42,0x36,0x00,0x90,0x45,0x44,0x83,0x0e,0x80,0x42,
0x00,0x00,0x80,0x45,0x00,0x84,0x67,0x90,0x3e,0x3e,0x83,0x5f,0x80,0x3e,0x00,0x1e,
0x80,0x28,0x00,0x01,0x90,0x40,0x39,0x00,0x90,0x44,0x43,0x00,0x90,0x31,0x2d,0x00,
0x90,0x3b,0x37,0x81,0x4a,0x80,0x40,0x00,0x00,0x80,0x44,0x00,0x00,0x80,0x31,0x00,
0x00,0x80,0x3b,0x00,0x82,0x34,0x90,0x40,0x36,0x00,0x90,0x44,0x40,0x00,0x90,0x31,
0x2a,0x00,0x90,0x3b,0x34,0x81,0x45,0x80,0x40,0x00,0x00,0x80,0x44,0x00,0x00,0x80,
0x31,0x00,0x00,0x80,0x3b,0x00,0x82,0x34,0x90,0x40,0x37,0x00,0x90,0x44,0x41,0x00,
0x90,0x31,0x37,0x00,0x90,0x3b,0x41,0x83,0x0d,0x80,0x40,0x00,0x00,0x80,0x44,0x00,
0x00,0x80,0x31,0x00,0x00,0x80,0x3b,0x00,0x01,0xff,0x2f,0x00,
};
