#include <stdint.h>
const uint8_t midifile[] = {
0x4d,0x54,0x68,0x64,0x00,0x00,0x00,0x06,0x00,0x01,0x00,0x0a,0x01,0x80,0x4d,0x54,
0x72,0x6b,0x00,0x00,0x00,0x1e,0x00,0xff,0x58,0x04,0x03,0x02,0x18,0x08,0x00,0xff,
0x51,0x03,0x07,0x53,0x00,0x89,0x00,0xff,0x58,0x04,0x04,0x02,0x18,0x08,0x81,0x9c,
0x00,0xff,0x2f,0x00,0x4d,0x54,0x72,0x6b,0x00,0x00,0x01,0x11,0x00,0xff,0x03,0x0a,
0x46,0x49,0x4e,0x47,0x45,0x52,0x44,0x42,0x41,0x53,0x83,0x28,0xb1,0x79,0x00,0x00,
0xb1,0x00,0x00,0x00,0xb1,0x20,0x00,0x00,0xc1,0x21,0x00,0xb1,0x07,0x64,0x00,0xb1,
0x0a,0x40,0x00,0xb1,0x5b,0x00,0x00,0xb1,0x5d,0x00,0xe5,0x28,0x91,0x35,0x7a,0x82,
0x24,0x81,0x35,0x40,0x5c,0x91,0x35,0x67,0x34,0x81,0x35,0x40,0x4c,0x91,0x35,0x61,
0x38,0x81,0x35,0x40,0x48,0x91,0x35,0x61,0x38,0x81,0x35,0x40,0x48,0x91,0x35,0x7a,
0x82,0x30,0x81,0x35,0x40,0x50,0x91,0x35,0x6d,0x34,0x81,0x35,0x40,0x4c,0x91,0x35,
0x61,0x2c,0x81,0x35,0x40,0x54,0x91,0x35,0x71,0x30,0x81,0x35,0x40,0x54,0x91,0x35,
0x75,0x82,0x38,0x81,0x35,0x40,0x44,0x91,0x35,0x61,0x30,0x81,0x35,0x40,0x50,0x91,
0x35,0x61,0x30,0x81,0x35,0x40,0x50,0x91,0x35,0x67,0x2c,0x81,0x35,0x40,0x54,0x91,
0x35,0x6a,0x30,0x81,0x35,0x40,0x50,0x91,0x35,0x67,0x28,0x81,0x35,0x40,0x58,0x91,
0x35,0x6a,0x38,0x81,0x35,0x40,0x48,0x91,0x35,0x6d,0x34,0x81,0x35,0x40,0x4c,0x91,
0x35,0x6d,0x2c,0x81,0x35,0x40,0x54,0x91,0x35,0x6d,0x34,0x81,0x35,0x40,0x50,0x91,
0x35,0x7a,0x82,0x30,0x81,0x35,0x40,0x4c,0x91,0x35,0x6d,0x30,0x81,0x35,0x40,0x50,
0x91,0x35,0x64,0x28,0x81,0x35,0x40,0x58,0x91,0x35,0x6d,0x30,0x81,0x35,0x40,0x50,
0x91,0x35,0x75,0x82,0x28,0x81,0x35,0x40,0x58,0x91,0x35,0x5c,0x2c,0x81,0x35,0x40,
0x54,0x91,0x35,0x6a,0x2c,0x81,0x35,0x40,0x54,0x91,0x35,0x6d,0x34,0x81,0x35,0x40,
0x50,0x91,0x35,0x7e,0x68,0x81,0x35,0x40,0x97,0x44,0xff,0x2f,0x00,0x4d,0x54,0x72,
0x6b,0x00,0x00,0x03,0xf8,0x00,0xff,0x03,0x07,0x42,0x52,0x41,0x53,0x53,0x20,0x31,
0x83,0x3c,0xb2,0x79,0x00,0x00,0xb2,0x00,0x00,0x00,0xb2,0x20,0x00,0x00,0xc2,0x3d,
0x00,0xb2,0x07,0x64,0x00,0xb2,0x0a,0x3c,0x00,0xb2,0x5b,0x7f,0x00,0xb2,0x5d,0x00,
0x85,0x44,0x92,0x48,0x6a,0x1c,0x82,0x48,0x40,0x34,0x92,0x43,0x56,0x30,0x82,0x43,
0x40,0x50,0x92,0x48,0x5c,0x48,0x82,0x48,0x40,0x38,0x92,0x4a,0x5f,0x44,0x82,0x4a,
0x40,0x3c,0x92,0x48,0x5a,0x40,0x82,0x48,0x40,0x40,0x92,0x4f,0x64,0x87,0x2c,0x82,
0x4f,0x40,0x54,0x92,0x4d,0x4a,0x28,0x82,0x4d,0x40,0x58,0x92,0x4f,0x4f,0x30,0x82,
0x4f,0x40,0x50,0x92,0x54,0x71,0x82,0x40,0x82,0x54,0x40,0x40,0x92,0x52,0x76,0x4c,
0x82,0x52,0x40,0x34,0x92,0x51,0x5c,0x40,0x82,0x51,0x40,0x40,0x92,0x4f,0x5a,0x40,
0x82,0x4f,0x40,0x40,0x92,0x51,0x6a,0x44,0x82,0x51,0x40,0x3c,0x92,0x4d,0x4d,0x40,
0x82,0x4d,0x40,0x40,0x92,0x4f,0x6a,0x88,0x00,0x92,0x43,0x50,0x04,0x82,0x4f,0x40,
0x40,0x82,0x43,0x40,0x3c,0x92,0x48,0x5c,0x38,0x82,0x48,0x40,0x48,0x92,0x4d,0x6a,
0x40,0x82,0x4d,0x40,0x40,0x92,0x48,0x56,0x38,0x82,0x48,0x40,0x48,0x92,0x4f,0x71,
0x82,0x00,0x92,0x48,0x3f,0x04,0x82,0x4f,0x40,0x34,0x82,0x48,0x40,0x48,0x92,0x4d,
0x54,0x40,0x82,0x4d,0x40,0x40,0x92,0x51,0x7a,0x50,0x82,0x51,0x40,0x30,0x92,0x48,
0x4c,0x34,0x82,0x48,0x40,0x50,0x92,0x4d,0x67,0x5c,0x82,0x4d,0x40,0x28,0x92,0x4f,
0x71,0x82,0x50,0x82,0x4f,0x40,0x2c,0x92,0x43,0x75,0x00,0x92,0x4f,0x71,0x28,0x82,
0x4f,0x40,0x20,0x82,0x43,0x40,0x38,0x92,0x4f,0x6d,0x00,0x92,0x43,0x6a,0x30,0x82,
0x43,0x40,0x08,0x82,0x4f,0x40,0x48,0x92,0x4f,0x7f,0x00,0x92,0x43,0x7a,0x60,0x82,
0x43,0x40,0x04,0x82,0x4f,0x40,0x20,0x92,0x3c,0x67,0x04,0x92,0x48,0x7a,0x82,0x28,
0x82,0x48,0x40,0x0c,0x82,0x3c,0x40,0x40,0x92,0x3c,0x67,0x00,0x92,0x48,0x7a,0x50,
0x82,0x3c,0x40,0x14,0x82,0x48,0x40,0x81,0x3c,0x92,0x3c,0x71,0x00,0x92,0x48,0x6a,
0x4c,0x82,0x48,0x40,0x14,0x82,0x3c,0x40,0x00,0x92,0x4f,0x7e,0x00,0x92,0x43,0x7a,
0x83,0x74,0x82,0x43,0x40,0x1c,0x82,0x4f,0x40,0x30,0x92,0x41,0x56,0x00,0x92,0x4d,
0x64,0x44,0x82,0x4d,0x40,0x1c,0x82,0x41,0x40,0x00,0x92,0x43,0x6a,0x00,0x92,0x4f,
0x6a,0x50,0x82,0x4f,0x40,0x14,0x92,0x45,0x6d,0x00,0x92,0x51,0x7a,0x08,0x82,0x43,
0x40,0x64,0x82,0x51,0x40,0x00,0x82,0x45,0x40,0x81,0x10,0x92,0x4d,0x6a,0x00,0x92,
0x41,0x71,0x38,0x82,0x4d,0x40,0x24,0x82,0x41,0x40,0x28,0x92,0x43,0x75,0x00,0x92,
0x4f,0x71,0x85,0x14,0x82,0x4f,0x40,0x04,0x82,0x43,0x40,0x68,0x92,0x4f,0x75,0x00,
0x92,0x43,0x71,0x48,0x82,0x43,0x40,0x08,0x82,0x4f,0x40,0x81,0x2c,0x92,0x43,0x64,
0x00,0x92,0x4f,0x67,0x44,0x82,0x4f,0x40,0x10,0x82,0x43,0x40,0x2c,0x92,0x46,0x70,
0x00,0x92,0x4f,0x6d,0x04,0x92,0x4b,0x5a,0x00,0x92,0x52,0x56,0x85,0x48,0x82,0x52,
0x40,0x04,0x82,0x4b,0x40,0x14,0x82,0x4f,0x40,0x08,0x82,0x46,0x40,0x14,0x92,0x43,
0x67,0x00,0x92,0x4f,0x6a,0x04,0x92,0x4c,0x67,0x00,0x92,0x48,0x5f,0x81,0x28,0x82,
0x4c,0x40,0x00,0x82,0x4f,0x40,0x04,0x82,0x48,0x40,0x04,0x82,0x43,0x40,0x81,0x4c,
0x92,0x43,0x6d,0x00,0x92,0x4f,0x6a,0x00,0x92,0x4c,0x64,0x00,0x92,0x48,0x61,0x40,
0x82,0x48,0x40,0x00,0x82,0x4c,0x40,0x0c,0x82,0x4f,0x40,0x08,0x82,0x43,0x40,0x81,
0x2c,0x92,0x43,0x6a,0x00,0x92,0x48,0x5a,0x00,0x92,0x4c,0x5f,0x00,0x92,0x4f,0x5f,
0x34,0x82,0x4f,0x40,0x00,0x82,0x4c,0x40,0x00,0x82,0x48,0x40,0x28,0x82,0x43,0x40,
0x28,0x92,0x46,0x7e,0x04,0x92,0x4f,0x64,0x00,0x92,0x4b,0x56,0x00,0x92,0x52,0x5f,
0x48,0x82,0x52,0x40,0x10,0x82,0x4b,0x40,0x00,0x82,0x46,0x40,0x04,0x82,0x4f,0x40,
0x81,0x20,0x92,0x52,0x53,0x00,0x92,0x46,0x7e,0x00,0x92,0x4b,0x53,0x04,0x92,0x4f,
0x52,0x1c,0x82,0x4b,0x40,0x10,0x82,0x52,0x40,0x04,0x82,0x4f,0x40,0x10,0x82,0x46,
0x40,0x3c,0x92,0x51,0x5c,0x04,0x92,0x48,0x6a,0x00,0x92,0x4d,0x5f,0x00,0x92,0x54,
0x61,0x88,0x6c,0x82,0x54,0x40,0x10,0x92,0x35,0x71,0x04,0x82,0x48,0x40,0x00,0x82,
0x51,0x40,0x04,0x82,0x4d,0x40,0x82,0x24,0x82,0x35,0x40,0x54,0x92,0x35,0x61,0x3c,
0x82,0x35,0x40,0x44,0x92,0x35,0x64,0x2c,0x82,0x35,0x40,0x54,0x92,0x35,0x75,0x3c,
0x82,0x35,0x40,0x44,0x92,0x3a,0x76,0x82,0x24,0x82,0x3a,0x40,0x5c,0x92,0x3a,0x6a,
0x34,0x82,0x3a,0x40,0x4c,0x92,0x3a,0x70,0x28,0x82,0x3a,0x40,0x58,0x92,0x3a,0x76,
0x30,0x82,0x3a,0x40,0x58,0x92,0x3c,0x71,0x82,0x58,0x82,0x3c,0x40,0x20,0x92,0x3f,
0x6a,0x28,0x82,0x3f,0x40,0x58,0x92,0x3f,0x6a,0x2c,0x82,0x3f,0x40,0x54,0x92,0x3f,
0x76,0x34,0x82,0x3f,0x40,0x4c,0x92,0x44,0x70,0x48,0x82,0x44,0x40,0x38,0x92,0x44,
0x64,0x30,0x82,0x44,0x40,0x54,0x92,0x44,0x6a,0x3c,0x82,0x44,0x40,0x44,0x92,0x4b,
0x6a,0x38,0x82,0x4b,0x40,0x48,0x92,0x4b,0x5f,0x1c,0x82,0x4b,0x40,0x64,0x92,0x4b,
0x6a,0x3c,0x82,0x4b,0x40,0x48,0x92,0x4d,0x5c,0x00,0x92,0x41,0x4d,0x82,0x38,0x82,
0x41,0x40,0x00,0x82,0x4d,0x40,0x44,0x92,0x41,0x4d,0x00,0x92,0x4d,0x54,0x2c,0x82,
0x41,0x40,0x0c,0x82,0x4d,0x40,0x44,0x92,0x41,0x4d,0x04,0x92,0x4d,0x54,0x28,0x82,
0x4d,0x40,0x00,0x82,0x41,0x40,0x58,0x92,0x41,0x54,0x00,0x92,0x4d,0x5f,0x3c,0x82,
0x4d,0x40,0x0c,0x82,0x41,0x40,0x38,0x92,0x46,0x6a,0x00,0x92,0x52,0x5a,0x82,0x40,
0x82,0x52,0x40,0x00,0x82,0x46,0x40,0x44,0x92,0x4b,0x49,0x00,0x92,0x57,0x64,0x28,
0x82,0x4b,0x40,0x08,0x82,0x57,0x40,0x4c,0x92,0x4b,0x4d,0x00,0x92,0x57,0x56,0x28,
0x82,0x57,0x40,0x04,0x82,0x4b,0x40,0x54,0x92,0x4b,0x5f,0x00,0x92,0x57,0x6a,0x3c,
0x82,0x57,0x40,0x28,0x82,0x4b,0x40,0x20,0x92,0x4d,0x67,0x04,0x92,0x59,0x71,0x81,
0x04,0x82,0x59,0x40,0x08,0x82,0x4d,0x40,0x97,0x14,0xff,0x2f,0x00,0x4d,0x54,0x72,
0x6b,0x00,0x00,0x04,0xd8,0x00,0xff,0x03,0x07,0x46,0x52,0x2e,0x48,0x4f,0x52,0x4e,
0x83,0x50,0xb3,0x79,0x00,0x00,0xb3,0x00,0x00,0x00,0xb3,0x20,0x00,0x00,0xc3,0x3c,
0x00,0xb3,0x07,0x64,0x00,0xb3,0x0a,0x40,0x00,0xb3,0x5b,0x7f,0x00,0xb3,0x5d,0x00,
0x86,0x00,0x93,0x3c,0x5a,0x38,0x83,0x3c,0x40,0x48,0x93,0x41,0x6d,0x48,0x83,0x41,
0x40,0x38,0x93,0x43,0x7e,0x6c,0x83,0x43,0x40,0x14,0x93,0x41,0x61,0x40,0x83,0x41,
0x40,0x40,0x93,0x43,0x7e,0x82,0x00,0x83,0x43,0x40,0x00,0x93,0x41,0x52,0x40,0x83,
0x41,0x40,0x40,0x93,0x43,0x67,0x40,0x83,0x43,0x40,0x40,0x93,0x48,0x75,0x81,0x64,
0x83,0x48,0x40,0x1c,0x93,0x46,0x7f,0x81,0x44,0x83,0x46,0x40,0x3c,0x93,0x45,0x75,
0x48,0x83,0x45,0x40,0x38,0x93,0x43,0x6a,0x48,0x83,0x43,0x40,0x38,0x93,0x45,0x7e,
0x60,0x83,0x45,0x40,0x20,0x93,0x41,0x61,0x38,0x83,0x41,0x40,0x48,0x93,0x43,0x7e,
0x82,0x00,0x93,0x3c,0x5a,0x08,0x83,0x43,0x40,0x4c,0x83,0x3c,0x40,0x2c,0x93,0x41,
0x6a,0x4c,0x83,0x41,0x40,0x34,0x93,0x43,0x7a,0x83,0x04,0x83,0x43,0x40,0x7c,0x93,
0x41,0x5f,0x38,0x83,0x41,0x40,0x48,0x93,0x43,0x71,0x40,0x83,0x43,0x40,0x40,0x93,
0x45,0x7f,0x64,0x83,0x45,0x40,0x1c,0x93,0x41,0x5f,0x3c,0x83,0x41,0x40,0x44,0x93,
0x43,0x7a,0x82,0x00,0x93,0x3c,0x6a,0x18,0x83,0x43,0x40,0x38,0x83,0x3c,0x40,0x30,
0x93,0x41,0x67,0x48,0x83,0x41,0x40,0x38,0x93,0x43,0x71,0x48,0x83,0x43,0x40,0x38,
0x93,0x45,0x6d,0x50,0x83,0x45,0x40,0x30,0x93,0x46,0x7f,0x82,0x00,0x93,0x45,0x64,
0x2c,0x83,0x46,0x40,0x24,0x83,0x45,0x40,0x34,0x93,0x43,0x75,0x50,0x83,0x43,0x40,
0x30,0x93,0x45,0x7f,0x82,0x7c,0x83,0x45,0x40,0x00,0x93,0x43,0x75,0x00,0x93,0x45,
0x3e,0x08,0x83,0x45,0x40,0x86,0x18,0x83,0x43,0x40,0xaf,0x60,0x93,0x35,0x6d,0x82,
0x14,0x83,0x35,0x40,0x6c,0x93,0x35,0x5f,0x40,0x83,0x35,0x40,0x40,0x93,0x35,0x5c,
0x38,0x83,0x35,0x40,0x48,0x93,0x35,0x5c,0x44,0x83,0x35,0x40,0x3c,0x93,0x35,0x5f,
0x00,0x93,0x3a,0x6a,0x82,0x38,0x83,0x3a,0x40,0x08,0x83,0x35,0x40,0x40,0x93,0x3a,
0x6a,0x00,0x93,0x35,0x5f,0x34,0x83,0x35,0x40,0x08,0x83,0x3a,0x40,0x44,0x93,0x3a,
0x64,0x00,0x93,0x35,0x5a,0x34,0x83,0x35,0x40,0x00,0x83,0x3a,0x40,0x4c,0x93,0x3a,
0x70,0x00,0x93,0x35,0x5c,0x34,0x83,0x35,0x40,0x04,0x83,0x3a,0x40,0x50,0x93,0x3a,
0x70,0x00,0x93,0x3c,0x61,0x00,0x93,0x35,0x5f,0x82,0x48,0x83,0x3a,0x40,0x04,0x83,
0x35,0x40,0x00,0x83,0x3c,0x40,0x2c,0x93,0x3f,0x70,0x00,0x93,0x3a,0x5f,0x04,0x93,
0x3c,0x58,0x00,0x93,0x35,0x54,0x28,0x83,0x35,0x40,0x04,0x83,0x3a,0x40,0x04,0x83,
0x3c,0x40,0x00,0x83,0x3f,0x40,0x4c,0x93,0x3f,0x6a,0x00,0x93,0x3a,0x64,0x00,0x93,
0x3c,0x5c,0x04,0x93,0x35,0x58,0x24,0x83,0x3a,0x40,0x00,0x83,0x3f,0x40,0x04,0x83,
0x35,0x40,0x00,0x83,0x3c,0x40,0x54,0x93,0x3f,0x6a,0x00,0x93,0x3a,0x64,0x00,0x93,
0x3c,0x5c,0x04,0x93,0x35,0x58,0x20,0x83,0x35,0x40,0x08,0x83,0x3c,0x40,0x04,0x83,
0x3a,0x40,0x04,0x83,0x3f,0x40,0x4c,0x93,0x44,0x70,0x00,0x93,0x3a,0x64,0x00,0x93,
0x3c,0x5a,0x04,0x93,0x3f,0x6a,0x00,0x93,0x35,0x5a,0x2c,0x83,0x35,0x40,0x04,0x83,
0x3a,0x40,0x04,0x83,0x3f,0x40,0x00,0x83,0x3c,0x40,0x08,0x83,0x44,0x40,0x40,0x93,
0x44,0x6a,0x00,0x93,0x3a,0x5f,0x00,0x93,0x3c,0x56,0x04,0x93,0x3f,0x6a,0x00,0x93,
0x35,0x54,0x20,0x83,0x35,0x40,0x0c,0x83,0x3f,0x40,0x00,0x83,0x3c,0x40,0x00,0x83,
0x44,0x40,0x04,0x83,0x3a,0x40,0x4c,0x93,0x3a,0x5f,0x00,0x93,0x44,0x64,0x00,0x93,
0x3c,0x56,0x04,0x93,0x3f,0x64,0x00,0x93,0x35,0x54,0x24,0x83,0x35,0x40,0x00,0x83,
0x3c,0x40,0x04,0x83,0x3f,0x40,0x04,0x83,0x3a,0x40,0x08,0x83,0x44,0x40,0x48,0x93,
0x4b,0x5f,0x00,0x93,0x44,0x76,0x00,0x93,0x3a,0x6a,0x04,0x93,0x3f,0x70,0x00,0x93,
0x3c,0x5f,0x00,0x93,0x35,0x5c,0x28,0x83,0x35,0x40,0x04,0x83,0x3c,0x40,0x00,0x83,
0x3a,0x40,0x04,0x83,0x44,0x40,0x04,0x83,0x3f,0x40,0x08,0x83,0x4b,0x40,0x40,0x93,
0x4b,0x50,0x00,0x93,0x44,0x70,0x04,0x93,0x3a,0x6a,0x00,0x93,0x3f,0x70,0x00,0x93,
0x3c,0x5c,0x00,0x93,0x35,0x5c,0x24,0x83,0x35,0x40,0x00,0x83,0x3c,0x40,0x04,0x83,
0x3f,0x40,0x00,0x83,0x3a,0x40,0x04,0x83,0x44,0x40,0x08,0x83,0x4b,0x40,0x48,0x93,
0x4b,0x5a,0x00,0x93,0x44,0x76,0x00,0x93,0x3f,0x76,0x04,0x93,0x3a,0x70,0x00,0x93,
0x3c,0x67,0x00,0x93,0x35,0x5f,0x38,0x83,0x35,0x40,0x00,0x83,0x3c,0x40,0x00,0x83,
0x3a,0x40,0x08,0x83,0x3f,0x40,0x08,0x83,0x44,0x40,0x0c,0x83,0x4b,0x40,0x2c,0x93,
0x3a,0x49,0x04,0x93,0x41,0x61,0x00,0x93,0x3f,0x50,0x00,0x93,0x35,0x44,0x82,0x18,
0x83,0x35,0x40,0x0c,0x83,0x3f,0x40,0x08,0x83,0x3a,0x40,0x0c,0x83,0x41,0x40,0x40,
0x93,0x46,0x4b,0x00,0x93,0x3a,0x47,0x04,0x93,0x41,0x4f,0x00,0x93,0x3f,0x53,0x00,
0x93,0x35,0x46,0x28,0x83,0x3f,0x40,0x04,0x83,0x35,0x40,0x00,0x83,0x46,0x40,0x08,
0x83,0x3a,0x40,0x0c,0x83,0x41,0x40,0x3c,0x93,0x46,0x50,0x00,0x93,0x41,0x4a,0x00,
0x93,0x3a,0x4b,0x04,0x93,0x3f,0x50,0x00,0x93,0x35,0x3d,0x1c,0x83,0x35,0x40,0x0c,
0x83,0x3f,0x40,0x08,0x83,0x41,0x40,0x00,0x83,0x46,0x40,0x04,0x83,0x3a,0x40,0x48,
0x93,0x46,0x56,0x00,0x93,0x41,0x4d,0x04,0x93,0x3a,0x53,0x00,0x93,0x3f,0x50,0x00,
0x93,0x35,0x49,0x24,0x83,0x35,0x40,0x08,0x83,0x3a,0x40,0x04,0x83,0x3f,0x40,0x00,
0x83,0x41,0x40,0x0c,0x83,0x46,0x40,0x40,0x93,0x46,0x5f,0x00,0x93,0x3a,0x5f,0x00,
0x93,0x3f,0x56,0x04,0x93,0x41,0x4f,0x00,0x93,0x48,0x5a,0x00,0x93,0x35,0x54,0x82,
0x34,0x83,0x35,0x40,0x04,0x83,0x3f,0x40,0x08,0x83,0x41,0x40,0x00,0x83,0x3a,0x40,
0x08,0x83,0x46,0x40,0x08,0x83,0x48,0x40,0x30,0x93,0x4b,0x4d,0x00,0x93,0x46,0x50,
0x04,0x93,0x48,0x52,0x00,0x93,0x41,0x50,0x00,0x93,0x3a,0x47,0x00,0x93,0x35,0x46,
0x00,0x93,0x3f,0x50,0x04,0x93,0x38,0x33,0x14,0x83,0x38,0x40,0x08,0x83,0x3f,0x40,
0x00,0x83,0x35,0x40,0x08,0x83,0x3a,0x40,0x00,0x83,0x41,0x40,0x00,0x83,0x46,0x40,
0x04,0x83,0x4b,0x40,0x04,0x83,0x48,0x40,0x48,0x93,0x3a,0x50,0x00,0x93,0x3f,0x56,
0x04,0x93,0x48,0x5c,0x00,0x93,0x35,0x58,0x00,0x93,0x46,0x5f,0x00,0x93,0x4b,0x56,
0x00,0x93,0x41,0x4f,0x28,0x83,0x41,0x40,0x00,0x83,0x35,0x40,0x00,0x83,0x3f,0x40,
0x00,0x83,0x3a,0x40,0x04,0x83,0x4b,0x40,0x00,0x83,0x46,0x40,0x08,0x83,0x48,0x40,
0x48,0x93,0x3a,0x4d,0x00,0x93,0x35,0x4d,0x00,0x93,0x3f,0x53,0x04,0x93,0x4b,0x50,
0x00,0x93,0x41,0x56,0x00,0x93,0x48,0x50,0x00,0x93,0x46,0x5a,0x2c,0x83,0x35,0x40,
0x04,0x83,0x3f,0x40,0x08,0x83,0x46,0x40,0x04,0x83,0x41,0x40,0x00,0x83,0x3a,0x40,
0x04,0x83,0x48,0x40,0x04,0x83,0x4b,0x40,0x3c,0x93,0x3a,0x64,0x04,0x93,0x4d,0x5f,
0x00,0x93,0x48,0x64,0x00,0x93,0x41,0x5f,0x00,0x93,0x3f,0x6a,0x04,0x93,0x35,0x5c,
0x00,0x93,0x46,0x64,0x00,0x93,0x4b,0x37,0x04,0x83,0x4b,0x40,0x70,0x83,0x46,0x40,
0x14,0x83,0x41,0x40,0x04,0x83,0x3f,0x40,0x00,0x83,0x4d,0x40,0x04,0x83,0x35,0x40,
0x00,0x83,0x48,0x40,0x04,0x83,0x3a,0x40,0x97,0x10,0xff,0x2f,0x00,0x4d,0x54,0x72,
0x6b,0x00,0x00,0x00,0xee,0x00,0xff,0x03,0x07,0x53,0x54,0x52,0x49,0x4e,0x47,0x53,
0x83,0x64,0xb4,0x79,0x00,0x00,0xb4,0x00,0x00,0x00,0xb4,0x20,0x00,0x00,0xc4,0x30,
0x00,0xb4,0x07,0x64,0x00,0xb4,0x0a,0x40,0x00,0xb4,0x5b,0x7f,0x00,0xb4,0x5d,0x00,
0x85,0x20,0x94,0x24,0x71,0x00,0x94,0x18,0x6a,0x97,0x04,0x84,0x18,0x40,0x0c,0x84,
0x24,0x40,0x3c,0x94,0x18,0x6d,0x00,0x94,0x24,0x67,0x8b,0x34,0x84,0x24,0x40,0x18,
0x84,0x18,0x40,0x34,0x94,0x1f,0x6a,0x00,0x94,0x2b,0x6d,0x82,0x28,0x84,0x2b,0x40,
0x0c,0x84,0x1f,0x40,0x4c,0x94,0x1f,0x61,0x00,0x94,0x2b,0x64,0x44,0x84,0x2b,0x40,
0x00,0x84,0x1f,0x40,0x3c,0x94,0x1f,0x5f,0x00,0x94,0x2b,0x5c,0x34,0x84,0x1f,0x40,
0x04,0x84,0x2b,0x40,0x48,0x94,0x1f,0x64,0x00,0x94,0x2b,0x67,0x3c,0x84,0x2b,0x40,
0x00,0x84,0x1f,0x40,0x48,0x94,0x1f,0x6a,0x00,0x94,0x2b,0x71,0x82,0x18,0x84,0x2b,
0x40,0x14,0x84,0x1f,0x40,0x50,0x94,0x2b,0x5c,0x00,0x94,0x1f,0x64,0x40,0x84,0x1f,
0x40,0x00,0x84,0x2b,0x40,0x40,0x94,0x2b,0x4d,0x00,0x94,0x1f,0x5c,0x30,0x84,0x2b,
0x40,0x04,0x84,0x1f,0x40,0x4c,0x94,0x2b,0x56,0x00,0x94,0x1f,0x5a,0x4c,0x84,0x2b,
0x40,0x18,0x84,0x1f,0x40,0x20,0x94,0x30,0x75,0x04,0x94,0x24,0x64,0x00,0x94,0x18,
0x67,0x82,0x0c,0x84,0x18,0x40,0x00,0x84,0x24,0x40,0x0c,0x84,0x30,0x40,0xea,0x10,
0xff,0x2f,0x00,0x4d,0x54,0x72,0x6b,0x00,0x00,0x34,0xd9,0x00,0xff,0x03,0x05,0x46,
0x4c,0x55,0x54,0x45,0x00,0xf0,0x0a,0x41,0x10,0x42,0x12,0x40,0x00,0x7f,0x00,0x41,
0xf7,0x83,0x78,0xb5,0x79,0x00,0x00,0xb5,0x00,0x00,0x00,0xb5,0x20,0x00,0x00,0xc5,
0x49,0x00,0xb5,0x07,0x64,0x00,0xb5,0x0a,0x40,0x00,0xb5,0x5b,0x7f,0x00,0xb5,0x5d,
0x00,0x84,0x50,0xf0,0x49,0x41,0x10,0x45,0x12,0x10,0x01,0x00,0x10,0x10,0x10,0x10,
0x10,0x10,0x10,0x10,0x00,0x00,0x10,0x18,0x10,0x00,0x00,0x1f,0x03,0x03,0x03,0x02,
0x03,0x02,0x02,0x02,0x03,0x03,0x02,0x03,0x02,0x03,0x02,0x1f,0x0f,0x1f,0x1f,0x07,
0x17,0x07,0x1f,0x07,0x1f,0x1f,0x07,0x17,0x07,0x17,0x07,0x1f,0x10,0x10,0x10,0x10,
0x10,0x10,0x10,0x10,0x10,0x10,0x10,0x10,0x10,0x10,0x10,0x10,0x1b,0xf7,0x68,0xf0,
0x49,0x41,0x10,0x45,0x12,0x10,0x01,0x00,0x10,0x10,0x10,0x10,0x10,0x10,0x10,0x10,
0x00,0x00,0x08,0x1c,0x08,0x00,0x00,0x1f,0x03,0x03,0x03,0x02,0x03,0x02,0x02,0x02,
0x03,0x03,0x02,0x03,0x02,0x03,0x02,0x1f,0x0f,0x1f,0x1f,0x07,0x17,0x07,0x1f,0x07,
0x1f,0x1f,0x07,0x17,0x07,0x17,0x07,0x1f,0x10,0x10,0x10,0x10,0x10,0x10,0x10,0x10,
0x10,0x10,0x10,0x10,0x10,0x10,0x10,0x10,0x27,0xf7,0x68,0xf0,0x49,0x41,0x10,0x45,
0x12,0x10,0x01,0x00,0x10,0x10,0x10,0x10,0x10,0x10,0x10,0x10,0x00,0x00,0x08,0x1c,
0x08,0x00,0x00,0x1f,0x03,0x03,0x03,0x02,0x03,0x02,0x02,0x02,0x03,0x03,0x02,0x03,
0x02,0x03,0x02,0x1f,0x0f,0x1f,0x1f,0x07,0x17,0x07,0x1f,0x07,0x1f,0x1f,0x07,0x17,
0x07,0x17,0x07,0x1f,0x10,0x10,0x10,0x10,0x10,0x10,0x10,0x10,0x10,0x10,0x10,0x10,
0x10,0x10,0x10,0x10,0x27,0xf7,0x6c,0xf0,0x49,0x41,0x10,0x45,0x12,0x10,0x01,0x00,
0x10,0x10,0x10,0x10,0x10,0x10,0x10,0x10,0x00,0x00,0x14,0x1e,0x14,0x00,0x00,0x1f,
0x03,0x03,0x03,0x02,0x03,0x02,0x02,0x02,0x03,0x03,0x02,0x03,0x02,0x03,0x02,0x1f,
0x0f,0x1f,0x1f,0x07,0x17,0x07,0x1f,0x07,0x1f,0x1f,0x07,0x17,0x07,0x17,0x07,0x1f,
0x10,0x10,0x10,0x10,0x10,0x10,0x10,0x10,0x10,0x10,0x10,0x10,0x10,0x10,0x10,0x10,
0x0d,0xf7,0x68,0xf0,0x49,0x41,0x10,0x45,0x12,0x10,0x01,0x00,0x10,0x10,0x10,0x10,
0x10,0x10,0x10,0x10,0x00,0x00,0x14,0x1e,0x14,0x00,0x00,0x1f,0x03,0x03,0x03,0x02,
0x03,0x02,0x02,0x02,0x03,0x03,0x02,0x03,0x02,0x03,0x02,0x1f,0x0f,0x1f,0x1f,0x07,
0x17,0x07,0x1f,0x07,0x1f,0x1f,0x07,0x17,0x07,0x17,0x07,0x1f,0x10,0x10,0x10,0x10,
0x10,0x10,0x10,0x10,0x10,0x10,0x10,0x10,0x10,0x10,0x10,0x10,0x0d,0xf7,0x6c,0xf0,
0x49,0x41,0x10,0x45,0x12,0x10,0x01,0x00,0x10,0x10,0x10,0x10,0x10,0x10,0x10,0x10,
0x00,0x10,0x0a,0x0f,0x0a,0x10,0x00,0x1f,0x03,0x03,0x03,0x02,0x03,0x02,0x02,0x02,
0x03,0x03,0x02,0x03,0x02,0x03,0x02,0x1f,0x0f,0x1f,0x1f,0x07,0x17,0x07,0x1f,0x07,
0x1f,0x1f,0x07,0x17,0x07,0x17,0x07,0x1f,0x10,0x10,0x10,0x10,0x10,0x10,0x10,0x10,
0x10,0x10,0x10,0x10,0x10,0x10,0x10,0x10,0x10,0xf7,0x6c,0xf0,0x49,0x41,0x10,0x45,
0x12,0x10,0x01,0x00,0x10,0x10,0x10,0x10,0x10,0x10,0x10,0x10,0x00,0x10,0x0a,0x0f,
0x0a,0x10,0x00,0x1f,0x03,0x03,0x03,0x02,0x03,0x02,0x02,0x02,0x03,0x03,0x02,0x03,
0x02,0x03,0x02,0x1f,0x0f,0x1f,0x1f,0x07,0x17,0x07,0x1f,0x07,0x1f,0x1f,0x07,0x17,
0x07,0x17,0x07,0x1f,0x10,0x10,0x10,0x10,0x10,0x10,0x10,0x10,0x10,0x10,0x10,0x10,
0x10,0x10,0x10,0x10,0x10,0xf7,0x6c,0xf0,0x49,0x41,0x10,0x45,0x12,0x10,0x01,0x00,
0x10,0x10,0x10,0x10,0x10,0x10,0x10,0x10,0x00,0x08,0x05,0x07,0x05,0x08,0x00,0x1f,
0x03,0x03,0x03,0x02,0x03,0x02,0x02,0x02,0x03,0x03,0x02,0x13,0x02,0x03,0x02,0x1f,
0x0f,0x1f,0x1f,0x07,0x17,0x07,0x1f,0x07,0x1f,0x1f,0x07,0x17,0x07,0x17,0x07,0x1f,
0x10,0x10,0x10,0x10,0x10,0x10,0x10,0x10,0x10,0x10,0x10,0x10,0x10,0x10,0x10,0x10,
0x22,0xf7,0x81,0x68,0xf0,0x49,0x41,0x10,0x45,0x12,0x10,0x01,0x00,0x10,0x10,0x10,
0x10,0x10,0x10,0x10,0x10,0x00,0x08,0x05,0x07,0x05,0x08,0x00,0x1f,0x03,0x03,0x03,
0x02,0x03,0x02,0x02,0x02,0x03,0x03,0x02,0x13,0x02,0x03,0x02,0x1f,0x0f,0x1f,0x1f,
0x07,0x17,0x07,0x1f,0x07,0x1f,0x1f,0x07,0x17,0x07,0x17,0x07,0x1f,0x10,0x10,0x10,
0x10,0x10,0x10,0x10,0x10,0x10,0x10,0x10,0x10,0x10,0x10,0x10,0x10,0x22,0xf7,0x68,
0xf0,0x49,0x41,0x10,0x45,0x12,0x10,0x01,0x00,0x10,0x10,0x10,0x10,0x10,0x10,0x10,
0x10,0x00,0x04,0x02,0x03,0x02,0x04,0x00,0x1f,0x03,0x03,0x03,0x02,0x03,0x02,0x02,
0x02,0x03,0x03,0x12,0x1b,0x12,0x03,0x02,0x1f,0x0f,0x1f,0x1f,0x07,0x17,0x07,0x1f,
0x07,0x1f,0x1f,0x07,0x17,0x07,0x17,0x07,0x1f,0x10,0x10,0x10,0x10,0x10,0x10,0x10,
0x10,0x10,0x10,0x10,0x10,0x10,0x10,0x10,0x10,0x0c,0xf7,0x6c,0xf0,0x49,0x41,0x10,
0x45,0x12,0x10,0x01,0x00,0x10,0x10,0x10,0x10,0x10,0x10,0x10,0x10,0x00,0x04,0x02,
0x03,0x02,0x04,0x00,0x1f,0x03,0x03,0x03,0x02,0x03,0x02,0x02,0x02,0x03,0x03,0x12,
0x1b,0x12,0x03,0x02,0x1f,0x0f,0x1f,0x1f,0x07,0x17,0x07,0x1f,0x07,0x1f,0x1f,0x07,
0x17,0x07,0x17,0x07,0x1f,0x10,0x10,0x10,0x10,0x10,0x10,0x10,0x10,0x10,0x10,0x10,
0x10,0x10,0x10,0x10,0x10,0x0c,0xf7,0x6c,0xf0,0x49,0x41,0x10,0x45,0x12,0x10,0x01,
0x00,0x10,0x10,0x10,0x10,0x10,0x10,0x10,0x10,0x04,0x02,0x03,0x02,0x04,0x00,0x00,
0x1f,0x03,0x03,0x03,0x02,0x03,0x02,0x02,0x02,0x03,0x13,0x1a,0x13,0x02,0x03,0x02,
0x1f,0x0f,0x1f,0x1f,0x07,0x17,0x07,0x1f,0x07,0x1f,0x1f,0x07,0x17,0x07,0x17,0x07,
0x1f,0x10,0x10,0x10,0x10,0x10,0x10,0x10,0x10,0x10,0x10,0x10,0x10,0x10,0x10,0x10,
0x10,0x0c,0xf7,0x6c,0xf0,0x49,0x41,0x10,0x45,0x12,0x10,0x01,0x00,0x10,0x10,0x10,
0x10,0x10,0x10,0x10,0x10,0x14,0x02,0x03,0x02,0x04,0x00,0x00,0x00,0x03,0x03,0x03,
0x03,0x02,0x03,0x02,0x02,0x02,0x13,0x1b,0x12,0x03,0x02,0x03,0x02,0x0f,0x0f,0x1f,
0x1f,0x07,0x17,0x07,0x1f,0x07,0x1f,0x1f,0x07,0x17,0x07,0x17,0x07,0x10,0x10,0x10,
0x10,0x10,0x10,0x10,0x10,0x10,0x10,0x10,0x10,0x10,0x10,0x10,0x10,0x47,0xf7,0x64,
0xf0,0x49,0x41,0x10,0x45,0x12,0x10,0x01,0x00,0x10,0x10,0x10,0x10,0x10,0x10,0x10,
0x10,0x14,0x12,0x03,0x02,0x04,0x00,0x00,0x00,0x03,0x03,0x03,0x03,0x03,0x02,0x03,
0x02,0x02,0x12,0x1b,0x13,0x02,0x03,0x02,0x03,0x0f,0x0f,0x0f,0x1f,0x1f,0x07,0x17,
0x07,0x1f,0x07,0x1f,0x1f,0x07,0x17,0x07,0x17,0x10,0x10,0x10,0x10,0x10,0x10,0x10,
0x10,0x10,0x10,0x10,0x10,0x10,0x10,0x10,0x10,0x2e,0xf7,0x6c,0xf0,0x49,0x41,0x10,
0x45,0x12,0x10,0x01,0x00,0x10,0x10,0x10,0x10,0x10,0x10,0x10,0x10,0x14,0x12,0x13,
0x02,0x04,0x00,0x00,0x00,0x03,0x03,0x03,0x03,0x03,0x03,0x02,0x03,0x02,0x12,0x1a,
0x13,0x03,0x02,0x03,0x02,0x0f,0x0f,0x0f,0x0f,0x1f,0x1f,0x07,0x17,0x07,0x1f,0x07,
0x1f,0x1f,0x07,0x17,0x07,0x10,0x10,0x10,0x10,0x10,0x10,0x10,0x10,0x10,0x10,0x10,
0x10,0x10,0x10,0x10,0x10,0x26,0xf7,0x6c,0xf0,0x49,0x41,0x10,0x45,0x12,0x10,0x01,
0x00,0x10,0x10,0x10,0x10,0x10,0x10,0x10,0x10,0x14,0x12,0x13,0x12,0x04,0x00,0x00,
0x00,0x03,0x03,0x03,0x03,0x03,0x03,0x03,0x02,0x03,0x12,0x1a,0x12,0x03,0x03,0x02,
0x03,0x0f,0x0f,0x0f,0x0f,0x0f,0x1f,0x1f,0x07,0x17,0x07,0x1f,0x07,0x1f,0x1f,0x07,
0x17,0x10,0x10,0x10,0x10,0x10,0x10,0x10,0x10,0x10,0x10,0x10,0x10,0x10,0x10,0x10,
0x10,0x0d,0xf7,0x68,0xf0,0x49,0x41,0x10,0x45,0x12,0x10,0x01,0x00,0x1f,0x10,0x10,
0x10,0x10,0x10,0x10,0x10,0x14,0x12,0x13,0x12,0x14,0x00,0x00,0x00,0x1f,0x03,0x03,
0x03,0x03,0x03,0x03,0x03,0x02,0x13,0x1a,0x12,0x02,0x03,0x03,0x02,0x1f,0x0f,0x0f,
0x0f,0x0f,0x0f,0x1f,0x1f,0x07,0x17,0x07,0x1f,0x07,0x1f,0x1f,0x07,0x10,0x10,0x10,
0x10,0x10,0x10,0x10,0x10,0x10,0x10,0x10,0x10,0x10,0x10,0x10,0x10,0x4a,0xf7,0x68,
0xf0,0x49,0x41,0x10,0x45,0x12,0x10,0x01,0x00,0x00,0x1f,0x10,0x10,0x10,0x10,0x10,
0x10,0x14,0x12,0x13,0x12,0x14,0x10,0x00,0x00,0x00,0x1f,0x03,0x03,0x03,0x03,0x03,
0x03,0x03,0x12,0x1b,0x12,0x02,0x02,0x03,0x03,0x1e,0x1f,0x0f,0x0f,0x0f,0x0f,0x0f,
0x1f,0x1f,0x07,0x17,0x07,0x1f,0x07,0x1f,0x1f,0x00,0x10,0x10,0x10,0x10,0x10,0x10,
0x10,0x10,0x10,0x10,0x10,0x10,0x10,0x10,0x10,0x45,0xf7,0x68,0xf0,0x49,0x41,0x10,
0x45,0x12,0x10,0x01,0x00,0x00,0x00,0x1f,0x10,0x10,0x10,0x10,0x10,0x14,0x12,0x13,
0x12,0x14,0x10,0x10,0x00,0x00,0x00,0x1f,0x03,0x03,0x03,0x03,0x03,0x03,0x13,0x1a,
0x13,0x02,0x02,0x02,0x03,0x1e,0x1e,0x1f,0x0f,0x0f,0x0f,0x0f,0x0f,0x1f,0x1f,0x07,
0x17,0x07,0x1f,0x07,0x1f,0x00,0x00,0x10,0x10,0x10,0x10,0x10,0x10,0x10,0x10,0x10,
0x10,0x10,0x10,0x10,0x10,0x59,0xf7,0x6c,0xf0,0x49,0x41,0x10,0x45,0x12,0x10,0x01,
0x00,0x00,0x00,0x00,0x1e,0x10,0x10,0x10,0x10,0x14,0x12,0x13,0x12,0x14,0x10,0x10,
0x10,0x00,0x00,0x00,0x1f,0x03,0x03,0x03,0x03,0x03,0x13,0x1b,0x12,0x03,0x02,0x02,
0x02,0x1e,0x1e,0x1e,0x1f,0x0f,0x0f,0x0f,0x0f,0x0f,0x1f,0x1f,0x07,0x17,0x07,0x1f,
0x07,0x00,0x00,0x00,0x10,0x10,0x10,0x10,0x10,0x10,0x10,0x10,0x10,0x10,0x10,0x10,
0x10,0x6e,0xf7,0x68,0xf0,0x49,0x41,0x10,0x45,0x12,0x10,0x01,0x00,0x00,0x00,0x00,
0x00,0x1c,0x10,0x10,0x10,0x14,0x12,0x13,0x12,0x14,0x10,0x10,0x10,0x01,0x00,0x00,
0x00,0x0f,0x03,0x03,0x03,0x03,0x13,0x1b,0x13,0x02,0x03,0x02,0x02,0x09,0x1e,0x1e,
0x1e,0x1f,0x0f,0x0f,0x0f,0x0f,0x0f,0x1f,0x1f,0x07,0x17,0x07,0x1f,0x00,0x00,0x00,
0x00,0x10,0x10,0x10,0x10,0x10,0x10,0x10,0x10,0x10,0x10,0x10,0x10,0x1f,0xf7,0x6c,
0xf0,0x49,0x41,0x10,0x45,0x12,0x10,0x01,0x00,0x00,0x00,0x00,0x00,0x00,0x18,0x10,
0x10,0x14,0x12,0x13,0x12,0x14,0x10,0x10,0x10,0x01,0x01,0x00,0x00,0x00,0x07,0x03,
0x03,0x03,0x13,0x1b,0x13,0x03,0x02,0x03,0x02,0x05,0x05,0x1e,0x1e,0x1e,0x1f,0x0f,
0x0f,0x0f,0x0f,0x0f,0x1f,0x1f,0x07,0x17,0x07,0x00,0x00,0x00,0x00,0x00,0x10,0x10,
0x10,0x10,0x10,0x10,0x10,0x10,0x10,0x10,0x10,0x6a,0xf7,0x6c,0xf0,0x49,0x41,0x10,
0x45,0x12,0x10,0x01,0x00,0x00,0x00,0x00,0x00,0x00,0x00,0x10,0x10,0x14,0x12,0x13,
0x12,0x14,0x10,0x10,0x10,0x00,0x01,0x01,0x00,0x00,0x00,0x03,0x03,0x03,0x13,0x1b,
0x13,0x03,0x03,0x02,0x03,0x1e,0x13,0x13,0x1e,0x1e,0x1e,0x1f,0x0f,0x0f,0x0f,0x0f,
0x0f,0x1f,0x1f,0x07,0x17,0x00,0x00,0x00,0x00,0x00,0x00,0x10,0x10,0x10,0x10,0x10,
0x10,0x10,0x10,0x10,0x10,0x65,0xf7,0x68,0xf0,0x49,0x41,0x10,0x45,0x12,0x10,0x01,
0x00,0x00,0x00,0x00,0x00,0x00,0x00,0x00,0x10,0x14,0x12,0x13,0x12,0x14,0x10,0x10,
0x10,0x00,0x00,0x01,0x01,0x00,0x00,0x00,0x03,0x03,0x13,0x1b,0x13,0x03,0x03,0x03,
0x02,0x00,0x1e,0x09,0x09,0x1e,0x1e,0x1e,0x1f,0x0f,0x0f,0x0f,0x0f,0x0f,0x1f,0x1f,
0x07,0x00,0x00,0x00,0x00,0x00,0x00,0x00,0x10,0x10,0x10,0x10,0x10,0x10,0x10,0x10,
0x10,0x33,0xf7,0x6c,0xf0,0x49,0x41,0x10,0x45,0x12,0x10,0x01,0x00,0x00,0x00,0x00,
0x00,0x00,0x00,0x00,0x00,0x14,0x12,0x13,0x12,0x14,0x10,0x10,0x10,0x00,0x00,0x00,
0x01,0x01,0x00,0x00,0x00,0x03,0x13,0x1b,0x13,0x03,0x03,0x03,0x03,0x00,0x00,0x1e,
0x05,0x05,0x1e,0x1e,0x1e,0x1f,0x0f,0x0f,0x0f,0x0f,0x0f,0x1f,0x1f,0x00,0x00,0x00,
0x00,0x00,0x00,0x00,0x00,0x10,0x10,0x10,0x10,0x10,0x10,0x10,0x10,0x64,0xf7,0x6c,
0xf0,0x49,0x41,0x10,0x45,0x12,0x10,0x01,0x00,0x02,0x00,0x00,0x00,0x00,0x00,0x00,
0x00,0x04,0x12,0x13,0x12,0x14,0x10,0x10,0x10,0x00,0x00,0x00,0x00,0x01,0x01,0x00,
0x00,0x00,0x13,0x1b,0x13,0x03,0x03,0x03,0x03,0x00,0x00,0x12,0x1e,0x13,0x13,0x1e,
0x1e,0x1e,0x1f,0x0f,0x0f,0x0f,0x0f,0x0f,0x1f,0x00,0x00,0x00,0x00,0x00,0x00,0x00,
0x00,0x00,0x10,0x10,0x10,0x10,0x10,0x10,0x10,0x76,0xf7,0x68,0xf0,0x49,0x41,0x10,
0x45,0x12,0x10,0x01,0x00,0x00,0x04,0x00,0x00,0x00,0x00,0x00,0x00,0x04,0x02,0x13,
0x12,0x14,0x10,0x10,0x10,0x00,0x00,0x00,0x00,0x00,0x01,0x01,0x00,0x00,0x10,0x1b,
0x13,0x03,0x03,0x03,0x03,0x00,0x00,0x00,0x00,0x1e,0x09,0x09,0x1e,0x1e,0x1e,0x1f,
0x0f,0x0f,0x0f,0x0f,0x0f,0x00,0x00,0x00,0x00,0x00,0x00,0x00,0x00,0x00,0x00,0x10,
0x10,0x10,0x10,0x10,0x10,0x5c,0xf7,0x6c,0xf0,0x49,0x41,0x10,0x45,0x12,0x10,0x01,
0x00,0x00,0x00,0x08,0x00,0x00,0x00,0x00,0x00,0x04,0x02,0x03,0x12,0x14,0x10,0x10,
0x10,0x00,0x00,0x00,0x00,0x00,0x00,0x01,0x01,0x00,0x10,0x18,0x13,0x03,0x03,0x03,
0x03,0x00,0x00,0x00,0x00,0x12,0x1e,0x05,0x05,0x1f,0x1e,0x1e,0x1f,0x0f,0x0f,0x0f,
0x0f,0x00,0x00,0x00,0x00,0x00,0x00,0x00,0x00,0x00,0x00,0x00,0x10,0x10,0x10,0x10,
0x10,0x7f,0xf7,0x60,0xf0,0x49,0x41,0x10,0x45,0x12,0x10,0x01,0x00,0x00,0x00,0x00,
0x10,0x00,0x00,0x00,0x00,0x04,0x02,0x03,0x02,0x14,0x10,0x10,0x10,0x02,0x00,0x00,
0x00,0x00,0x00,0x00,0x01,0x01,0x10,0x18,0x10,0x03,0x03,0x03,0x03,0x00,0x00,0x00,
0x00,0x00,0x00,0x1e,0x13,0x13,0x1f,0x1e,0x1e,0x1f,0x0f,0x0f,0x0f,0x00,0x00,0x00,
0x00,0x00,0x00,0x00,0x00,0x00,0x00,0x00,0x00,0x10,0x10,0x10,0x10,0x1d,0xf7,0x70,
0xf0,0x49,0x41,0x10,0x45,0x12,0x10,0x01,0x00,0x00,0x00,0x00,0x00,0x00,0x00,0x00,
0x00,0x04,0x02,0x03,0x02,0x04,0x10,0x10,0x10,0x00,0x04,0x00,0x00,0x00,0x00,0x00,
0x00,0x01,0x11,0x18,0x10,0x00,0x03,0x03,0x03,0x00,0x00,0x00,0x00,0x00,0x00,0x00,
0x1e,0x09,0x09,0x1f,0x1e,0x1e,0x1f,0x0f,0x0f,0x00,0x00,0x00,0x00,0x00,0x00,0x00,
0x00,0x00,0x00,0x00,0x00,0x00,0x10,0x10,0x10,0x71,0xf7,0x70,0xf0,0x49,0x41,0x10,
0x45,0x12,0x10,0x01,0x00,0x00,0x00,0x00,0x00,0x00,0x00,0x00,0x00,0x04,0x02,0x03,
0x02,0x04,0x00,0x10,0x10,0x00,0x00,0x08,0x00,0x00,0x00,0x00,0x00,0x00,0x11,0x19,
0x10,0x00,0x00,0x03,0x03,0x00,0x00,0x00,0x00,0x00,0x00,0x00,0x00,0x1e,0x05,0x05,
0x1f,0x1e,0x1e,0x1f,0x0f,0x10,0x00,0x00,0x00,0x00,0x00,0x00,0x00,0x00,0x00,0x00,
0x00,0x00,0x00,0x10,0x10,0x17,0xf7,0x6c,0xf0,0x49,0x41,0x10,0x45,0x12,0x10,0x01,
0x00,0x00,0x00,0x00,0x00,0x00,0x00,0x00,0x00,0x04,0x02,0x03,0x02,0x04,0x00,0x00,
0x10,0x00,0x00,0x00,0x10,0x00,0x00,0x00,0x00,0x00,0x10,0x19,0x11,0x00,0x00,0x00,
0x03,0x00,0x01,0x00,0x00,0x00,0x00,0x00,0x00,0x00,0x1e,0x13,0x13,0x1e,0x1e,0x1e,
0x1f,0x00,0x00,0x00,0x00,0x00,0x00,0x00,0x00,0x00,0x00,0x00,0x00,0x00,0x00,0x00,
0x10,0x35,0xf7,0x6c,0xf0,0x49,0x41,0x10,0x45,0x12,0x10,0x01,0x00,0x00,0x00,0x00,
0x01,0x00,0x00,0x00,0x00,0x04,0x02,0x03,0x02,0x04,0x00,0x00,0x18,0x00,0x00,0x00,
0x00,0x00,0x00,0x00,0x00,0x00,0x10,0x19,0x11,0x00,0x00,0x00,0x07,0x00,0x02,0x00,
0x00,0x00,0x00,0x00,0x00,0x00,0x1e,0x0b,0x0b,0x1e,0x1e,0x1e,0x1f,0x00,0x00,0x00,
0x00,0x00,0x00,0x00,0x00,0x00,0x00,0x00,0x00,0x00,0x00,0x00,0x10,0x47,0xf7,0x6c,
0xf0,0x49,0x41,0x10,0x45,0x12,0x10,0x01,0x00,0x00,0x00,0x00,0x02,0x00,0x00,0x00,
0x00,0x04,0x02,0x03,0x02,0x04,0x00,0x00,0x1c,0x00,0x00,0x00,0x00,0x00,0x00,0x00,
0x00,0x00,0x10,0x19,0x11,0x00,0x00,0x00,0x0f,0x00,0x04,0x00,0x00,0x00,0x00,0x00,
0x00,0x00,0x1e,0x05,0x05,0x1e,0x1e,0x1e,0x1f,0x00,0x00,0x00,0x00,0x00,0x00,0x00,
0x00,0x00,0x00,0x00,0x00,0x00,0x00,0x00,0x10,0x44,0xf7,0x6c,0xf0,0x49,0x41,0x10,
0x45,0x12,0x10,0x01,0x00,0x00,0x00,0x00,0x04,0x00,0x00,0x00,0x04,0x02,0x03,0x02,
0x04,0x00,0x00,0x00,0x1e,0x00,0x00,0x00,0x00,0x00,0x00,0x00,0x00,0x10,0x18,0x11,
0x01,0x00,0x00,0x00,0x1f,0x00,0x08,0x00,0x00,0x00,0x00,0x00,0x00,0x00,0x1e,0x13,
0x13,0x1e,0x1e,0x1e,0x1f,0x00,0x00,0x00,0x00,0x00,0x00,0x00,0x00,0x00,0x00,0x00,
0x00,0x00,0x00,0x00,0x10,0x10,0xf7,0x68,0xf0,0x49,0x41,0x10,0x45,0x12,0x10,0x01,
0x00,0x00,0x00,0x00,0x08,0x00,0x00,0x00,0x04,0x02,0x03,0x02,0x04,0x00,0x00,0x00,
0x1f,0x00,0x00,0x00,0x00,0x00,0x00,0x00,0x00,0x10,0x18,0x11,0x01,0x00,0x00,0x00,
0x1f,0x00,0x10,0x00,0x00,0x00,0x00,0x00,0x00,0x12,0x1e,0x09,0x09,0x1e,0x1e,0x1e,
0x1f,0x00,0x00,0x00,0x00,0x00,0x00,0x00,0x00,0x00,0x00,0x00,0x00,0x00,0x00,0x00,
0x10,0x05,0xf7,0x6c,0xf0,0x49,0x41,0x10,0x45,0x12,0x10,0x01,0x00,0x00,0x00,0x00,
0x10,0x00,0x00,0x00,0x04,0x02,0x03,0x02,0x04,0x00,0x00,0x00,0x1f,0x00,0x01,0x00,
0x00,0x00,0x00,0x00,0x00,0x10,0x18,0x11,0x01,0x00,0x00,0x00,0x1f,0x00,0x00,0x00,
0x00,0x00,0x00,0x00,0x00,0x00,0x1e,0x05,0x05,0x1e,0x1e,0x1e,0x1f,0x00,0x00,0x00,
0x10,0x00,0x00,0x00,0x00,0x00,0x00,0x00,0x00,0x00,0x00,0x00,0x10,0x16,0xf7,0x68,
0xf0,0x49,0x41,0x10,0x45,0x12,0x10,0x01,0x00,0x00,0x00,0x00,0x00,0x00,0x00,0x04,
0x02,0x03,0x02,0x04,0x00,0x00,0x00,0x00,0x1f,0x00,0x02,0x00,0x00,0x00,0x00,0x00,
0x10,0x18,0x10,0x01,0x01,0x00,0x00,0x00,0x1f,0x00,0x00,0x00,0x01,0x00,0x00,0x00,
0x00,0x00,0x1e,0x13,0x13,0x1e,0x1e,0x1e,0x1f,0x00,0x00,0x00,0x00,0x00,0x00,0x00,
0x00,0x00,0x00,0x00,0x00,0x00,0x00,0x00,0x10,0x18,0xf7,0x68,0xf0,0x49,0x41,0x10,
0x45,0x12,0x10,0x01,0x00,0x00,0x00,0x00,0x00,0x00,0x00,0x08,0x05,0x07,0x05,0x08,
0x00,0x00,0x00,0x00,0x1f,0x00,0x04,0x00,0x00,0x00,0x00,0x00,0x00,0x10,0x00,0x00,
0x01,0x01,0x00,0x00,0x1f,0x00,0x00,0x00,0x02,0x00,0x00,0x00,0x00,0x00,0x00,0x1e,
0x0b,0x0b,0x1e,0x1e,0x1f,0x00,0x00,0x00,0x00,0x00,0x00,0x00,0x00,0x00,0x00,0x00,
0x00,0x00,0x00,0x00,0x10,0x59,0xf7,0x6c,0xf0,0x49,0x41,0x10,0x45,0x12,0x10,0x01,
0x00,0x00,0x00,0x00,0x00,0x00,0x00,0x08,0x05,0x07,0x05,0x08,0x00,0x00,0x00,0x00,
0x1f,0x00,0x08,0x00,0x00,0x00,0x00,0x00,0x00,0x10,0x00,0x00,0x01,0x01,0x00,0x00,
0x1f,0x00,0x00,0x00,0x04,0x00,0x00,0x00,0x00,0x00,0x00,0x1e,0x05,0x05,0x1e,0x1e,
0x1f,0x00,0x00,0x00,0x00,0x00,0x00,0x00,0x00,0x00,0x00,0x00,0x00,0x00,0x00,0x00,
0x10,0x5f,0xf7,0x68,0xf0,0x49,0x41,0x10,0x45,0x12,0x10,0x01,0x00,0x00,0x00,0x00,
0x00,0x00,0x00,0x08,0x05,0x07,0x05,0x08,0x00,0x00,0x00,0x00,0x1f,0x00,0x10,0x00,
0x00,0x00,0x00,0x00,0x00,0x10,0x00,0x00,0x01,0x01,0x00,0x00,0x1f,0x00,0x00,0x00,
0x08,0x00,0x00,0x00,0x00,0x00,0x00,0x1e,0x13,0x13,0x1e,0x1e,0x1f,0x00,0x00,0x00,
0x00,0x00,0x00,0x00,0x00,0x00,0x00,0x00,0x00,0x00,0x00,0x00,0x10,0x37,0xf7,0x68,
0xf0,0x49,0x41,0x10,0x45,0x12,0x10,0x01,0x00,0x00,0x01,0x00,0x00,0x00,0x00,0x08,
0x05,0x07,0x05,0x08,0x00,0x00,0x00,0x00,0x1f,0x00,0x00,0x00,0x00,0x00,0x00,0x00,
0x00,0x10,0x00,0x00,0x00,0x01,0x01,0x00,0x1f,0x00,0x00,0x00,0x10,0x00,0x00,0x00,
0x00,0x00,0x00,0x00,0x1e,0x09,0x09,0x1e,0x1f,0x00,0x00,0x00,0x00,0x00,0x00,0x00,
0x00,0x00,0x00,0x00,0x00,0x00,0x00,0x00,0x10,0x70,0xf7,0x60,0xf0,0x49,0x41,0x10,
0x45,0x12,0x10,0x01,0x00,0x00,0x04,0x00,0x00,0x00,0x00,0x04,0x0e,0x1f,0x0e,0x04,
0x00,0x00,0x00,0x00,0x1f,0x00,0x00,0x00,0x01,0x00,0x00,0x00,0x10,0x18,0x10,0x00,
0x00,0x01,0x02,0x02,0x1f,0x00,0x00,0x00,0x00,0x00,0x00,0x00,0x00,0x00,0x00,0x00,
0x00,0x1c,0x0a,0x0a,0x1f,0x00,0x00,0x00,0x00,0x00,0x00,0x00,0x00,0x00,0x00,0x00,
0x00,0x00,0x00,0x00,0x10,0x4d,0xf7,0x6c,0xf0,0x49,0x41,0x10,0x45,0x12,0x10,0x01,
0x00,0x00,0x10,0x00,0x00,0x00,0x00,0x02,0x01,0x01,0x01,0x02,0x00,0x00,0x00,0x00,
0x1f,0x00,0x00,0x00,0x04,0x00,0x00,0x00,0x08,0x1c,0x08,0x00,0x00,0x00,0x03,0x06,
0x1f,0x00,0x00,0x00,0x00,0x00,0x00,0x00,0x00,0x00,0x00,0x00,0x00,0x00,0x18,0x0c,
0x1f,0x00,0x10,0x00,0x00,0x00,0x00,0x00,0x00,0x00,0x00,0x00,0x00,0x00,0x00,0x00,
0x10,0x7e,0xf7,0x68,0xf0,0x49,0x41,0x10,0x45,0x12,0x10,0x01,0x00,0x00,0x00,0x00,
0x00,0x00,0x00,0x01,0x00,0x00,0x00,0x01,0x00,0x00,0x00,0x00,0x1f,0x00,0x00,0x00,
0x10,0x00,0x00,0x00,0x14,0x1e,0x14,0x00,0x00,0x00,0x00,0x07,0x1f,0x00,0x02,0x00,
0x00,0x00,0x00,0x00,0x00,0x00,0x00,0x00,0x00,0x00,0x00,0x10,0x1f,0x00,0x00,0x00,
0x00,0x00,0x00,0x00,0x00,0x00,0x00,0x00,0x00,0x00,0x10,0x00,0x10,0x01,0xf7,0x68,
0xf0,0x49,0x41,0x10,0x45,0x12,0x10,0x01,0x00,0x00,0x00,0x00,0x02,0x00,0x00,0x01,
0x00,0x00,0x00,0x01,0x00,0x00,0x00,0x00,0x1f,0x00,0x00,0x00,0x00,0x00,0x00,0x00,
0x14,0x1e,0x14,0x00,0x00,0x00,0x00,0x00,0x1f,0x00,0x08,0x00,0x00,0x00,0x00,0x00,
0x00,0x00,0x00,0x00,0x00,0x00,0x01,0x00,0x1f,0x00,0x00,0x00,0x00,0x00,0x00,0x00,
0x00,0x00,0x00,0x00,0x00,0x00,0x10,0x10,0x10,0x0f,0xf7,0x68,0xf0,0x49,0x41,0x10,
0x45,0x12,0x10,0x01,0x00,0x00,0x00,0x00,0x08,0x00,0x00,0x01,0x00,0x00,0x00,0x01,
0x00,0x00,0x00,0x00,0x1f,0x00,0x01,0x00,0x00,0x00,0x00,0x00,0x14,0x1e,0x14,0x00,
0x00,0x00,0x00,0x00,0x1f,0x00,0x00,0x00,0x00,0x00,0x00,0x00,0x00,0x00,0x00,0x00,
0x00,0x04,0x02,0x02,0x1f,0x00,0x00,0x00,0x10,0x00,0x00,0x00,0x00,0x00,0x00,0x00,
0x00,0x00,0x00,0x00,0x10,0x19,0xf7,0x6c,0xf0,0x49,0x41,0x10,0x45,0x12,0x10,0x01,
0x00,0x00,0x00,0x00,0x00,0x00,0x00,0x01,0x00,0x00,0x00,0x01,0x00,0x00,0x00,0x00,
0x1f,0x00,0x04,0x00,0x00,0x00,0x00,0x00,0x14,0x1e,0x14,0x00,0x00,0x00,0x00,0x00,
0x1f,0x00,0x00,0x01,0x00,0x00,0x00,0x00,0x00,0x00,0x00,0x00,0x00,0x04,0x04,0x05,
0x1f,0x00,0x00,0x00,0x00,0x00,0x00,0x00,0x00,0x00,0x00,0x00,0x00,0x10,0x10,0x10,
0x10,0x78,0xf7,0x68,0xf0,0x49,0x41,0x10,0x45,0x12,0x10,0x01,0x00,0x00,0x00,0x00,
0x00,0x00,0x00,0x01,0x03,0x07,0x03,0x01,0x00,0x00,0x00,0x00,0x1f,0x00,0x10,0x00,
0x00,0x00,0x00,0x00,0x14,0x1e,0x14,0x00,0x00,0x00,0x00,0x00,0x1f,0x00,0x00,0x02,
0x00,0x00,0x00,0x00,0x00,0x00,0x00,0x00,0x00,0x05,0x09,0x0b,0x1f,0x00,0x00,0x00,
0x00,0x00,0x00,0x00,0x00,0x00,0x00,0x00,0x00,0x00,0x10,0x10,0x10,0x62,0xf7,0x64,
0xf0,0x49,0x41,0x10,0x45,0x12,0x10,0x01,0x00,0x00,0x04,0x00,0x00,0x00,0x00,0x00,
0x00,0x00,0x00,0x00,0x00,0x00,0x00,0x00,0x1f,0x00,0x00,0x00,0x00,0x00,0x00,0x10,
0x0a,0x0f,0x0a,0x10,0x00,0x00,0x00,0x00,0x1f,0x00,0x00,0x10,0x00,0x00,0x00,0x00,
0x00,0x00,0x00,0x00,0x00,0x02,0x1b,0x17,0x1f,0x00,0x00,0x00,0x00,0x00,0x00,0x00,
0x00,0x00,0x00,0x00,0x10,0x10,0x10,0x10,0x10,0x37,0xf7,0x68,0xf0,0x49,0x41,0x10,
0x45,0x12,0x10,0x01,0x00,0x00,0x00,0x00,0x00,0x00,0x00,0x00,0x00,0x00,0x00,0x00,
0x00,0x00,0x00,0x00,0x1f,0x00,0x00,0x02,0x00,0x00,0x00,0x08,0x05,0x07,0x05,0x08,
0x00,0x00,0x01,0x01,0x1f,0x00,0x00,0x00,0x00,0x00,0x00,0x00,0x00,0x10,0x00,0x00,
0x01,0x15,0x07,0x0f,0x1f,0x00,0x00,0x00,0x00,0x00,0x00,0x00,0x00,0x00,0x00,0x10,
0x10,0x10,0x10,0x10,0x10,0x51,0xf7,0x6c,0xf0,0x49,0x41,0x10,0x45,0x12,0x10,0x01,
0x00,0x00,0x00,0x00,0x00,0x00,0x00,0x00,0x00,0x00,0x00,0x00,0x00,0x00,0x00,0x00,
0x1f,0x00,0x00,0x04,0x00,0x00,0x04,0x02,0x03,0x02,0x04,0x00,0x00,0x02,0x02,0x02,
0x1f,0x00,0x00,0x00,0x00,0x00,0x00,0x10,0x18,0x10,0x00,0x01,0x03,0x0b,0x0f,0x1f,
0x1f,0x00,0x00,0x00,0x00,0x00,0x00,0x00,0x00,0x00,0x00,0x00,0x00,0x10,0x10,0x10,
0x10,0x44,0xf7,0x70,0xf0,0x49,0x41,0x10,0x45,0x12,0x10,0x01,0x00,0x00,0x00,0x00,
0x00,0x00,0x00,0x00,0x00,0x00,0x00,0x00,0x00,0x00,0x00,0x00,0x1f,0x00,0x00,0x08,
0x00,0x04,0x02,0x03,0x02,0x04,0x00,0x00,0x00,0x08,0x04,0x05,0x1f,0x00,0x00,0x00,
0x00,0x00,0x10,0x18,0x10,0x00,0x00,0x02,0x06,0x17,0x1f,0x1f,0x1f,0x00,0x00,0x00,
0x00,0x00,0x00,0x00,0x00,0x00,0x00,0x00,0x10,0x10,0x10,0x10,0x10,0x05,0xf7,0x60,
0xf0,0x49,0x41,0x10,0x45,0x12,0x10,0x01,0x00,0x00,0x00,0x00,0x00,0x00,0x00,0x00,
0x00,0x00,0x00,0x00,0x00,0x00,0x00,0x00,0x1f,0x00,0x00,0x10,0x04,0x02,0x03,0x02,
0x04,0x00,0x00,0x00,0x00,0x01,0x19,0x0b,0x1f,0x00,0x00,0x00,0x00,0x10,0x18,0x10,
0x00,0x00,0x00,0x04,0x0d,0x0f,0x1f,0x1f,0x1f,0x00,0x00,0x00,0x10,0x00,0x00,0x00,
0x00,0x00,0x00,0x00,0x00,0x00,0x10,0x10,0x10,0x78,0xf7,0x68,0xf0,0x49,0x41,0x10,
0x45,0x12,0x10,0x01,0x00,0x00,0x00,0x01,0x00,0x00,0x00,0x00,0x00,0x00,0x00,0x00,
0x00,0x01,0x00,0x00,0x1f,0x00,0x00,0x00,0x00,0x04,0x02,0x03,0x02,0x04,0x00,0x00,
0x00,0x02,0x13,0x17,0x1f,0x00,0x00,0x00,0x01,0x00,0x10,0x18,0x10,0x00,0x00,0x08,
0x1a,0x1e,0x1f,0x1f,0x1f,0x00,0x00,0x00,0x00,0x00,0x00,0x00,0x00,0x00,0x00,0x00,
0x00,0x00,0x00,0x10,0x10,0x7e,0xf7,0x68,0xf0,0x49,0x41,0x10,0x45,0x12,0x10,0x01,
0x00,0x00,0x00,0x02,0x00,0x00,0x00,0x00,0x00,0x00,0x00,0x00,0x00,0x01,0x01,0x01,
0x1f,0x00,0x00,0x00,0x04,0x02,0x03,0x02,0x04,0x00,0x00,0x00,0x01,0x05,0x07,0x0f,
0x1f,0x00,0x00,0x00,0x0a,0x10,0x18,0x10,0x00,0x00,0x00,0x10,0x14,0x1c,0x1e,0x1f,
0x1f,0x00,0x00,0x00,0x00,0x00,0x00,0x00,0x00,0x00,0x00,0x00,0x00,0x00,0x00,0x00,
0x10,0x13,0xf7,0x64,0xf0,0x49,0x41,0x10,0x45,0x12,0x10,0x01,0x00,0x00,0x00,0x04,
0x00,0x00,0x00,0x00,0x00,0x00,0x00,0x00,0x00,0x01,0x02,0x02,0x1f,0x00,0x00,0x00,
0x08,0x05,0x07,0x05,0x08,0x00,0x00,0x01,0x03,0x0b,0x0f,0x1f,0x1f,0x00,0x04,0x0e,
0x04,0x00,0x10,0x00,0x00,0x00,0x00,0x00,0x08,0x18,0x1c,0x1e,0x1f,0x00,0x00,0x00,
0x00,0x00,0x00,0x00,0x00,0x00,0x00,0x00,0x00,0x00,0x00,0x10,0x10,0x0b,0xf7,0x64,
0xf0,0x49,0x41,0x10,0x45,0x12,0x10,0x01,0x00,0x00,0x00,0x08,0x01,0x00,0x00,0x00,
0x01,0x00,0x00,0x00,0x00,0x00,0x06,0x05,0x1f,0x00,0x00,0x00,0x00,0x14,0x1e,0x14,
0x00,0x00,0x00,0x02,0x06,0x17,0x1f,0x1f,0x1f,0x0c,0x16,0x18,0x0e,0x14,0x00,0x00,
0x00,0x00,0x00,0x00,0x10,0x10,0x18,0x1e,0x1f,0x00,0x00,0x00,0x00,0x00,0x00,0x00,
0x00,0x00,0x00,0x00,0x00,0x00,0x00,0x00,0x10,0x18,0xf7,0x6c,0xf0,0x49,0x41,0x10,
0x45,0x12,0x10,0x01,0x00,0x00,0x00,0x10,0x02,0x01,0x01,0x01,0x02,0x00,0x00,0x00,
0x00,0x05,0x09,0x0b,0x1f,0x00,0x00,0x01,0x00,0x08,0x1c,0x08,0x00,0x00,0x00,0x04,
0x0d,0x0f,0x1f,0x1f,0x1f,0x10,0x04,0x00,0x04,0x10,0x00,0x00,0x00,0x00,0x00,0x00,
0x00,0x00,0x10,0x19,0x1f,0x00,0x10,0x00,0x00,0x00,0x00,0x00,0x00,0x00,0x00,0x00,
0x00,0x10,0x10,0x10,0x10,0x36,0xf7,0x6c,0xf0,0x49,0x41,0x10,0x45,0x12,0x10,0x01,
0x00,0x00,0x00,0x00,0x00,0x04,0x02,0x03,0x02,0x04,0x00,0x00,0x00,0x12,0x13,0x17,
0x1f,0x00,0x00,0x00,0x00,0x00,0x10,0x18,0x10,0x00,0x00,0x08,0x1a,0x1e,0x1f,0x1f,
0x1f,0x00,0x02,0x00,0x00,0x00,0x00,0x00,0x00,0x00,0x00,0x00,0x00,0x00,0x01,0x15,
0x1f,0x00,0x00,0x00,0x00,0x00,0x00,0x10,0x10,0x00,0x00,0x00,0x00,0x10,0x10,0x10,
0x10,0x19,0xf7,0x6c,0xf0,0x49,0x41,0x10,0x45,0x12,0x10,0x01,0x00,0x00,0x00,0x01,
0x08,0x05,0x07,0x05,0x08,0x01,0x00,0x00,0x01,0x05,0x07,0x0f,0x1f,0x00,0x00,0x00,
0x00,0x00,0x10,0x00,0x00,0x00,0x00,0x10,0x14,0x1c,0x1e,0x1f,0x1f,0x00,0x08,0x00,
0x00,0x00,0x00,0x01,0x01,0x00,0x00,0x00,0x00,0x01,0x01,0x13,0x1f,0x00,0x00,0x00,
0x00,0x00,0x10,0x10,0x10,0x00,0x10,0x10,0x10,0x10,0x10,0x10,0x10,0x07,0xf7,0x6c,
0xf0,0x49,0x41,0x10,0x45,0x12,0x10,0x01,0x00,0x00,0x00,0x10,0x0a,0x0f,0x0a,0x10,
0x00,0x00,0x00,0x01,0x03,0x0b,0x0f,0x1f,0x1f,0x00,0x00,0x18,0x00,0x00,0x00,0x00,
0x00,0x18,0x00,0x00,0x08,0x18,0x1c,0x1c,0x1f,0x00,0x00,0x00,0x00,0x00,0x01,0x03,
0x03,0x00,0x01,0x01,0x01,0x03,0x03,0x1f,0x1f,0x00,0x00,0x00,0x00,0x10,0x10,0x10,
0x10,0x10,0x10,0x10,0x10,0x10,0x10,0x10,0x10,0x1b,0xf7,0x68,0xf0,0x49,0x41,0x10,
0x45,0x12,0x10,0x01,0x00,0x00,0x10,0x0a,0x0f,0x0a,0x10,0x00,0x00,0x00,0x00,0x02,
0x06,0x17,0x1f,0x1f,0x1f,0x00,0x00,0x0c,0x00,0x00,0x00,0x00,0x00,0x0c,0x00,0x00,
0x10,0x10,0x18,0x1a,0x1f,0x00,0x00,0x00,0x00,0x01,0x03,0x07,0x07,0x01,0x03,0x03,
0x03,0x03,0x07,0x1f,0x1f,0x00,0x00,0x00,0x00,0x00,0x10,0x10,0x10,0x10,0x10,0x10,
0x10,0x10,0x10,0x10,0x10,0x13,0xf7,0x6c,0xf0,0x49,0x41,0x10,0x45,0x12,0x10,0x01,
0x00,0x00,0x00,0x08,0x05,0x07,0x05,0x08,0x00,0x00,0x00,0x04,0x0d,0x0f,0x1f,0x1f,
0x1f,0x00,0x00,0x02,0x00,0x10,0x00,0x00,0x00,0x00,0x02,0x00,0x00,0x00,0x10,0x15,
0x1f,0x00,0x00,0x00,0x00,0x02,0x07,0x0f,0x0f,0x07,0x03,0x07,0x07,0x0f,0x0f,0x1f,
0x1f,0x00,0x00,0x00,0x00,0x00,0x10,0x10,0x10,0x10,0x10,0x10,0x10,0x10,0x10,0x10,
0x10,0x2e,0xf7,0x68,0xf0,0x49,0x41,0x10,0x45,0x12,0x10,0x01,0x00,0x00,0x08,0x05,
0x07,0x05,0x08,0x00,0x00,0x00,0x00,0x08,0x1a,0x1e,0x1f,0x1f,0x1f,0x00,0x00,0x00,
0x13,0x00,0x00,0x00,0x00,0x00,0x00,0x03,0x00,0x00,0x00,0x19,0x1f,0x00,0x00,0x00,
0x00,0x04,0x0f,0x1f,0x1f,0x07,0x0f,0x0f,0x0f,0x0f,0x1f,0x1f,0x1f,0x00,0x00,0x00,
0x00,0x00,0x00,0x00,0x10,0x10,0x10,0x10,0x10,0x10,0x10,0x10,0x10,0x62,0xf7,0x6c,
0xf0,0x49,0x41,0x10,0x45,0x12,0x10,0x01,0x00,0x00,0x10,0x0a,0x0f,0x0a,0x10,0x00,
0x00,0x00,0x00,0x10,0x14,0x1c,0x1e,0x1f,0x1f,0x00,0x00,0x00,0x00,0x01,0x00,0x01,
0x01,0x00,0x00,0x00,0x01,0x00,0x01,0x13,0x1f,0x00,0x00,0x00,0x00,0x0c,0x1e,0x1e,
0x1f,0x1f,0x0f,0x0f,0x0f,0x1f,0x1f,0x1f,0x1f,0x00,0x00,0x00,0x00,0x00,0x00,0x00,
0x00,0x00,0x00,0x00,0x10,0x10,0x10,0x10,0x10,0x5a,0xf7,0x6c,0xf0,0x49,0x41,0x10,
0x45,0x12,0x10,0x01,0x00,0x10,0x0a,0x0f,0x0a,0x10,0x00,0x00,0x00,0x00,0x00,0x00,
0x08,0x18,0x1c,0x1f,0x1f,0x00,0x00,0x00,0x05,0x03,0x04,0x03,0x07,0x01,0x00,0x01,
0x03,0x07,0x03,0x07,0x1e,0x00,0x00,0x00,0x00,0x18,0x14,0x16,0x16,0x0e,0x1e,0x1e,
0x0f,0x1f,0x07,0x1f,0x1f,0x00,0x00,0x00,0x00,0x00,0x00,0x00,0x00,0x00,0x00,0x00,
0x00,0x00,0x10,0x10,0x10,0x23,0xf7,0x6c,0xf0,0x49,0x41,0x10,0x45,0x12,0x10,0x01,
0x00,0x10,0x0a,0x0f,0x0a,0x10,0x00,0x00,0x00,0x00,0x00,0x00,0x10,0x18,0x18,0x1e,
0x1f,0x00,0x02,0x06,0x0b,0x00,0x0d,0x12,0x05,0x0c,0x02,0x0f,0x1c,0x09,0x0b,0x1f,
0x1f,0x00,0x00,0x10,0x00,0x18,0x00,0x08,0x0c,0x18,0x10,0x14,0x1c,0x16,0x0e,0x1f,
0x1f,0x00,0x00,0x00,0x00,0x00,0x00,0x00,0x00,0x00,0x00,0x00,0x00,0x00,0x00,0x10,
0x10,0x57,0xf7,0x6c,0xf0,0x49,0x41,0x10,0x45,0x12,0x10,0x01,0x00,0x00,0x08,0x05,
0x07,0x05,0x08,0x00,0x00,0x00,0x01,0x00,0x02,0x10,0x10,0x1d,0x1f,0x00,0x01,0x00,
0x10,0x04,0x00,0x04,0x02,0x09,0x16,0x0a,0x19,0x03,0x16,0x1f,0x1f,0x00,0x00,0x00,
0x00,0x14,0x00,0x00,0x00,0x10,0x14,0x05,0x00,0x00,0x14,0x1f,0x1f,0x00,0x00,0x00,
0x00,0x00,0x00,0x00,0x00,0x00,0x00,0x00,0x00,0x00,0x10,0x10,0x10,0x7c,0xf7,0x6c,
0xf0,0x49,0x41,0x10,0x45,0x12,0x10,0x01,0x00,0x00,0x04,0x02,0x03,0x02,0x04,0x00,
0x00,0x00,0x01,0x00,0x00,0x00,0x01,0x1b,0x1f,0x00,0x00,0x10,0x1a,0x10,0x00,0x00,
0x02,0x00,0x02,0x09,0x00,0x02,0x09,0x1f,0x1f,0x00,0x00,0x00,0x00,0x00,0x02,0x00,
0x10,0x00,0x00,0x08,0x08,0x02,0x09,0x1f,0x1f,0x00,0x00,0x00,0x00,0x00,0x00,0x00,
0x00,0x00,0x00,0x00,0x00,0x10,0x10,0x10,0x10,0x69,0xf7,0x6c,0xf0,0x49,0x41,0x10,
0x45,0x12,0x10,0x01,0x00,0x04,0x02,0x03,0x02,0x05,0x01,0x00,0x00,0x00,0x00,0x02,
0x00,0x00,0x02,0x07,0x1f,0x00,0x10,0x18,0x10,0x00,0x04,0x00,0x01,0x00,0x04,0x10,
0x00,0x00,0x18,0x1f,0x1f,0x00,0x00,0x00,0x00,0x00,0x00,0x02,0x00,0x00,0x00,0x10,
0x10,0x01,0x13,0x1f,0x1f,0x00,0x00,0x00,0x00,0x00,0x00,0x00,0x00,0x00,0x00,0x10,
0x10,0x10,0x10,0x10,0x10,0x39,0xf7,0x5c,0xf0,0x49,0x41,0x10,0x45,0x12,0x10,0x01,
0x00,0x02,0x01,0x01,0x01,0x02,0x00,0x00,0x00,0x00,0x04,0x00,0x00,0x11,0x05,0x0f,
0x1f,0x00,0x08,0x1c,0x08,0x00,0x10,0x10,0x00,0x00,0x00,0x00,0x08,0x00,0x11,0x1f,
0x1f,0x00,0x00,0x00,0x00,0x00,0x00,0x00,0x00,0x04,0x00,0x03,0x01,0x13,0x07,0x1f,
0x1f,0x00,0x00,0x00,0x00,0x00,0x00,0x00,0x00,0x00,0x00,0x00,0x00,0x10,0x10,0x10,
0x10,0x5d,0xf7,0x6c,0xf0,0x49,0x41,0x10,0x45,0x12,0x10,0x01,0x00,0x01,0x00,0x00,
0x00,0x01,0x00,0x00,0x00,0x00,0x00,0x08,0x00,0x00,0x0b,0x1f,0x1f,0x00,0x14,0x1e,
0x14,0x00,0x00,0x00,0x08,0x08,0x00,0x00,0x00,0x00,0x02,0x1f,0x1f,0x00,0x00,0x00,
0x00,0x00,0x00,0x01,0x00,0x00,0x00,0x04,0x12,0x07,0x1f,0x1f,0x1f,0x00,0x00,0x00,
0x00,0x00,0x00,0x10,0x00,0x00,0x00,0x00,0x10,0x10,0x10,0x10,0x10,0x2b,0xf7,0x6c,
0xf0,0x49,0x41,0x10,0x45,0x12,0x10,0x01,0x00,0x00,0x00,0x00,0x00,0x00,0x00,0x00,
0x00,0x00,0x00,0x00,0x00,0x15,0x17,0x1f,0x1f,0x10,0x0a,0x0f,0x0a,0x10,0x00,0x00,
0x00,0x00,0x04,0x04,0x00,0x12,0x1b,0x1f,0x1f,0x00,0x00,0x00,0x00,0x00,0x00,0x00,
0x00,0x00,0x00,0x00,0x05,0x0f,0x1f,0x1f,0x1f,0x00,0x00,0x00,0x00,0x00,0x00,0x00,
0x00,0x00,0x00,0x10,0x10,0x10,0x10,0x10,0x10,0x7e,0xf7,0x64,0xf0,0x49,0x41,0x10,
0x45,0x12,0x10,0x01,0x00,0x00,0x00,0x00,0x00,0x00,0x00,0x00,0x00,0x00,0x00,0x00,
0x00,0x0b,0x0f,0x1f,0x1f,0x08,0x05,0x07,0x05,0x08,0x00,0x00,0x00,0x02,0x0c,0x1e,
0x1b,0x0a,0x15,0x1b,0x1f,0x00,0x00,0x10,0x00,0x00,0x00,0x00,0x00,0x00,0x00,0x00,
0x08,0x1f,0x1f,0x1f,0x1f,0x00,0x00,0x00,0x00,0x00,0x00,0x00,0x00,0x00,0x00,0x00,
0x10,0x10,0x10,0x10,0x10,0x72,0xf7,0x68,0xf0,0x49,0x41,0x10,0x45,0x12,0x10,0x01,
0x00,0x00,0x00,0x00,0x00,0x00,0x00,0x00,0x00,0x00,0x03,0x01,0x02,0x16,0x1f,0x1f,
0x1f,0x08,0x05,0x07,0x05,0x08,0x00,0x00,0x18,0x1a,0x1c,0x1c,0x12,0x09,0x0b,0x1f,
0x1f,0x00,0x00,0x10,0x00,0x00,0x00,0x00,0x00,0x00,0x00,0x00,0x11,0x1f,0x1f,0x1f,
0x1f,0x00,0x00,0x00,0x00,0x00,0x00,0x00,0x00,0x10,0x10,0x10,0x10,0x10,0x10,0x10,
0x10,0x6a,0xf7,0x18,0x95,0x4f,0x67,0x00,0x95,0x43,0x67,0x44,0x85,0x43,0x40,0x00,
0x85,0x4f,0x40,0x04,0x95,0x51,0x4d,0x00,0x95,0x45,0x4d,0x04,0xf0,0x49,0x41,0x10,
0x45,0x12,0x10,0x01,0x00,0x01,0x00,0x00,0x00,0x01,0x00,0x00,0x00,0x02,0x00,0x03,
0x00,0x0c,0x1c,0x1f,0x1f,0x00,0x14,0x1e,0x14,0x00,0x00,0x00,0x08,0x00,0x14,0x00,
0x09,0x13,0x17,0x1f,0x1f,0x00,0x10,0x00,0x10,0x00,0x00,0x00,0x00,0x01,0x01,0x01,
0x03,0x1f,0x1f,0x1f,0x1f,0x10,0x10,0x10,0x10,0x10,0x10,0x10,0x10,0x10,0x10,0x10,
0x10,0x10,0x10,0x10,0x10,0x0d,0xf7,0x38,0x95,0x53,0x58,0x00,0x95,0x47,0x58,0x08,
0x85,0x45,0x40,0x00,0x85,0x51,0x40,0x24,0xf0,0x49,0x41,0x10,0x45,0x12,0x10,0x01,
0x00,0x02,0x01,0x01,0x01,0x02,0x00,0x00,0x00,0x01,0x04,0x00,0x14,0x19,0x19,0x1f,
0x1f,0x00,0x08,0x1c,0x08,0x00,0x00,0x00,0x00,0x00,0x00,0x08,0x02,0x07,0x0f,0x1f,
0x1f,0x01,0x0d,0x01,0x0d,0x01,0x01,0x01,0x01,0x03,0x03,0x03,0x07,0x1f,0x1f,0x1f,
0x1f,0x10,0x10,0x10,0x10,0x10,0x10,0x10,0x10,0x10,0x10,0x10,0x10,0x10,0x10,0x10,
0x10,0x29,0xf7,0x10,0x85,0x47,0x40,0x00,0x85,0x53,0x40,0x00,0x95,0x54,0x56,0x00,
0x95,0x48,0x56,0x30,0x95,0x56,0x64,0x00,0x95,0x4a,0x64,0x10,0x85,0x48,0x40,0x00,
0x85,0x54,0x40,0x14,0xf0,0x49,0x41,0x10,0x45,0x12,0x10,0x01,0x00,0x04,0x02,0x03,
0x02,0x04,0x00,0x00,0x00,0x00,0x00,0x00,0x00,0x00,0x10,0x19,0x1f,0x00,0x12,0x18,
0x12,0x00,0x00,0x00,0x00,0x00,0x00,0x00,0x04,0x0f,0x1f,0x1f,0x1f,0x03,0x07,0x03,
0x07,0x03,0x03,0x03,0x03,0x07,0x07,0x07,0x0f,0x1f,0x1f,0x1f,0x1f,0x00,0x00,0x00,
0x00,0x10,0x10,0x10,0x10,0x10,0x10,0x10,0x10,0x10,0x10,0x10,0x10,0x6c,0xf7,0x14,
0x95,0x58,0x5a,0x04,0x95,0x4c,0x5a,0x08,0x85,0x4a,0x40,0x00,0x85,0x56,0x40,0x24,
0x95,0x59,0x50,0x04,0x85,0x4c,0x40,0x00,0x85,0x58,0x40,0x00,0x95,0x4d,0x50,0x1c,
0xf0,0x49,0x41,0x10,0x45,0x12,0x10,0x01,0x00,0x08,0x05,0x07,0x05,0x08,0x00,0x00,
0x00,0x00,0x00,0x00,0x00,0x00,0x01,0x13,0x1f,0x00,0x01,0x10,0x01,0x00,0x00,0x00,
0x00,0x00,0x00,0x00,0x08,0x1f,0x1f,0x1f,0x1f,0x06,0x16,0x06,0x16,0x07,0x07,0x07,
0x07,0x0f,0x0f,0x0f,0x1f,0x1f,0x1f,0x1f,0x1f,0x00,0x00,0x00,0x00,0x00,0x00,0x00,
0x10,0x10,0x10,0x10,0x10,0x10,0x10,0x10,0x10,0x59,0xf7,0x1c,0x95,0x5b,0x52,0x00,
0x95,0x4f,0x52,0x0c,0x85,0x4d,0x40,0x00,0x85,0x59,0x40,0x2c,0x95,0x5d,0x58,0x00,
0x95,0x51,0x58,0x10,0x85,0x4f,0x40,0x00,0x85,0x5b,0x40,0x00,0xf0,0x49,0x41,0x10,
0x45,0x12,0x10,0x01,0x00,0x10,0x0a,0x0f,0x0a,0x10,0x00,0x00,0x00,0x00,0x00,0x00,
0x00,0x09,0x0b,0x1f,0x1f,0x00,0x08,0x01,0x09,0x00,0x00,0x00,0x00,0x00,0x00,0x00,
0x11,0x1f,0x1f,0x1f,0x1f,0x14,0x1c,0x14,0x0c,0x16,0x0e,0x0e,0x0f,0x1f,0x1f,0x1f,
0x1f,0x1f,0x1f,0x1f,0x1f,0x00,0x00,0x00,0x00,0x00,0x00,0x00,0x00,0x00,0x00,0x00,
0x00,0x10,0x10,0x10,0x10,0x72,0xf7,0x1c,0x95,0x5f,0x4f,0x04,0x85,0x5d,0x40,0x00,
0x95,0x53,0x4f,0x04,0x85,0x51,0x40,0x34,0x95,0x60,0x5f,0x00,0x95,0x54,0x5f,0x0c,
0xf0,0x49,0x41,0x10,0x45,0x12,0x10,0x01,0x00,0x10,0x0a,0x0f,0x0a,0x10,0x00,0x00,
0x00,0x00,0x00,0x00,0x01,0x13,0x17,0x1f,0x1f,0x02,0x03,0x00,0x07,0x06,0x04,0x06,
0x08,0x01,0x07,0x00,0x02,0x1f,0x1f,0x1f,0x1f,0x18,0x0c,0x18,0x00,0x14,0x1c,0x1c,
0x0e,0x1e,0x0e,0x1e,0x1e,0x1f,0x1f,0x1f,0x1f,0x00,0x00,0x00,0x00,0x00,0x00,0x00,
0x00,0x00,0x00,0x00,0x00,0x00,0x10,0x10,0x10,0x6f,0xf7,0x08,0x85,0x53,0x40,0x00,
0x85,0x5f,0x40,0x24,0x95,0x62,0x61,0x00,0x95,0x56,0x61,0x18,0x85,0x54,0x40,0x00,
0x85,0x60,0x40,0x14,0x85,0x56,0x40,0x00,0x85,0x62,0x40,0x08,0xf0,0x49,0x41,0x10,
0x45,0x12,0x10,0x01,0x00,0x10,0x0a,0x0f,0x0a,0x10,0x00,0x00,0x00,0x00,0x00,0x00,
0x02,0x07,0x0f,0x1f,0x1f,0x04,0x00,0x05,0x07,0x0e,0x01,0x0f,0x03,0x13,0x03,0x03,
0x07,0x1f,0x1f,0x1f,0x1f,0x10,0x10,0x08,0x10,0x1a,0x08,0x18,0x04,0x0c,0x1c,0x1c,
0x1c,0x1e,0x1f,0x1f,0x1f,0x00,0x00,0x00,0x00,0x00,0x00,0x00,0x00,0x00,0x00,0x00,
0x00,0x00,0x00,0x00,0x00,0x38,0xf7,0x04,0x95,0x64,0x61,0x00,0x95,0x58,0x61,0x24,
0x95,0x65,0x58,0x00,0x95,0x59,0x58,0x14,0x85,0x58,0x40,0x00,0x85,0x64,0x40,0x20,
0x95,0x67,0x6a,0x00,0x95,0x5b,0x6a,0x0c,0xf0,0x49,0x41,0x10,0x45,0x12,0x10,0x01,
0x00,0x10,0x0a,0x0f,0x0a,0x10,0x00,0x00,0x00,0x00,0x01,0x00,0x04,0x0f,0x1f,0x1f,
0x1f,0x11,0x00,0x00,0x00,0x02,0x08,0x05,0x02,0x17,0x07,0x07,0x0f,0x1f,0x1f,0x1f,
0x1f,0x00,0x00,0x00,0x00,0x08,0x10,0x10,0x08,0x08,0x08,0x18,0x18,0x1c,0x1e,0x1e,
0x1e,0x00,0x00,0x00,0x00,0x00,0x00,0x00,0x00,0x00,0x00,0x00,0x00,0x00,0x00,0x00,
0x00,0x03,0xf7,0x08,0x85,0x59,0x40,0x00,0x85,0x65,0x40,0x2c,0x85,0x5b,0x40,0x00,
0x85,0x67,0x40,0x34,0xf0,0x49,0x41,0x10,0x45,0x12,0x10,0x01,0x00,0x08,0x05,0x07,
0x05,0x08,0x00,0x00,0x00,0x00,0x01,0x02,0x08,0x1f,0x1f,0x1f,0x1f,0x00,0x04,0x10,
0x00,0x00,0x00,0x03,0x07,0x0f,0x0f,0x0f,0x1f,0x1f,0x1f,0x1f,0x1f,0x00,0x00,0x00,
0x00,0x00,0x00,0x00,0x10,0x10,0x10,0x10,0x10,0x18,0x1c,0x1c,0x1c,0x00,0x00,0x00,
0x00,0x00,0x00,0x00,0x00,0x00,0x00,0x00,0x00,0x00,0x00,0x00,0x00,0x25,0xf7,0x68,
0xf0,0x49,0x41,0x10,0x45,0x12,0x10,0x01,0x00,0x04,0x02,0x03,0x02,0x04,0x00,0x00,
0x00,0x00,0x00,0x04,0x11,0x1f,0x1f,0x1f,0x1f,0x00,0x10,0x18,0x10,0x00,0x00,0x06,
0x0f,0x1f,0x1f,0x1f,0x1f,0x1f,0x1f,0x1f,0x1f,0x00,0x00,0x00,0x00,0x00,0x00,0x00,
0x00,0x00,0x00,0x00,0x00,0x10,0x18,0x18,0x18,0x00,0x00,0x00,0x00,0x00,0x00,0x00,
0x00,0x00,0x00,0x00,0x00,0x00,0x00,0x00,0x00,0x32,0xf7,0x5c,0xf0,0x49,0x41,0x10,
0x45,0x12,0x10,0x01,0x00,0x02,0x01,0x01,0x01,0x02,0x00,0x00,0x00,0x01,0x01,0x01,
0x0b,0x1f,0x1f,0x1f,0x1f,0x00,0x08,0x1c,0x08,0x00,0x00,0x0c,0x1e,0x1e,0x1e,0x1e,
0x1e,0x1f,0x1f,0x1f,0x1f,0x00,0x00,0x00,0x00,0x00,0x00,0x00,0x00,0x00,0x00,0x00,
0x00,0x00,0x10,0x10,0x10,0x00,0x00,0x00,0x00,0x00,0x00,0x00,0x00,0x00,0x00,0x00,
0x00,0x00,0x00,0x00,0x00,0x64,0xf7,0x6c,0xf0,0x49,0x41,0x10,0x45,0x12,0x10,0x01,
0x00,0x01,0x00,0x00,0x00,0x01,0x00,0x00,0x01,0x03,0x03,0x03,0x07,0x1f,0x1f,0x1f,
0x1f,0x00,0x14,0x1e,0x14,0x00,0x00,0x18,0x1c,0x1c,0x1c,0x1c,0x1c,0x1e,0x1f,0x1f,
0x1f,0x00,0x00,0x00,0x00,0x00,0x00,0x00,0x00,0x00,0x00,0x00,0x00,0x00,0x00,0x00,
0x00,0x00,0x00,0x00,0x00,0x00,0x00,0x00,0x00,0x00,0x00,0x00,0x00,0x00,0x00,0x00,
0x00,0x7b,0xf7,0x6c,0xf0,0x49,0x41,0x10,0x45,0x12,0x10,0x01,0x00,0x00,0x00,0x00,
0x00,0x00,0x00,0x01,0x03,0x07,0x07,0x07,0x0f,0x1f,0x1f,0x1f,0x1f,0x10,0x0a,0x0f,
0x0a,0x10,0x00,0x10,0x18,0x18,0x18,0x18,0x18,0x1c,0x1e,0x1e,0x1e,0x00,0x00,0x00,
0x00,0x00,0x00,0x00,0x00,0x00,0x00,0x00,0x00,0x00,0x00,0x00,0x00,0x00,0x00,0x00,
0x00,0x00,0x00,0x00,0x00,0x00,0x00,0x00,0x00,0x00,0x00,0x00,0x00,0x0a,0xf7,0x70,
0xf0,0x49,0x41,0x10,0x45,0x12,0x10,0x01,0x00,0x01,0x00,0x00,0x00,0x01,0x00,0x03,
0x07,0x0f,0x0f,0x0f,0x1f,0x1f,0x1f,0x1f,0x1f,0x00,0x12,0x1b,0x12,0x00,0x00,0x00,
0x10,0x10,0x10,0x10,0x10,0x18,0x1c,0x1c,0x1c,0x00,0x00,0x00,0x00,0x00,0x00,0x00,
0x00,0x00,0x00,0x00,0x00,0x00,0x00,0x00,0x00,0x00,0x00,0x00,0x00,0x00,0x00,0x00,
0x00,0x00,0x00,0x00,0x00,0x00,0x00,0x00,0x10,0x10,0xf7,0x60,0xf0,0x49,0x41,0x10,
0x45,0x12,0x10,0x01,0x00,0x01,0x00,0x00,0x00,0x01,0x00,0x06,0x0f,0x1f,0x1f,0x1f,
0x1f,0x1f,0x1f,0x1f,0x1f,0x00,0x12,0x1b,0x12,0x00,0x00,0x00,0x00,0x00,0x00,0x00,
0x00,0x10,0x18,0x18,0x18,0x00,0x00,0x00,0x00,0x00,0x00,0x00,0x00,0x00,0x00,0x00,
0x00,0x00,0x00,0x00,0x01,0x00,0x00,0x00,0x00,0x00,0x00,0x00,0x00,0x00,0x00,0x00,
0x00,0x00,0x00,0x10,0x10,0x28,0xf7,0x70,0xf0,0x49,0x41,0x10,0x45,0x12,0x10,0x01,
0x00,0x02,0x01,0x01,0x01,0x02,0x00,0x0c,0x1e,0x1e,0x1e,0x1e,0x1e,0x1f,0x1f,0x1f,
0x1f,0x00,0x00,0x11,0x01,0x01,0x00,0x00,0x00,0x00,0x00,0x00,0x00,0x00,0x10,0x10,
0x10,0x00,0x00,0x00,0x10,0x00,0x00,0x00,0x00,0x00,0x00,0x00,0x00,0x00,0x00,0x01,
0x03,0x00,0x00,0x00,0x00,0x00,0x00,0x00,0x00,0x00,0x00,0x00,0x00,0x10,0x10,0x10,
0x10,0x33,0xf7,0x6c,0xf0,0x49,0x41,0x10,0x45,0x12,0x10,0x01,0x00,0x03,0x02,0x04,
0x00,0x18,0x1c,0x1c,0x1c,0x1c,0x1c,0x1c,0x1c,0x1e,0x1f,0x1f,0x1f,0x00,0x00,0x01,
0x03,0x03,0x00,0x00,0x00,0x00,0x00,0x00,0x00,0x00,0x00,0x00,0x00,0x00,0x00,0x00,
0x10,0x10,0x00,0x00,0x00,0x00,0x00,0x00,0x00,0x01,0x01,0x03,0x07,0x00,0x00,0x00,
0x00,0x00,0x00,0x00,0x00,0x00,0x00,0x00,0x10,0x10,0x10,0x10,0x10,0x0c,0xf7,0x60,
0xf0,0x49,0x41,0x10,0x45,0x12,0x10,0x01,0x00,0x04,0x08,0x00,0x18,0x1c,0x1c,0x1c,
0x1c,0x1c,0x1c,0x1e,0x1e,0x1f,0x1f,0x1f,0x1f,0x00,0x02,0x07,0x07,0x00,0x00,0x00,
0x00,0x00,0x00,0x00,0x00,0x00,0x00,0x00,0x00,0x00,0x00,0x00,0x00,0x00,0x00,0x00,
0x00,0x00,0x00,0x00,0x01,0x01,0x03,0x07,0x07,0x00,0x00,0x00,0x00,0x00,0x00,0x00,
0x00,0x00,0x00,0x10,0x10,0x10,0x10,0x10,0x10,0x68,0xf7,0x68,0xf0,0x49,0x41,0x10,
0x45,0x12,0x10,0x01,0x00,0x10,0x00,0x18,0x1c,0x1c,0x1c,0x1c,0x1c,0x1c,0x1c,0x1e,
0x1e,0x1f,0x1f,0x1f,0x1f,0x00,0x00,0x02,0x07,0x07,0x00,0x00,0x00,0x00,0x00,0x00,
0x00,0x00,0x00,0x00,0x1f,0x00,0x00,0x00,0x00,0x00,0x00,0x00,0x00,0x00,0x00,0x01,
0x01,0x03,0x07,0x07,0x1f,0x00,0x00,0x00,0x00,0x00,0x00,0x00,0x00,0x00,0x10,0x10,
0x10,0x10,0x10,0x10,0x10,0x7a,0xf7,0x68,0xf0,0x49,0x41,0x10,0x45,0x12,0x10,0x01,
0x00,0x00,0x18,0x1c,0x1c,0x1c,0x1c,0x1c,0x1c,0x1c,0x1e,0x1e,0x1f,0x1f,0x1f,0x1f,
0x1f,0x00,0x00,0x00,0x02,0x07,0x07,0x00,0x00,0x00,0x00,0x00,0x00,0x00,0x00,0x1d,
0x1f,0x00,0x00,0x00,0x00,0x00,0x00,0x00,0x00,0x00,0x01,0x01,0x03,0x07,0x07,0x1f,
0x1f,0x00,0x00,0x00,0x00,0x00,0x00,0x00,0x00,0x10,0x10,0x10,0x10,0x10,0x10,0x10,
0x10,0x1f,0xf7,0x6c,0xf0,0x49,0x41,0x10,0x45,0x12,0x10,0x01,0x00,0x18,0x1c,0x1c,
0x1c,0x1c,0x1c,0x1c,0x1c,0x1e,0x1e,0x1f,0x1f,0x1f,0x1f,0x1f,0x1f,0x00,0x00,0x00,
0x02,0x07,0x07,0x00,0x00,0x00,0x00,0x00,0x00,0x00,0x18,0x1f,0x00,0x00,0x00,0x00,
0x00,0x00,0x00,0x00,0x00,0x01,0x01,0x03,0x07,0x07,0x1f,0x1f,0x07,0x00,0x00,0x00,
0x00,0x00,0x00,0x00,0x10,0x10,0x10,0x10,0x10,0x10,0x10,0x10,0x10,0x6e,0xf7,0x64,
0xf0,0x49,0x41,0x10,0x45,0x12,0x10,0x01,0x00,0x1c,0x1c,0x1c,0x1c,0x1c,0x1c,0x1c,
0x1e,0x1e,0x1f,0x1f,0x1f,0x1f,0x1f,0x1f,0x1b,0x00,0x00,0x02,0x07,0x07,0x05,0x00,
0x00,0x00,0x00,0x00,0x00,0x10,0x1f,0x00,0x00,0x00,0x00,0x00,0x00,0x00,0x00,0x00,
0x01,0x01,0x03,0x07,0x07,0x0f,0x1f,0x07,0x06,0x00,0x00,0x00,0x00,0x00,0x00,0x10,
0x10,0x10,0x10,0x10,0x10,0x10,0x10,0x10,0x10,0x68,0xf7,0x68,0xf0,0x49,0x41,0x10,
0x45,0x12,0x10,0x01,0x00,0x1c,0x1c,0x1c,0x1c,0x1c,0x1c,0x1e,0x1e,0x1f,0x1f,0x1f,
0x1f,0x1f,0x1f,0x1b,0x1f,0x00,0x00,0x02,0x07,0x07,0x05,0x05,0x00,0x00,0x00,0x00,
0x00,0x1d,0x00,0x00,0x00,0x00,0x00,0x00,0x00,0x00,0x00,0x01,0x01,0x03,0x07,0x07,
0x07,0x1f,0x07,0x06,0x06,0x00,0x00,0x00,0x00,0x00,0x10,0x10,0x10,0x10,0x10,0x10,
0x10,0x10,0x10,0x10,0x10,0x64,0xf7,0x68,0xf0,0x49,0x41,0x10,0x45,0x12,0x10,0x01,
0x00,0x1c,0x1c,0x1c,0x1c,0x1c,0x1e,0x1e,0x1f,0x1f,0x1f,0x1f,0x1f,0x1f,0x1b,0x1b,
0x1b,0x00,0x00,0x00,0x02,0x07,0x07,0x05,0x05,0x00,0x00,0x00,0x18,0x00,0x00,0x00,
0x00,0x00,0x00,0x00,0x00,0x00,0x01,0x01,0x03,0x07,0x07,0x07,0x1f,0x07,0x06,0x06,
0x07,0x00,0x00,0x00,0x00,0x10,0x10,0x10,0x10,0x10,0x10,0x10,0x10,0x10,0x10,0x10,
0x10,0x57,0xf7,0x6c,0xf0,0x49,0x41,0x10,0x45,0x12,0x10,0x01,0x00,0x1c,0x1c,0x1c,
0x1c,0x1e,0x1e,0x1f,0x1f,0x1f,0x1f,0x1f,0x1f,0x1b,0x1b,0x1f,0x1b,0x00,0x00,0x00,
0x00,0x02,0x07,0x07,0x05,0x08,0x00,0x10,0x00,0x00,0x00,0x00,0x00,0x00,0x00,0x00,
0x00,0x01,0x01,0x03,0x07,0x17,0x07,0x0f,0x07,0x06,0x06,0x06,0x06,0x00,0x00,0x00,
0x10,0x10,0x10,0x10,0x10,0x10,0x10,0x10,0x10,0x10,0x10,0x10,0x10,0x44,0xf7,0x58,
0xf0,0x49,0x41,0x10,0x45,0x12,0x10,0x01,0x00,0x1c,0x1c,0x1e,0x1e,0x1f,0x1f,0x1f,
0x1f,0x1f,0x1f,0x1f,0x1b,0x1f,0x1b,0x1b,0x1b,0x00,0x00,0x00,0x00,0x02,0x07,0x07,
0x05,0x08,0x00,0x00,0x00,0x00,0x00,0x00,0x00,0x00,0x00,0x00,0x01,0x01,0x03,0x07,
0x07,0x17,0x07,0x07,0x06,0x07,0x06,0x07,0x06,0x00,0x00,0x10,0x10,0x10,0x10,0x10,
0x10,0x10,0x10,0x10,0x10,0x10,0x10,0x10,0x10,0x42,0xf7,0x6c,0xf0,0x49,0x41,0x10,
0x45,0x12,0x10,0x01,0x00,0x1c,0x1e,0x1e,0x1f,0x1f,0x1f,0x1f,0x1f,0x1f,0x1f,0x1b,
0x1f,0x1b,0x1b,0x1b,0x1b,0x00,0x00,0x00,0x00,0x02,0x07,0x07,0x05,0x08,0x00,0x00,
0x00,0x00,0x00,0x00,0x00,0x00,0x00,0x01,0x01,0x03,0x07,0x07,0x07,0x17,0x07,0x06,
0x06,0x07,0x06,0x06,0x06,0x00,0x10,0x10,0x10,0x10,0x10,0x10,0x10,0x10,0x10,0x10,
0x10,0x10,0x10,0x10,0x10,0x2e,0xf7,0x64,0xf0,0x49,0x41,0x10,0x45,0x12,0x10,0x01,
0x00,0x1e,0x1e,0x1f,0x1f,0x1f,0x1f,0x1f,0x1f,0x1f,0x1b,0x1b,0x1b,0x1b,0x1f,0x1b,
0x1f,0x00,0x00,0x00,0x00,0x01,0x03,0x03,0x02,0x04,0x00,0x00,0x00,0x00,0x00,0x00,
0x00,0x00,0x01,0x01,0x03,0x07,0x17,0x17,0x17,0x0f,0x06,0x06,0x07,0x06,0x07,0x06,
0x07,0x10,0x10,0x10,0x10,0x10,0x10,0x10,0x10,0x10,0x10,0x10,0x10,0x10,0x10,0x10,
0x10,0x7b,0xf7,0x64,0xf0,0x49,0x41,0x10,0x45,0x12,0x10,0x01,0x00,0x1e,0x1f,0x1f,
0x1f,0x1f,0x1f,0x1f,0x1f,0x1b,0x1b,0x1f,0x1b,0x1b,0x1b,0x1f,0x1f,0x00,0x00,0x00,
0x00,0x00,0x01,0x03,0x03,0x03,0x04,0x00,0x00,0x00,0x00,0x00,0x00,0x01,0x01,0x03,
0x07,0x07,0x07,0x17,0x17,0x16,0x0f,0x06,0x06,0x06,0x06,0x07,0x07,0x10,0x10,0x10,
0x10,0x10,0x10,0x10,0x10,0x10,0x10,0x10,0x10,0x10,0x10,0x10,0x10,0x73,0xf7,0x68,
0xf0,0x49,0x41,0x10,0x45,0x12,0x10,0x01,0x00,0x1f,0x1f,0x1f,0x1f,0x1f,0x1f,0x1f,
0x1b,0x1f,0x1b,0x1b,0x1b,0x1f,0x1f,0x1f,0x01,0x00,0x00,0x00,0x00,0x10,0x01,0x03,
0x03,0x03,0x04,0x00,0x00,0x00,0x00,0x00,0x00,0x01,0x03,0x07,0x07,0x0f,0x07,0x17,
0x16,0x16,0x0f,0x06,0x06,0x06,0x07,0x07,0x04,0x10,0x10,0x10,0x10,0x10,0x10,0x10,
0x10,0x10,0x10,0x10,0x10,0x10,0x10,0x10,0x00,0x01,0xf7,0x6c,0xf0,0x49,0x41,0x10,
0x45,0x12,0x10,0x01,0x00,0x1f,0x1f,0x1f,0x1f,0x1f,0x1f,0x1b,0x1b,0x1f,0x1b,0x1b,
0x1b,0x1f,0x1f,0x11,0x11,0x00,0x00,0x00,0x18,0x00,0x00,0x01,0x03,0x03,0x02,0x04,
0x03,0x03,0x01,0x00,0x00,0x03,0x07,0x07,0x1f,0x07,0x07,0x06,0x16,0x17,0x17,0x0e,
0x16,0x17,0x07,0x06,0x06,0x10,0x10,0x10,0x10,0x10,0x10,0x10,0x10,0x10,0x10,0x10,
0x10,0x10,0x10,0x00,0x00,0x4d,0xf7,0x68,0xf0,0x49,0x41,0x10,0x45,0x12,0x10,0x01,
0x00,0x1f,0x1f,0x1f,0x1f,0x1f,0x1f,0x1b,0x1f,0x1b,0x1b,0x1b,0x1f,0x1f,0x09,0x09,
0x09,0x00,0x00,0x1d,0x00,0x00,0x00,0x00,0x02,0x07,0x07,0x08,0x00,0x00,0x00,0x00,
0x07,0x07,0x07,0x1f,0x07,0x07,0x06,0x06,0x07,0x06,0x07,0x16,0x07,0x07,0x05,0x05,
0x05,0x10,0x10,0x10,0x10,0x10,0x10,0x10,0x10,0x10,0x10,0x10,0x10,0x10,0x00,0x00,
0x00,0x37,0xf7,0x68,0xf0,0x49,0x41,0x10,0x45,0x12,0x10,0x01,0x00,0x1f,0x1f,0x1f,
0x1f,0x1f,0x1b,0x1f,0x1b,0x1b,0x1f,0x1b,0x1f,0x1f,0x05,0x05,0x05,0x00,0x10,0x1f,
0x00,0x00,0x00,0x00,0x00,0x02,0x07,0x07,0x08,0x00,0x00,0x07,0x07,0x07,0x0f,0x1f,
0x07,0x07,0x06,0x07,0x06,0x06,0x06,0x06,0x17,0x07,0x04,0x04,0x04,0x10,0x10,0x10,
0x10,0x10,0x10,0x10,0x10,0x10,0x10,0x10,0x10,0x10,0x10,0x10,0x10,0x76,0xf7,0x68,
0xf0,0x49,0x41,0x10,0x45,0x12,0x10,0x01,0x00,0x1f,0x1f,0x1f,0x1f,0x1b,0x1b,0x1f,
0x1b,0x1b,0x1b,0x1f,0x1f,0x13,0x13,0x13,0x13,0x10,0x1f,0x00,0x00,0x00,0x00,0x00,
0x00,0x00,0x02,0x07,0x07,0x08,0x00,0x07,0x07,0x0f,0x1f,0x07,0x07,0x06,0x07,0x06,
0x06,0x06,0x06,0x07,0x07,0x16,0x06,0x06,0x06,0x10,0x10,0x10,0x10,0x10,0x10,0x10,
0x10,0x10,0x10,0x10,0x10,0x00,0x00,0x00,0x00,0x17,0xf7,0x68,0xf0,0x49,0x41,0x10,
0x45,0x12,0x10,0x01,0x00,0x1f,0x1f,0x1f,0x1b,0x1b,0x1b,0x1f,0x1b,0x1b,0x1f,0x1f,
0x09,0x09,0x09,0x09,0x1f,0x18,0x1f,0x00,0x00,0x00,0x00,0x00,0x00,0x00,0x02,0x07,
0x07,0x05,0x00,0x07,0x07,0x1f,0x1f,0x07,0x06,0x06,0x07,0x06,0x06,0x06,0x07,0x07,
0x0d,0x0d,0x05,0x05,0x07,0x10,0x10,0x10,0x10,0x10,0x10,0x10,0x10,0x10,0x10,0x10,
0x00,0x00,0x00,0x00,0x10,0x2e,0xf7,0x68,0xf0,0x49,0x41,0x10,0x45,0x12,0x10,0x01,
0x00,0x1f,0x1f,0x1b,0x1f,0x1b,0x1b,0x1b,0x1f,0x1b,0x1f,0x1f,0x05,0x05,0x05,0x05,
0x1f,0x1f,0x00,0x00,0x00,0x00,0x00,0x00,0x00,0x00,0x00,0x02,0x07,0x07,0x07,0x07,
0x07,0x1f,0x07,0x06,0x06,0x07,0x06,0x06,0x06,0x07,0x07,0x07,0x0c,0x1c,0x04,0x04,
0x07,0x10,0x10,0x10,0x10,0x10,0x10,0x10,0x10,0x10,0x10,0x10,0x10,0x10,0x10,0x10,
0x10,0x20,0xf7,0x68,0xf0,0x49,0x41,0x10,0x45,0x12,0x10,0x01,0x00,0x1f,0x1f,0x1b,
0x1b,0x1f,0x1b,0x1b,0x1b,0x1b,0x1f,0x1f,0x13,0x13,0x13,0x13,0x1f,0x1f,0x00,0x00,
0x00,0x00,0x00,0x00,0x00,0x00,0x00,0x02,0x07,0x07,0x07,0x07,0x07,0x1f,0x07,0x06,
0x06,0x06,0x06,0x06,0x07,0x06,0x07,0x07,0x0e,0x1e,0x06,0x06,0x07,0x10,0x10,0x10,
0x10,0x10,0x10,0x10,0x10,0x10,0x10,0x10,0x00,0x00,0x00,0x00,0x10,0x25,0xf7,0x18,
0xf0,0x49,0x41,0x10,0x45,0x12,0x10,0x01,0x00,0x1f,0x1f,0x1f,0x1b,0x1b,0x1b,0x1f,
0x1b,0x1b,0x1f,0x1f,0x09,0x09,0x09,0x09,0x1f,0x1f,0x00,0x00,0x00,0x00,0x00,0x00,
0x00,0x00,0x00,0x00,0x02,0x07,0x07,0x07,0x0f,0x1f,0x07,0x07,0x06,0x06,0x06,0x07,
0x06,0x06,0x07,0x07,0x0d,0x0d,0x05,0x05,0x17,0x10,0x10,0x10,0x10,0x10,0x10,0x10,
0x10,0x10,0x10,0x10,0x00,0x00,0x00,0x00,0x10,0x4b,0xf7,0x70,0xf0,0x49,0x41,0x10,
0x45,0x12,0x10,0x01,0x00,0x1f,0x1f,0x1e,0x16,0x16,0x1e,0x16,0x16,0x16,0x1e,0x1e,
0x0a,0x0a,0x0a,0x0a,0x1e,0x1d,0x1d,0x00,0x00,0x00,0x00,0x00,0x00,0x00,0x02,0x02,
0x07,0x07,0x07,0x0f,0x1a,0x1f,0x1f,0x03,0x03,0x03,0x03,0x03,0x03,0x03,0x03,0x03,
0x06,0x06,0x02,0x12,0x1b,0x10,0x10,0x10,0x00,0x00,0x10,0x00,0x00,0x00,0x10,0x10,
0x00,0x00,0x00,0x00,0x10,0x05,0xf7,0x68,0xf0,0x49,0x41,0x10,0x45,0x12,0x10,0x01,
0x00,0x1f,0x1f,0x1c,0x1c,0x1c,0x0c,0x1c,0x0c,0x0c,0x0c,0x0c,0x1c,0x1c,0x04,0x04,
0x04,0x10,0x10,0x00,0x00,0x00,0x00,0x00,0x00,0x00,0x02,0x02,0x07,0x07,0x07,0x0f,
0x1a,0x0f,0x0f,0x01,0x01,0x01,0x01,0x01,0x01,0x01,0x01,0x01,0x01,0x01,0x01,0x11,
0x19,0x10,0x10,0x10,0x10,0x10,0x10,0x10,0x10,0x10,0x10,0x10,0x10,0x10,0x00,0x00,
0x00,0x3b,0xf7,0x60,0xf0,0x49,0x41,0x10,0x45,0x12,0x10,0x01,0x00,0x1e,0x1e,0x18,
0x18,0x18,0x18,0x18,0x18,0x18,0x18,0x18,0x18,0x18,0x08,0x08,0x08,0x00,0x00,0x00,
0x00,0x00,0x00,0x00,0x00,0x02,0x02,0x07,0x07,0x07,0x0f,0x1a,0x02,0x03,0x03,0x00,
0x00,0x00,0x00,0x00,0x00,0x00,0x00,0x00,0x00,0x00,0x10,0x18,0x00,0x10,0x10,0x10,
0x10,0x10,0x10,0x10,0x10,0x10,0x10,0x10,0x10,0x10,0x10,0x10,0x10,0x21,0xf7,0x64,
0xf0,0x49,0x41,0x10,0x45,0x12,0x10,0x01,0x00,0x18,0x18,0x10,0x10,0x10,0x10,0x10,
0x10,0x10,0x10,0x10,0x10,0x10,0x10,0x11,0x10,0x00,0x00,0x00,0x00,0x00,0x00,0x02,
0x02,0x02,0x07,0x07,0x07,0x0f,0x1f,0x12,0x02,0x00,0x00,0x00,0x00,0x00,0x00,0x00,
0x00,0x00,0x00,0x00,0x00,0x10,0x18,0x0c,0x00,0x10,0x10,0x00,0x00,0x00,0x00,0x00,
0x00,0x00,0x00,0x00,0x00,0x00,0x00,0x00,0x00,0x2d,0xf7,0x6c,0xf0,0x49,0x41,0x10,
0x45,0x12,0x10,0x01,0x00,0x00,0x00,0x00,0x00,0x00,0x00,0x00,0x00,0x00,0x00,0x00,
0x00,0x00,0x01,0x01,0x00,0x00,0x00,0x00,0x00,0x00,0x02,0x02,0x02,0x07,0x07,0x07,
0x0f,0x1f,0x1a,0x0a,0x02,0x00,0x00,0x00,0x00,0x00,0x00,0x00,0x00,0x00,0x00,0x00,
0x10,0x18,0x1c,0x14,0x00,0x00,0x00,0x00,0x00,0x00,0x00,0x00,0x00,0x00,0x00,0x00,
0x00,0x00,0x00,0x00,0x00,0x26,0xf7,0x6c,0xf0,0x49,0x41,0x10,0x45,0x12,0x10,0x01,
0x00,0x00,0x00,0x00,0x00,0x00,0x00,0x00,0x00,0x00,0x00,0x00,0x00,0x00,0x01,0x03,
0x00,0x00,0x00,0x00,0x00,0x02,0x02,0x02,0x02,0x07,0x07,0x07,0x0f,0x1f,0x1a,0x0a,
0x02,0x00,0x00,0x00,0x00,0x00,0x00,0x00,0x00,0x00,0x00,0x00,0x10,0x18,0x1c,0x16,
0x00,0x00,0x00,0x00,0x00,0x00,0x00,0x00,0x00,0x00,0x00,0x00,0x00,0x00,0x00,0x00,
0x00,0x20,0xf7,0x68,0xf0,0x49,0x41,0x10,0x45,0x12,0x10,0x01,0x00,0x00,0x00,0x00,
0x00,0x00,0x00,0x00,0x00,0x00,0x00,0x00,0x00,0x00,0x01,0x03,0x00,0x00,0x00,0x00,
0x02,0x02,0x02,0x02,0x07,0x07,0x07,0x07,0x0f,0x1f,0x1a,0x0a,0x02,0x00,0x00,0x00,
0x00,0x00,0x00,0x00,0x00,0x00,0x00,0x00,0x10,0x18,0x1c,0x16,0x00,0x00,0x00,0x00,
0x00,0x00,0x00,0x00,0x00,0x00,0x00,0x00,0x00,0x00,0x00,0x00,0x00,0x19,0xf7,0x68,
0xf0,0x49,0x41,0x10,0x45,0x12,0x10,0x01,0x00,0x00,0x00,0x00,0x00,0x00,0x00,0x00,
0x00,0x00,0x00,0x00,0x00,0x00,0x01,0x03,0x00,0x00,0x00,0x02,0x02,0x02,0x02,0x02,
0x07,0x07,0x07,0x07,0x0f,0x1f,0x1a,0x0a,0x02,0x00,0x00,0x00,0x00,0x00,0x00,0x00,
0x00,0x00,0x00,0x00,0x10,0x18,0x1c,0x16,0x00,0x00,0x00,0x00,0x00,0x00,0x00,0x00,
0x00,0x00,0x00,0x00,0x00,0x00,0x00,0x00,0x00,0x17,0xf7,0x68,0xf0,0x49,0x41,0x10,
0x45,0x12,0x10,0x01,0x00,0x00,0x00,0x00,0x00,0x00,0x00,0x00,0x00,0x00,0x00,0x00,
0x00,0x00,0x01,0x03,0x00,0x00,0x00,0x02,0x02,0x02,0x02,0x07,0x07,0x07,0x07,0x0f,
0x0f,0x1f,0x1a,0x0a,0x02,0x00,0x00,0x00,0x00,0x00,0x00,0x00,0x00,0x00,0x00,0x10,
0x10,0x18,0x1c,0x16,0x00,0x00,0x00,0x00,0x00,0x00,0x00,0x00,0x00,0x00,0x00,0x00,
0x00,0x00,0x00,0x00,0x00,0x7a,0xf7,0x6c,0xf0,0x49,0x41,0x10,0x45,0x12,0x10,0x01,
0x00,0x00,0x00,0x00,0x00,0x00,0x00,0x00,0x00,0x00,0x00,0x00,0x00,0x00,0x01,0x03,
0x00,0x00,0x02,0x02,0x02,0x02,0x07,0x07,0x07,0x07,0x0f,0x0f,0x0f,0x1f,0x1a,0x0a,
0x02,0x00,0x00,0x00,0x00,0x00,0x00,0x00,0x00,0x00,0x10,0x10,0x10,0x18,0x1c,0x16,
0x00,0x00,0x00,0x00,0x00,0x00,0x00,0x00,0x00,0x00,0x00,0x00,0x00,0x00,0x00,0x00,
0x00,0x5b,0xf7,0x68,0xf0,0x49,0x41,0x10,0x45,0x12,0x10,0x01,0x00,0x00,0x00,0x00,
0x00,0x00,0x00,0x00,0x00,0x00,0x00,0x00,0x00,0x00,0x01,0x03,0x00,0x02,0x02,0x02,
0x02,0x07,0x07,0x07,0x07,0x0f,0x0a,0x0f,0x0f,0x1f,0x1a,0x0a,0x02,0x00,0x00,0x00,
0x00,0x00,0x00,0x00,0x00,0x10,0x10,0x10,0x10,0x18,0x1c,0x16,0x00,0x00,0x00,0x00,
0x00,0x00,0x00,0x00,0x00,0x00,0x00,0x00,0x00,0x00,0x00,0x00,0x00,0x41,0xf7,0x70,
0xf0,0x49,0x41,0x10,0x45,0x12,0x10,0x01,0x00,0x00,0x00,0x00,0x00,0x00,0x00,0x00,
0x00,0x00,0x00,0x00,0x00,0x00,0x01,0x03,0x00,0x02,0x02,0x02,0x07,0x07,0x07,0x07,
0x0f,0x0f,0x0f,0x0f,0x1f,0x1a,0x1a,0x0a,0x02,0x00,0x00,0x00,0x00,0x00,0x00,0x00,
0x10,0x10,0x10,0x10,0x18,0x18,0x1c,0x16,0x00,0x00,0x00,0x00,0x00,0x00,0x00,0x00,
0x00,0x00,0x00,0x00,0x00,0x00,0x00,0x00,0x00,0x0c,0xf7,0x70,0xf0,0x49,0x41,0x10,
0x45,0x12,0x10,0x01,0x00,0x00,0x00,0x00,0x00,0x00,0x00,0x00,0x00,0x00,0x00,0x00,
0x00,0x01,0x03,0x00,0x00,0x02,0x02,0x07,0x07,0x07,0x07,0x0f,0x0a,0x0f,0x0f,0x1f,
0x1a,0x1a,0x0a,0x02,0x00,0x00,0x00,0x00,0x00,0x00,0x00,0x10,0x10,0x10,0x10,0x18,
0x18,0x1c,0x16,0x00,0x00,0x00,0x00,0x00,0x00,0x00,0x00,0x00,0x00,0x00,0x00,0x00,
0x00,0x00,0x00,0x00,0x00,0x13,0xf7,0x68,0xf0,0x49,0x41,0x10,0x45,0x12,0x10,0x01,
0x00,0x00,0x00,0x00,0x00,0x00,0x00,0x00,0x00,0x00,0x00,0x00,0x01,0x03,0x00,0x00,
0x00,0x02,0x07,0x07,0x07,0x07,0x0f,0x0f,0x0f,0x0f,0x1f,0x1a,0x1a,0x0a,0x0a,0x00,
0x00,0x00,0x00,0x00,0x00,0x00,0x10,0x10,0x10,0x10,0x18,0x18,0x1c,0x16,0x10,0x00,
0x00,0x00,0x00,0x00,0x00,0x00,0x00,0x00,0x00,0x00,0x00,0x00,0x00,0x00,0x00,0x00,
0x00,0x78,0xf7,0x64,0xf0,0x49,0x41,0x10,0x45,0x12,0x10,0x01,0x00,0x00,0x00,0x00,
0x00,0x00,0x00,0x00,0x00,0x00,0x00,0x01,0x03,0x00,0x00,0x00,0x00,0x07,0x07,0x07,
0x07,0x0f,0x0f,0x0f,0x0f,0x1f,0x1a,0x1a,0x0a,0x02,0x08,0x1d,0x1d,0x00,0x00,0x00,
0x00,0x10,0x10,0x10,0x10,0x18,0x18,0x1c,0x16,0x00,0x10,0x18,0x18,0x00,0x00,0x00,
0x00,0x00,0x00,0x00,0x00,0x00,0x00,0x00,0x00,0x00,0x00,0x00,0x00,0x10,0xf7,0x6c,
0xf0,0x49,0x41,0x10,0x45,0x12,0x10,0x01,0x00,0x00,0x00,0x00,0x00,0x00,0x00,0x00,
0x00,0x01,0x03,0x00,0x00,0x00,0x00,0x00,0x00,0x07,0x07,0x0f,0x0f,0x0f,0x0f,0x1f,
0x1a,0x1a,0x0a,0x0a,0x00,0x00,0x00,0x08,0x00,0x00,0x00,0x10,0x10,0x10,0x10,0x18,
0x18,0x1c,0x16,0x10,0x00,0x00,0x00,0x10,0x00,0x00,0x00,0x00,0x00,0x00,0x00,0x00,
0x00,0x00,0x00,0x00,0x00,0x00,0x00,0x00,0x00,0x70,0xf7,0x68,0xf0,0x49,0x41,0x10,
0x45,0x12,0x10,0x01,0x00,0x00,0x00,0x00,0x00,0x00,0x00,0x00,0x01,0x03,0x00,0x00,
0x00,0x00,0x00,0x00,0x00,0x07,0x0f,0x0a,0x0f,0x0f,0x1f,0x1a,0x1a,0x0a,0x0a,0x00,
0x00,0x00,0x00,0x00,0x00,0x00,0x10,0x10,0x10,0x10,0x18,0x18,0x1c,0x16,0x10,0x00,
0x00,0x00,0x00,0x00,0x00,0x00,0x00,0x00,0x00,0x00,0x00,0x00,0x00,0x00,0x00,0x00,
0x00,0x00,0x00,0x00,0x00,0x14,0xf7,0x5c,0xf0,0x49,0x41,0x10,0x45,0x12,0x10,0x01,
0x00,0x00,0x00,0x00,0x00,0x00,0x01,0x03,0x00,0x00,0x00,0x00,0x00,0x00,0x00,0x00,
0x00,0x0f,0x0f,0x0f,0x1f,0x1a,0x1a,0x0a,0x0a,0x08,0x08,0x00,0x08,0x1d,0x1d,0x1d,
0x08,0x10,0x10,0x10,0x18,0x18,0x1c,0x16,0x10,0x10,0x10,0x00,0x10,0x18,0x18,0x18,
0x10,0x00,0x00,0x00,0x00,0x00,0x00,0x00,0x00,0x00,0x00,0x00,0x00,0x00,0x00,0x00,
0x00,0x36,0xf7,0x6c,0xf0,0x49,0x41,0x10,0x45,0x12,0x10,0x01,0x00,0x00,0x00,0x00,
0x00,0x01,0x03,0x00,0x00,0x00,0x00,0x00,0x00,0x00,0x00,0x00,0x00,0x0f,0x0f,0x1f,
0x1a,0x1a,0x0a,0x08,0x00,0x00,0x00,0x00,0x00,0x00,0x00,0x00,0x00,0x10,0x10,0x18,
0x18,0x1c,0x16,0x10,0x00,0x00,0x00,0x00,0x00,0x00,0x00,0x00,0x00,0x00,0x00,0x00,
0x00,0x00,0x00,0x00,0x00,0x00,0x00,0x00,0x00,0x00,0x00,0x00,0x00,0x56,0xf7,0x6c,
0xf0,0x49,0x41,0x10,0x45,0x12,0x10,0x01,0x00,0x00,0x00,0x00,0x01,0x03,0x00,0x00,
0x00,0x00,0x00,0x00,0x00,0x00,0x00,0x00,0x00,0x0f,0x1f,0x1a,0x1a,0x0a,0x08,0x00,
0x00,0x00,0x00,0x00,0x00,0x00,0x00,0x00,0x00,0x10,0x18,0x18,0x1c,0x16,0x10,0x00,
0x00,0x00,0x00,0x00,0x00,0x00,0x00,0x00,0x00,0x00,0x00,0x00,0x00,0x00,0x00,0x00,
0x00,0x00,0x00,0x00,0x00,0x00,0x00,0x00,0x00,0x75,0xf7,0x70,0xf0,0x49,0x41,0x10,
0x45,0x12,0x10,0x01,0x00,0x00,0x00,0x01,0x03,0x00,0x00,0x00,0x00,0x00,0x00,0x00,
0x00,0x00,0x00,0x00,0x00,0x1f,0x1a,0x1a,0x0a,0x0a,0x00,0x08,0x1d,0x1d,0x1d,0x08,
0x08,0x00,0x00,0x00,0x00,0x18,0x18,0x1c,0x16,0x10,0x00,0x10,0x18,0x18,0x18,0x10,
0x10,0x00,0x00,0x00,0x00,0x00,0x00,0x00,0x00,0x00,0x00,0x00,0x00,0x00,0x00,0x00,
0x00,0x00,0x00,0x00,0x00,0x2b,0xf7,0x64,0xf0,0x49,0x41,0x10,0x45,0x12,0x10,0x01,
0x00,0x00,0x01,0x03,0x00,0x00,0x00,0x00,0x00,0x00,0x00,0x00,0x00,0x00,0x00,0x00,
0x00,0x1a,0x1a,0x0a,0x08,0x00,0x00,0x00,0x00,0x08,0x08,0x1d,0x1d,0x1d,0x1d,0x08,
0x08,0x18,0x1c,0x16,0x10,0x00,0x00,0x00,0x00,0x10,0x10,0x18,0x18,0x18,0x18,0x10,
0x10,0x00,0x00,0x00,0x00,0x00,0x00,0x00,0x00,0x00,0x00,0x00,0x00,0x00,0x00,0x00,
0x00,0x17,0xf7,0x64,0xf0,0x49,0x41,0x10,0x45,0x12,0x10,0x01,0x00,0x03,0x00,0x00,
0x00,0x00,0x00,0x00,0x00,0x00,0x00,0x00,0x00,0x00,0x00,0x00,0x00,0x0a,0x0a,0x00,
0x00,0x00,0x00,0x00,0x00,0x00,0x00,0x00,0x08,0x08,0x08,0x00,0x00,0x16,0x10,0x00,
0x00,0x00,0x00,0x00,0x00,0x00,0x00,0x00,0x10,0x10,0x10,0x00,0x00,0x00,0x00,0x00,
0x00,0x00,0x00,0x00,0x00,0x00,0x00,0x00,0x00,0x00,0x00,0x00,0x00,0x6a,0xf7,0x64,
0xf0,0x49,0x41,0x10,0x45,0x12,0x10,0x01,0x00,0x00,0x00,0x00,0x00,0x00,0x00,0x00,
0x00,0x00,0x00,0x00,0x00,0x00,0x00,0x00,0x00,0x00,0x00,0x00,0x00,0x00,0x00,0x00,
0x00,0x00,0x00,0x00,0x00,0x00,0x00,0x00,0x00,0x00,0x00,0x00,0x00,0x00,0x00,0x00,
0x00,0x00,0x00,0x00,0x00,0x00,0x00,0x00,0x00,0x00,0x00,0x00,0x00,0x00,0x00,0x00,
0x00,0x00,0x00,0x00,0x00,0x00,0x00,0x00,0x00,0x6f,0xf7,0x64,0xf0,0x49,0x41,0x10,
0x45,0x12,0x10,0x01,0x00,0x00,0x00,0x00,0x00,0x00,0x00,0x00,0x00,0x00,0x00,0x00,
0x00,0x00,0x00,0x00,0x00,0x00,0x00,0x00,0x00,0x00,0x00,0x00,0x00,0x00,0x00,0x00,
0x00,0x00,0x00,0x00,0x00,0x00,0x00,0x00,0x00,0x00,0x00,0x00,0x00,0x00,0x00,0x00,
0x00,0x00,0x00,0x00,0x00,0x00,0x00,0x00,0x00,0x00,0x00,0x00,0x00,0x00,0x00,0x00,
0x00,0x00,0x00,0x00,0x00,0x6f,0xf7,0x6c,0xf0,0x49,0x41,0x10,0x45,0x12,0x10,0x01,
0x00,0x00,0x08,0x08,0x08,0x08,0x08,0x08,0x00,0x00,0x00,0x00,0x00,0x00,0x00,0x00,
0x00,0x00,0x01,0x01,0x01,0x01,0x01,0x01,0x01,0x00,0x04,0x04,0x04,0x04,0x04,0x04,
0x00,0x00,0x00,0x00,0x00,0x00,0x00,0x00,0x00,0x00,0x00,0x00,0x00,0x00,0x00,0x00,
0x00,0x00,0x00,0x00,0x00,0x00,0x00,0x00,0x00,0x00,0x00,0x00,0x10,0x10,0x10,0x10,
0x00,0x60,0xf7,0x68,0xf0,0x49,0x41,0x10,0x45,0x12,0x10,0x01,0x00,0x04,0x0c,0x0c,
0x0c,0x0c,0x0c,0x0c,0x04,0x00,0x00,0x00,0x00,0x00,0x00,0x00,0x00,0x00,0x01,0x01,
0x01,0x01,0x01,0x01,0x01,0x08,0x0c,0x0c,0x0c,0x0c,0x0c,0x0c,0x08,0x10,0x10,0x10,
0x10,0x10,0x10,0x10,0x10,0x00,0x00,0x00,0x01,0x01,0x01,0x01,0x01,0x00,0x00,0x00,
0x00,0x00,0x00,0x00,0x00,0x00,0x00,0x00,0x10,0x10,0x10,0x10,0x00,0x7b,0xf7,0x64,
0xf0,0x49,0x41,0x10,0x45,0x12,0x10,0x01,0x00,0x06,0x0c,0x0c,0x0c,0x0c,0x0c,0x06,
0x06,0x00,0x00,0x00,0x00,0x00,0x00,0x00,0x00,0x00,0x01,0x01,0x01,0x01,0x01,0x01,
0x01,0x18,0x1c,0x0c,0x0c,0x0c,0x0c,0x0c,0x18,0x18,0x10,0x10,0x10,0x10,0x10,0x10,
0x10,0x00,0x00,0x00,0x01,0x01,0x01,0x01,0x03,0x00,0x00,0x00,0x00,0x00,0x00,0x00,
0x00,0x00,0x00,0x00,0x10,0x10,0x10,0x10,0x00,0x43,0xf7,0x64,0xf0,0x49,0x41,0x10,
0x45,0x12,0x10,0x01,0x00,0x07,0x0c,0x0c,0x0c,0x0c,0x0c,0x06,0x07,0x01,0x00,0x00,
0x00,0x00,0x00,0x00,0x01,0x00,0x01,0x01,0x01,0x01,0x01,0x01,0x01,0x18,0x1c,0x0c,
0x0c,0x0c,0x0c,0x0c,0x18,0x1c,0x10,0x10,0x10,0x10,0x10,0x10,0x10,0x00,0x00,0x00,
0x01,0x01,0x01,0x01,0x07,0x00,0x00,0x00,0x00,0x00,0x00,0x00,0x00,0x00,0x00,0x00,
0x10,0x10,0x10,0x10,0x00,0x37,0xf7,0x64,0xf0,0x49,0x41,0x10,0x45,0x12,0x10,0x01,
0x00,0x07,0x0c,0x0c,0x0c,0x0c,0x0c,0x06,0x07,0x01,0x00,0x00,0x00,0x00,0x00,0x00,
0x03,0x10,0x01,0x01,0x01,0x01,0x01,0x01,0x01,0x18,0x1c,0x0c,0x0c,0x0c,0x0c,0x0c,
0x18,0x1e,0x10,0x10,0x10,0x10,0x10,0x10,0x10,0x00,0x00,0x00,0x01,0x01,0x01,0x01,
0x0f,0x00,0x00,0x00,0x00,0x00,0x00,0x00,0x00,0x00,0x00,0x00,0x10,0x10,0x10,0x10,
0x00,0x1b,0xf7,0x6c,0xf0,0x49,0x41,0x10,0x45,0x12,0x10,0x01,0x00,0x07,0x0c,0x0c,
0x0c,0x0c,0x0c,0x06,0x07,0x01,0x00,0x00,0x04,0x04,0x04,0x04,0x07,0x18,0x09,0x09,
0x09,0x09,0x01,0x01,0x01,0x18,0x1c,0x0c,0x0c,0x0c,0x0c,0x0c,0x18,0x1f,0x11,0x11,
0x11,0x11,0x10,0x10,0x10,0x10,0x10,0x10,0x11,0x11,0x11,0x11,0x1f,0x00,0x00,0x00,
0x00,0x00,0x00,0x00,0x00,0x00,0x00,0x00,0x10,0x10,0x10,0x10,0x00,0x5a,0xf7,0x68,
0xf0,0x49,0x41,0x10,0x45,0x12,0x10,0x01,0x00,0x07,0x0c,0x0c,0x0c,0x0c,0x0c,0x06,
0x07,0x01,0x00,0x00,0x0c,0x0c,0x0c,0x0c,0x07,0x18,0x0d,0x0d,0x0d,0x0d,0x01,0x01,
0x01,0x19,0x1d,0x0d,0x0d,0x0d,0x0d,0x0d,0x18,0x1f,0x11,0x11,0x11,0x11,0x10,0x10,
0x10,0x10,0x10,0x10,0x11,0x11,0x11,0x11,0x1f,0x00,0x10,0x10,0x10,0x10,0x00,0x00,
0x00,0x00,0x00,0x00,0x10,0x10,0x10,0x10,0x00,0x63,0xf7,0x58,0xf0,0x49,0x41,0x10,
0x45,0x12,0x10,0x01,0x00,0x07,0x0c,0x0c,0x0c,0x0c,0x0c,0x06,0x07,0x01,0x00,0x00,
0x0c,0x0c,0x0c,0x0c,0x07,0x18,0x0d,0x0d,0x0d,0x0d,0x01,0x01,0x01,0x19,0x1d,0x0d,
0x0d,0x0d,0x0d,0x0d,0x18,0x1f,0x11,0x11,0x11,0x11,0x10,0x10,0x10,0x10,0x10,0x10,
0x11,0x11,0x11,0x11,0x1f,0x00,0x10,0x10,0x10,0x10,0x00,0x00,0x00,0x00,0x00,0x00,
0x10,0x10,0x10,0x10,0x00,0x63,0xf7,0x81,0x60,0xf0,0x49,0x41,0x10,0x45,0x12,0x10,
0x01,0x00,0x07,0x0c,0x0c,0x0c,0x0c,0x0c,0x06,0x07,0x01,0x00,0x00,0x0c,0x0c,0x0c,
0x0c,0x07,0x18,0x0d,0x0d,0x0d,0x0d,0x01,0x01,0x01,0x19,0x1d,0x0d,0x0d,0x0d,0x0d,
0x0d,0x18,0x1f,0x11,0x11,0x11,0x11,0x10,0x10,0x10,0x10,0x10,0x10,0x11,0x11,0x11,
0x11,0x1f,0x00,0x10,0x10,0x10,0x10,0x00,0x00,0x00,0x00,0x00,0x00,0x10,0x10,0x10,
0x10,0x00,0x63,0xf7,0x68,0xf0,0x49,0x41,0x10,0x45,0x12,0x10,0x01,0x00,0x07,0x0c,
0x0c,0x0c,0x0c,0x0c,0x06,0x07,0x01,0x00,0x00,0x0c,0x0c,0x0c,0x0c,0x07,0x18,0x0d,
0x0d,0x0d,0x0d,0x01,0x01,0x01,0x19,0x1d,0x0d,0x0d,0x0d,0x0d,0x0d,0x18,0x1f,0x11,
0x11,0x11,0x11,0x10,0x10,0x10,0x10,0x10,0x10,0x11,0x11,0x11,0x11,0x1f,0x00,0x10,
0x10,0x10,0x10,0x00,0x00,0x00,0x00,0x00,0x00,0x10,0x10,0x10,0x10,0x00,0x63,0xf7,
0x6c,0xf0,0x49,0x41,0x10,0x45,0x12,0x10,0x01,0x00,0x07,0x0c,0x0c,0x0c,0x0c,0x0c,
0x06,0x07,0x01,0x00,0x00,0x0c,0x0c,0x0c,0x0c,0x07,0x18,0x0d,0x0d,0x0d,0x0d,0x01,
0x01,0x01,0x19,0x1d,0x0d,0x0d,0x0d,0x0d,0x0d,0x18,0x1f,0x11,0x11,0x11,0x11,0x10,
0x10,0x10,0x10,0x10,0x10,0x11,0x11,0x11,0x11,0x1f,0x00,0x10,0x10,0x10,0x10,0x00,
0x00,0x00,0x00,0x00,0x00,0x10,0x10,0x10,0x10,0x00,0x63,0xf7,0x5c,0xf0,0x49,0x41,
0x10,0x45,0x12,0x10,0x01,0x00,0x07,0x0c,0x0c,0x0c,0x0c,0x0c,0x06,0x07,0x01,0x00,
0x00,0x0c,0x0c,0x0c,0x0c,0x07,0x18,0x0d,0x0d,0x0d,0x0d,0x01,0x01,0x01,0x19,0x1d,
0x0d,0x0d,0x0d,0x0d,0x0d,0x18,0x1f,0x11,0x11,0x11,0x11,0x10,0x10,0x10,0x10,0x10,
0x10,0x11,0x11,0x11,0x11,0x1f,0x00,0x10,0x10,0x10,0x10,0x00,0x00,0x00,0x00,0x00,
0x00,0x10,0x10,0x10,0x10,0x00,0x63,0xf7,0x81,0x38,0xf0,0x49,0x41,0x10,0x45,0x12,
0x10,0x01,0x00,0x17,0x1c,0x1c,0x1c,0x1c,0x1c,0x16,0x17,0x11,0x10,0x10,0x1c,0x1c,
0x1c,0x1c,0x17,0x1a,0x0f,0x0f,0x0f,0x0f,0x03,0x03,0x03,0x1b,0x1f,0x0f,0x0f,0x0f,
0x0f,0x0f,0x1a,0x1f,0x11,0x11,0x11,0x11,0x10,0x10,0x10,0x10,0x10,0x10,0x11,0x11,
0x11,0x11,0x1f,0x00,0x10,0x10,0x10,0x10,0x00,0x00,0x00,0x00,0x00,0x00,0x10,0x10,
0x10,0x10,0x00,0x43,0xf7,0x5c,0xf0,0x49,0x41,0x10,0x45,0x12,0x10,0x01,0x00,0x17,
0x14,0x14,0x14,0x14,0x14,0x16,0x17,0x11,0x10,0x18,0x14,0x14,0x14,0x14,0x1f,0x1a,
0x0e,0x0e,0x0e,0x0e,0x02,0x02,0x02,0x1a,0x1e,0x0f,0x0e,0x0e,0x0e,0x0e,0x1b,0x1f,
0x11,0x11,0x11,0x11,0x10,0x10,0x10,0x10,0x10,0x10,0x11,0x11,0x11,0x11,0x1f,0x00,
0x10,0x10,0x10,0x10,0x00,0x00,0x00,0x00,0x00,0x00,0x10,0x10,0x10,0x10,0x00,0x07,
0xf7,0x5c,0xf0,0x49,0x41,0x10,0x45,0x12,0x10,0x01,0x00,0x13,0x10,0x10,0x10,0x10,
0x10,0x12,0x13,0x11,0x18,0x18,0x10,0x10,0x10,0x13,0x1b,0x1a,0x0e,0x0e,0x0e,0x0e,
0x02,0x02,0x02,0x1a,0x1f,0x0f,0x0e,0x0e,0x0e,0x1e,0x1b,0x0f,0x0f,0x01,0x01,0x01,
0x01,0x00,0x00,0x00,0x00,0x01,0x01,0x01,0x01,0x0f,0x0f,0x00,0x10,0x10,0x10,0x10,
0x10,0x00,0x00,0x00,0x00,0x10,0x10,0x10,0x10,0x10,0x00,0x61,0xf7,0x5c,0xf0,0x49,
0x41,0x10,0x45,0x12,0x10,0x01,0x00,0x13,0x11,0x10,0x12,0x12,0x12,0x13,0x11,0x10,
0x1e,0x1e,0x12,0x12,0x12,0x11,0x19,0x1a,0x1e,0x0e,0x0e,0x0e,0x02,0x02,0x12,0x1a,
0x0f,0x0f,0x0e,0x0e,0x0e,0x1e,0x1b,0x0f,0x07,0x01,0x09,0x09,0x09,0x08,0x00,0x00,
0x18,0x19,0x09,0x09,0x09,0x07,0x07,0x00,0x10,0x10,0x10,0x10,0x10,0x00,0x00,0x00,
0x00,0x10,0x10,0x10,0x10,0x10,0x00,0x6e,0xf7,0x5c,0xf0,0x49,0x41,0x10,0x45,0x12,
0x10,0x01,0x00,0x13,0x10,0x10,0x13,0x13,0x13,0x13,0x10,0x10,0x1f,0x1f,0x13,0x13,
0x13,0x10,0x18,0x1a,0x1e,0x0e,0x0e,0x0e,0x02,0x02,0x12,0x1a,0x0f,0x0f,0x0e,0x0e,
0x0e,0x1e,0x1b,0x0f,0x03,0x01,0x0d,0x0d,0x0c,0x0c,0x00,0x00,0x1c,0x1c,0x0d,0x0d,
0x0d,0x03,0x03,0x00,0x10,0x10,0x10,0x10,0x00,0x00,0x00,0x00,0x00,0x00,0x10,0x10,
0x10,0x10,0x00,0x74,0xf7,0x5c,0xf0,0x49,0x41,0x10,0x45,0x12,0x10,0x01,0x00,0x13,
0x10,0x10,0x13,0x13,0x13,0x13,0x10,0x10,0x1f,0x1f,0x13,0x13,0x13,0x10,0x18,0x1a,
0x0e,0x0e,0x1e,0x1e,0x12,0x12,0x02,0x0a,0x1f,0x1f,0x1e,0x1e,0x1e,0x0e,0x0b,0x0f,
0x01,0x01,0x0f,0x0f,0x0e,0x0e,0x00,0x00,0x1e,0x1e,0x0f,0x0f,0x0f,0x01,0x01,0x00,
0x10,0x10,0x10,0x10,0x00,0x00,0x00,0x00,0x00,0x00,0x10,0x10,0x10,0x10,0x00,0x28,
0xf7,0x5c,0xf0,0x49,0x41,0x10,0x45,0x12,0x10,0x01,0x00,0x13,0x10,0x10,0x13,0x13,
0x13,0x13,0x10,0x10,0x1f,0x1f,0x13,0x13,0x13,0x10,0x18,0x1a,0x06,0x06,0x1e,0x1e,
0x1a,0x1a,0x02,0x02,0x17,0x17,0x16,0x16,0x16,0x06,0x03,0x0f,0x00,0x00,0x0f,0x0f,
0x0f,0x0f,0x00,0x00,0x1e,0x1e,0x0e,0x0e,0x0e,0x00,0x00,0x00,0x10,0x10,0x10,0x10,
0x00,0x00,0x00,0x00,0x00,0x00,0x10,0x10,0x10,0x10,0x00,0x6d,0xf7,0x5c,0xf0,0x49,
0x41,0x10,0x45,0x12,0x10,0x01,0x00,0x13,0x10,0x10,0x13,0x13,0x13,0x13,0x10,0x10,
0x1f,0x1f,0x13,0x13,0x13,0x10,0x18,0x1e,0x02,0x02,0x1e,0x1e,0x1e,0x1e,0x06,0x02,
0x13,0x13,0x12,0x12,0x12,0x02,0x07,0x0f,0x00,0x00,0x0f,0x0f,0x0f,0x0f,0x00,0x00,
0x1e,0x1e,0x0e,0x0e,0x0e,0x00,0x00,0x10,0x00,0x00,0x10,0x10,0x10,0x10,0x10,0x00,
0x00,0x00,0x00,0x00,0x00,0x00,0x10,0x09,0xf7,0x81,0x3c,0xf0,0x49,0x41,0x10,0x45,
0x12,0x10,0x01,0x00,0x0c,0x0f,0x0f,0x0c,0x0c,0x0c,0x0c,0x0f,0x0f,0x00,0x00,0x0c,
0x0c,0x0c,0x0f,0x07,0x01,0x1d,0x1d,0x01,0x01,0x01,0x01,0x19,0x1d,0x0c,0x0c,0x0d,
0x0d,0x0d,0x1d,0x18,0x10,0x1f,0x1f,0x10,0x10,0x10,0x10,0x1f,0x1f,0x01,0x01,0x11,
0x11,0x11,0x1f,0x1f,0x00,0x10,0x10,0x00,0x00,0x00,0x00,0x00,0x10,0x10,0x10,0x10,
0x10,0x10,0x10,0x00,0x05,0xf7,0x81,0x60,0xf0,0x49,0x41,0x10,0x45,0x12,0x10,0x01,
0x00,0x0c,0x0f,0x0f,0x0c,0x0c,0x0c,0x0c,0x0f,0x0f,0x00,0x00,0x0c,0x0c,0x0c,0x0f,
0x07,0x01,0x1d,0x1d,0x01,0x01,0x01,0x01,0x19,0x1d,0x0c,0x0c,0x0d,0x0d,0x0d,0x1d,
0x18,0x10,0x1f,0x1f,0x10,0x10,0x10,0x10,0x1f,0x1f,0x01,0x01,0x11,0x11,0x11,0x1f,
0x1f,0x00,0x10,0x10,0x00,0x00,0x00,0x00,0x00,0x10,0x10,0x10,0x10,0x10,0x10,0x10,
0x00,0x05,0xf7,0x6c,0xf0,0x49,0x41,0x10,0x45,0x12,0x10,0x01,0x00,0x0c,0x0f,0x0f,
0x0c,0x0c,0x0c,0x0c,0x0f,0x0f,0x00,0x00,0x0c,0x0c,0x0c,0x0f,0x07,0x01,0x1d,0x1d,
0x01,0x01,0x01,0x01,0x19,0x1d,0x0c,0x0c,0x0d,0x0d,0x0d,0x1d,0x18,0x10,0x1f,0x1f,
0x10,0x10,0x10,0x10,0x1f,0x1f,0x01,0x01,0x11,0x11,0x11,0x1f,0x1f,0x00,0x10,0x10,
0x00,0x00,0x00,0x00,0x00,0x10,0x10,0x10,0x10,0x10,0x10,0x10,0x00,0x05,0xf7,0x6c,
0xf0,0x49,0x41,0x10,0x45,0x12,0x10,0x01,0x00,0x0c,0x0f,0x0f,0x0c,0x0c,0x0c,0x0c,
0x0f,0x0f,0x00,0x00,0x0c,0x0c,0x0c,0x0f,0x07,0x01,0x1d,0x1d,0x01,0x01,0x01,0x01,
0x19,0x1d,0x0c,0x0c,0x0d,0x0d,0x0d,0x1d,0x18,0x10,0x1f,0x1f,0x10,0x10,0x10,0x10,
0x1f,0x1f,0x01,0x01,0x11,0x11,0x11,0x1f,0x1f,0x00,0x10,0x10,0x00,0x00,0x00,0x00,
0x00,0x10,0x10,0x10,0x10,0x10,0x10,0x10,0x00,0x05,0xf7,0x70,0xf0,0x49,0x41,0x10,
0x45,0x12,0x10,0x01,0x00,0x0c,0x0f,0x0f,0x0c,0x0c,0x0c,0x0c,0x0f,0x0f,0x00,0x00,
0x0c,0x0c,0x0c,0x0f,0x07,0x01,0x1d,0x1d,0x01,0x01,0x01,0x01,0x19,0x1d,0x0c,0x0c,
0x0d,0x0d,0x0d,0x1d,0x18,0x10,0x1f,0x1f,0x10,0x10,0x10,0x10,0x1f,0x1f,0x01,0x01,
0x11,0x11,0x11,0x1f,0x1f,0x00,0x10,0x10,0x00,0x00,0x00,0x00,0x00,0x10,0x10,0x10,
0x10,0x10,0x10,0x10,0x00,0x05,0xf7,0x70,0xf0,0x49,0x41,0x10,0x45,0x12,0x10,0x01,
0x00,0x00,0x0c,0x0f,0x0f,0x0c,0x0c,0x0c,0x0c,0x0f,0x0f,0x00,0x00,0x0c,0x0c,0x0c,
0x0f,0x00,0x01,0x1d,0x1d,0x01,0x01,0x01,0x01,0x19,0x1d,0x0c,0x0c,0x0d,0x0d,0x0d,
0x1d,0x00,0x10,0x1f,0x1f,0x10,0x10,0x10,0x10,0x1f,0x1f,0x01,0x01,0x11,0x11,0x11,
0x1f,0x00,0x00,0x10,0x10,0x00,0x00,0x00,0x00,0x00,0x10,0x10,0x10,0x10,0x10,0x10,
0x10,0x43,0xf7,0x6c,0xf0,0x49,0x41,0x10,0x45,0x12,0x10,0x01,0x00,0x00,0x00,0x0c,
0x0f,0x0f,0x0c,0x0c,0x0c,0x0c,0x0f,0x0f,0x00,0x00,0x0c,0x0c,0x0c,0x00,0x00,0x01,
0x1d,0x1d,0x01,0x01,0x01,0x01,0x19,0x1d,0x0c,0x0c,0x0d,0x0d,0x0d,0x00,0x00,0x10,
0x1f,0x1f,0x10,0x10,0x10,0x10,0x1f,0x1f,0x01,0x01,0x11,0x11,0x11,0x00,0x00,0x00,
0x10,0x10,0x00,0x00,0x00,0x00,0x00,0x10,0x10,0x10,0x10,0x10,0x10,0x1e,0xf7,0x70,
0xf0,0x49,0x41,0x10,0x45,0x12,0x10,0x01,0x00,0x00,0x00,0x00,0x00,0x0c,0x0f,0x0f,
0x0c,0x0c,0x0c,0x0c,0x0f,0x0f,0x00,0x00,0x0c,0x00,0x00,0x00,0x00,0x01,0x1d,0x1d,
0x01,0x01,0x01,0x01,0x19,0x1d,0x0c,0x0c,0x0d,0x00,0x00,0x00,0x00,0x10,0x1f,0x1f,
0x10,0x10,0x10,0x10,0x1f,0x1f,0x01,0x01,0x11,0x00,0x00,0x00,0x00,0x00,0x10,0x10,
0x00,0x00,0x00,0x00,0x00,0x10,0x10,0x10,0x10,0x12,0xf7,0x6c,0xf0,0x49,0x41,0x10,
0x45,0x12,0x10,0x01,0x00,0x00,0x00,0x00,0x00,0x00,0x00,0x00,0x0c,0x0f,0x0f,0x0c,
0x0c,0x0c,0x0c,0x0f,0x0f,0x00,0x00,0x00,0x00,0x00,0x00,0x00,0x01,0x1d,0x1d,0x01,
0x01,0x01,0x01,0x19,0x1d,0x00,0x00,0x00,0x00,0x00,0x00,0x00,0x10,0x1f,0x1f,0x10,
0x10,0x10,0x10,0x1f,0x1f,0x00,0x00,0x00,0x00,0x00,0x00,0x00,0x00,0x10,0x10,0x00,
0x00,0x00,0x00,0x00,0x10,0x06,0xf7,0x6c,0xf0,0x49,0x41,0x10,0x45,0x12,0x10,0x01,
0x00,0x00,0x00,0x00,0x00,0x00,0x00,0x00,0x00,0x00,0x00,0x0c,0x0f,0x0f,0x0c,0x0c,
0x0c,0x00,0x00,0x00,0x00,0x00,0x00,0x00,0x00,0x00,0x00,0x01,0x1d,0x1d,0x01,0x01,
0x01,0x00,0x00,0x00,0x00,0x00,0x00,0x00,0x00,0x00,0x00,0x10,0x1f,0x1f,0x10,0x10,
0x10,0x00,0x00,0x00,0x00,0x00,0x00,0x00,0x00,0x00,0x00,0x00,0x10,0x10,0x00,0x00,
0x00,0x45,0xf7,0x6c,0xf0,0x49,0x41,0x10,0x45,0x12,0x10,0x01,0x00,0x00,0x00,0x00,
0x00,0x00,0x00,0x00,0x00,0x00,0x00,0x00,0x00,0x00,0x0c,0x0f,0x0f,0x00,0x00,0x00,
0x00,0x00,0x00,0x00,0x00,0x00,0x00,0x00,0x00,0x00,0x01,0x1d,0x1d,0x00,0x00,0x00,
0x00,0x00,0x00,0x00,0x00,0x00,0x00,0x00,0x00,0x00,0x10,0x1f,0x1f,0x00,0x00,0x00,
0x00,0x00,0x00,0x00,0x00,0x00,0x00,0x00,0x00,0x00,0x00,0x10,0x10,0x1c,0xf7,0x6c,
0xf0,0x49,0x41,0x10,0x45,0x12,0x10,0x01,0x00,0x00,0x00,0x00,0x00,0x00,0x00,0x00,
0x00,0x00,0x00,0x00,0x00,0x00,0x00,0x00,0x1f,0x00,0x00,0x00,0x00,0x00,0x00,0x00,
0x00,0x00,0x00,0x00,0x00,0x00,0x00,0x00,0x1f,0x00,0x00,0x00,0x00,0x00,0x00,0x00,
0x00,0x00,0x00,0x00,0x00,0x00,0x00,0x00,0x1f,0x00,0x00,0x00,0x00,0x00,0x00,0x00,
0x00,0x00,0x00,0x00,0x00,0x00,0x00,0x00,0x10,0x02,0xf7,0x6c,0xf0,0x49,0x41,0x10,
0x45,0x12,0x10,0x01,0x00,0x00,0x00,0x00,0x00,0x00,0x00,0x00,0x00,0x00,0x00,0x00,
0x00,0x00,0x00,0x00,0x1f,0x00,0x00,0x00,0x00,0x00,0x00,0x00,0x00,0x00,0x00,0x00,
0x00,0x00,0x00,0x00,0x1f,0x00,0x00,0x00,0x00,0x00,0x00,0x00,0x00,0x00,0x00,0x00,
0x00,0x00,0x00,0x00,0x1f,0x00,0x00,0x00,0x00,0x00,0x00,0x00,0x00,0x00,0x00,0x00,
0x00,0x00,0x00,0x00,0x10,0x02,0xf7,0x64,0xf0,0x49,0x41,0x10,0x45,0x12,0x10,0x01,
0x00,0x00,0x00,0x00,0x00,0x00,0x00,0x00,0x00,0x00,0x00,0x00,0x00,0x00,0x00,0x00,
0x1f,0x00,0x00,0x00,0x00,0x00,0x00,0x00,0x00,0x00,0x00,0x00,0x00,0x00,0x00,0x00,
0x1f,0x00,0x00,0x00,0x00,0x00,0x00,0x00,0x00,0x00,0x00,0x00,0x00,0x00,0x00,0x00,
0x1f,0x00,0x00,0x00,0x00,0x00,0x00,0x00,0x00,0x00,0x00,0x00,0x00,0x00,0x00,0x00,
0x10,0x02,0xf7,0x6c,0xf0,0x49,0x41,0x10,0x45,0x12,0x10,0x01,0x00,0x00,0x00,0x00,
0x00,0x00,0x00,0x00,0x00,0x00,0x00,0x00,0x00,0x00,0x00,0x00,0x1f,0x00,0x00,0x00,
0x00,0x00,0x00,0x00,0x00,0x00,0x00,0x00,0x00,0x00,0x00,0x00,0x1f,0x00,0x00,0x00,
0x00,0x00,0x00,0x00,0x00,0x00,0x00,0x00,0x00,0x00,0x00,0x00,0x1f,0x00,0x00,0x00,
0x00,0x00,0x00,0x00,0x00,0x00,0x00,0x00,0x00,0x00,0x00,0x00,0x10,0x02,0xf7,0x8c,
0x10,0xff,0x2f,0x00,0x4d,0x54,0x72,0x6b,0x00,0x00,0x00,0xaa,0x00,0xff,0x03,0x08,
0x43,0x4c,0x41,0x52,0x49,0x4e,0x45,0x54,0x84,0x0c,0xb6,0x79,0x00,0x00,0xb6,0x00,
0x00,0x00,0xb6,0x20,0x00,0x00,0xc6,0x47,0x00,0xb6,0x07,0x64,0x00,0xb6,0x0a,0x40,
0x00,0xb6,0x5b,0x7f,0x00,0xb6,0x5d,0x00,0xc3,0x44,0x96,0x37,0x67,0x44,0x86,0x37,
0x40,0x00,0x96,0x39,0x4d,0x40,0x96,0x3b,0x58,0x04,0x86,0x39,0x40,0x34,0x86,0x3b,
0x40,0x00,0x96,0x3c,0x56,0x34,0x96,0x3e,0x64,0x0c,0x86,0x3c,0x40,0x2c,0x96,0x40,
0x5a,0x08,0x86,0x3e,0x40,0x28,0x96,0x41,0x50,0x04,0x86,0x40,0x40,0x38,0x96,0x43,
0x52,0x08,0x86,0x41,0x40,0x2c,0x96,0x45,0x58,0x10,0x86,0x43,0x40,0x20,0x96,0x47,
0x4f,0x04,0x86,0x45,0x40,0x34,0x96,0x48,0x5f,0x14,0x86,0x47,0x40,0x24,0x96,0x4a,
0x61,0x18,0x86,0x48,0x40,0x14,0x86,0x4a,0x40,0x0c,0x96,0x4c,0x61,0x24,0x96,0x4d,
0x58,0x14,0x86,0x4c,0x40,0x24,0x96,0x4f,0x6a,0x10,0x86,0x4d,0x40,0x2c,0x86,0x4f,
0x40,0xd6,0x78,0xff,0x2f,0x00,0x4d,0x54,0x72,0x6b,0x00,0x00,0x01,0xde,0x00,0xff,
0x03,0x0a,0x53,0x59,0x4e,0x42,0x52,0x41,0x53,0x53,0x20,0x32,0x84,0x20,0xb7,0x79,
0x00,0x00,0xb7,0x00,0x00,0x00,0xb7,0x20,0x00,0x00,0xc7,0x3f,0x00,0xb7,0x07,0x64,
0x00,0xb7,0x0a,0x40,0x00,0xb7,0x5b,0x7f,0x00,0xb7,0x5d,0x00,0xb4,0x30,0x97,0x2b,
0x58,0x00,0x97,0x3c,0x7a,0x04,0x97,0x34,0x67,0x00,0x97,0x24,0x5a,0x8a,0x40,0x87,
0x24,0x40,0x10,0x87,0x2b,0x40,0x24,0x87,0x34,0x40,0x64,0x87,0x3c,0x40,0x24,0x97,
0x35,0x58,0x00,0x97,0x2e,0x70,0x00,0x97,0x3a,0x76,0x04,0x97,0x3e,0x6a,0x78,0x87,
0x2e,0x40,0x00,0x87,0x35,0x40,0x0c,0x87,0x3e,0x40,0x00,0x87,0x3a,0x40,0x81,0x78,
0x97,0x2b,0x4f,0x00,0x97,0x34,0x61,0x00,0x97,0x3c,0x71,0x04,0x97,0x24,0x58,0x85,
0x48,0x87,0x24,0x40,0x04,0x87,0x34,0x40,0x08,0x87,0x3c,0x40,0x0c,0x87,0x2b,0x40,
0x1c,0x97,0x34,0x5c,0x00,0x97,0x2b,0x4a,0x04,0x97,0x3c,0x75,0x00,0x97,0x24,0x58,
0x74,0x87,0x24,0x40,0x08,0x87,0x34,0x40,0x04,0x87,0x2b,0x40,0x08,0x87,0x3c,0x40,
0x84,0x74,0x97,0x2e,0x6a,0x00,0x97,0x27,0x5f,0x00,0x97,0x3f,0x7e,0x04,0x97,0x3a,
0x7e,0x00,0x97,0x37,0x67,0x81,0x14,0x87,0x3f,0x40,0x04,0x87,0x2e,0x40,0x04,0x87,
0x37,0x40,0x00,0x87,0x3a,0x40,0x00,0x87,0x27,0x40,0x81,0x64,0x97,0x2b,0x50,0x04,
0x97,0x34,0x5f,0x00,0x97,0x3c,0x7f,0x00,0x97,0x24,0x64,0x84,0x40,0x87,0x24,0x40,
0x14,0x87,0x2b,0x40,0x14,0x87,0x34,0x40,0x81,0x08,0x87,0x3c,0x40,0x08,0x97,0x3f,
0x7e,0x00,0x97,0x37,0x61,0x04,0x97,0x2e,0x70,0x00,0x97,0x27,0x5a,0x54,0x87,0x37,
0x40,0x14,0x87,0x3f,0x40,0x04,0x87,0x27,0x40,0x00,0x87,0x2e,0x40,0x81,0x10,0x97,
0x27,0x5f,0x00,0x97,0x2e,0x64,0x00,0x97,0x3f,0x7f,0x04,0x97,0x37,0x5c,0x2c,0x87,
0x2e,0x40,0x08,0x87,0x37,0x40,0x00,0x87,0x27,0x40,0x14,0x87,0x3f,0x40,0x34,0x97,
0x39,0x6a,0x00,0x97,0x29,0x6d,0x04,0x97,0x30,0x71,0x00,0x97,0x41,0x7a,0x85,0x74,
0xb7,0x40,0x7f,0x81,0x00,0x87,0x29,0x40,0x24,0x87,0x30,0x40,0x2c,0x87,0x39,0x40,
0x14,0x87,0x41,0x40,0x81,0x10,0xb7,0x40,0x00,0x18,0x97,0x29,0x71,0x00,0x97,0x35,
0x7e,0x89,0x20,0xb7,0x40,0x7f,0x81,0x38,0x87,0x29,0x40,0x0c,0x87,0x35,0x40,0x81,
0x18,0x97,0x29,0x71,0x04,0x97,0x35,0x7a,0x08,0xb7,0x40,0x00,0x8b,0x28,0x87,0x35,
0x40,0x04,0x87,0x29,0x40,0x48,0x97,0x3c,0x75,0x00,0x97,0x41,0x7a,0x04,0x97,0x35,
0x6d,0x00,0x97,0x29,0x6a,0x8b,0x24,0x87,0x41,0x40,0x10,0x87,0x35,0x40,0x04,0x87,
0x29,0x40,0x00,0x87,0x3c,0x40,0x44,0x97,0x41,0x7a,0x00,0x97,0x3c,0x75,0x04,0x97,
0x35,0x6d,0x00,0x97,0x29,0x6d,0x81,0x24,0x87,0x29,0x40,0x00,0x87,0x35,0x40,0x04,
0x87,0x3c,0x40,0x08,0x87,0x41,0x40,0x96,0x7c,0xff,0x2f,0x00,0x4d,0x54,0x72,0x6b,
0x00,0x00,0x09,0x0f,0x00,0xff,0x03,0x05,0x44,0x52,0x55,0x4d,0x53,0x84,0x48,0xb9,
0x79,0x00,0x00,0xb9,0x00,0x00,0x00,0xb9,0x20,0x00,0x00,0xc9,0x30,0x00,0xb9,0x07,
0x64,0x00,0xb9,0x0a,0x40,0x00,0xb9,0x5b,0x7f,0x00,0xb9,0x5d,0x00,0x84,0x3c,0x99,
0x39,0x7a,0x00,0x99,0x30,0x7f,0x04,0x89,0x39,0x40,0x00,0x99,0x28,0x7e,0x00,0x99,
0x26,0x4d,0x10,0x89,0x30,0x40,0x04,0x89,0x26,0x40,0x00,0x89,0x28,0x40,0x14,0x99,
0x26,0x4d,0x1c,0x89,0x26,0x40,0x14,0x99,0x26,0x4c,0x18,0x89,0x26,0x40,0x18,0x99,
0x26,0x49,0x1c,0x89,0x26,0x40,0x10,0x99,0x26,0x47,0x20,0x89,0x26,0x40,0x14,0x99,
0x26,0x46,0x1c,0x89,0x26,0x40,0x14,0x99,0x26,0x56,0x1c,0x89,0x26,0x40,0x14,0x99,
0x28,0x75,0x4c,0x89,0x28,0x40,0x81,0x34,0x99,0x28,0x6d,0x4c,0x89,0x28,0x40,0x34,
0x99,0x28,0x75,0x48,0x89,0x28,0x40,0x81,0x38,0x99,0x28,0x71,0x4c,0x89,0x28,0x40,
0x34,0x99,0x28,0x6d,0x4c,0x89,0x28,0x40,0x34,0x99,0x26,0x5f,0x4c,0x89,0x26,0x40,
0x34,0x99,0x28,0x6d,0x4c,0x89,0x28,0x40,0x24,0x99,0x39,0x6d,0x10,0x99,0x30,0x7f,
0x00,0x99,0x28,0x6d,0x20,0x89,0x39,0x40,0x20,0x89,0x30,0x40,0x0c,0x89,0x28,0x40,
0x34,0x99,0x26,0x52,0x48,0x89,0x26,0x40,0x38,0x99,0x28,0x6a,0x4c,0x89,0x28,0x40,
0x34,0x99,0x26,0x3e,0x00,0x99,0x28,0x75,0x10,0x89,0x26,0x40,0x10,0x99,0x26,0x39,
0x14,0x89,0x26,0x40,0x0c,0x99,0x26,0x3d,0x0c,0x89,0x28,0x40,0x04,0x89,0x26,0x40,
0x10,0x99,0x26,0x3b,0x10,0x89,0x26,0x40,0x10,0x99,0x26,0x37,0x14,0x89,0x26,0x40,
0x0c,0x99,0x26,0x37,0x10,0x89,0x26,0x40,0x10,0x99,0x26,0x34,0x10,0x89,0x26,0x40,
0x10,0x99,0x26,0x3a,0x10,0x89,0x26,0x40,0x10,0x99,0x26,0x3a,0x14,0x89,0x26,0x40,
0x0c,0x99,0x26,0x46,0x14,0x89,0x26,0x40,0x0c,0x99,0x26,0x48,0x10,0x89,0x26,0x40,
0x10,0x99,0x26,0x4a,0x10,0x89,0x26,0x40,0x10,0x99,0x28,0x71,0x4c,0x89,0x28,0x40,
0x81,0x34,0x99,0x26,0x58,0x4c,0x89,0x26,0x40,0x34,0x99,0x2b,0x75,0x00,0x99,0x28,
0x6a,0x34,0x89,0x2b,0x40,0x18,0x89,0x28,0x40,0x34,0x99,0x26,0x5a,0x4c,0x89,0x26,
0x40,0x34,0x99,0x2b,0x7a,0x00,0x99,0x28,0x61,0x34,0x89,0x2b,0x40,0x18,0x89,0x28,
0x40,0x2c,0x99,0x39,0x6d,0x08,0x99,0x30,0x7f,0x04,0x99,0x28,0x6a,0x24,0x89,0x39,
0x40,0x24,0x89,0x28,0x40,0x14,0x89,0x30,0x40,0x82,0x20,0x99,0x28,0x5c,0x48,0x89,
0x28,0x40,0x34,0x99,0x28,0x5f,0x50,0x89,0x28,0x40,0x34,0x99,0x28,0x5f,0x4c,0x89,
0x28,0x40,0x34,0x99,0x26,0x41,0x00,0x99,0x28,0x64,0x10,0x89,0x26,0x40,0x10,0x99,
0x26,0x3b,0x10,0x89,0x26,0x40,0x10,0x99,0x26,0x41,0x0c,0x89,0x28,0x40,0x04,0x89,
0x26,0x40,0x10,0x99,0x26,0x42,0x10,0x89,0x26,0x40,0x10,0x99,0x26,0x42,0x14,0x89,
0x26,0x40,0x0c,0x99,0x26,0x42,0x10,0x89,0x26,0x40,0x10,0x99,0x26,0x44,0x14,0x89,
0x26,0x40,0x0c,0x99,0x26,0x49,0x10,0x89,0x26,0x40,0x10,0x99,0x26,0x37,0x10,0x89,
0x26,0x40,0x10,0x99,0x26,0x40,0x10,0x89,0x26,0x40,0x10,0x99,0x26,0x43,0x10,0x89,
0x26,0x40,0x10,0x99,0x26,0x50,0x10,0x89,0x26,0x40,0x10,0x99,0x30,0x7e,0x00,0x99,
0x28,0x5f,0x44,0x89,0x30,0x40,0x08,0x89,0x28,0x40,0x34,0x99,0x26,0x4d,0x48,0x89,
0x26,0x40,0x38,0x99,0x30,0x7a,0x00,0x99,0x28,0x5a,0x48,0x89,0x30,0x40,0x04,0x89,
0x28,0x40,0x2c,0x99,0x39,0x71,0x08,0x99,0x2b,0x7a,0x04,0x99,0x26,0x61,0x30,0x89,
0x39,0x40,0x0c,0x89,0x2b,0x40,0x0c,0x89,0x26,0x40,0x34,0x99,0x28,0x5c,0x4c,0x89,
0x28,0x40,0x38,0x99,0x26,0x50,0x48,0x89,0x26,0x40,0x34,0x99,0x2b,0x64,0x04,0x99,
0x28,0x67,0x34,0x89,0x2b,0x40,0x14,0x89,0x28,0x40,0x34,0x99,0x2b,0x61,0x38,0x89,
0x2b,0x40,0x48,0x99,0x26,0x56,0x00,0x99,0x2b,0x7e,0x40,0x89,0x2b,0x40,0x08,0x89,
0x26,0x40,0x38,0x99,0x26,0x4c,0x04,0x99,0x28,0x61,0x00,0x99,0x2b,0x71,0x10,0x89,
0x26,0x40,0x0c,0x99,0x26,0x49,0x10,0x89,0x26,0x40,0x10,0x99,0x26,0x45,0x0c,0x89,
0x2b,0x40,0x00,0x89,0x28,0x40,0x04,0x89,0x26,0x40,0x10,0x99,0x26,0x41,0x10,0x89,
0x26,0x40,0x10,0x99,0x26,0x45,0x10,0x89,0x26,0x40,0x10,0x99,0x26,0x44,0x10,0x89,
0x26,0x40,0x10,0x99,0x26,0x44,0x14,0x89,0x26,0x40,0x0c,0x99,0x26,0x45,0x14,0x89,
0x26,0x40,0x0c,0x99,0x26,0x42,0x10,0x89,0x26,0x40,0x0c,0x99,0x26,0x43,0x14,0x89,
0x26,0x40,0x10,0x99,0x26,0x3d,0x10,0x89,0x26,0x40,0x10,0x99,0x26,0x47,0x10,0x89,
0x26,0x40,0x10,0x99,0x26,0x5a,0x00,0x99,0x2b,0x6a,0x3c,0x89,0x2b,0x40,0x10,0x89,
0x26,0x40,0x34,0x99,0x28,0x64,0x00,0x99,0x2b,0x64,0x2c,0x89,0x2b,0x40,0x20,0x89,
0x28,0x40,0x34,0x99,0x26,0x56,0x00,0x99,0x2b,0x6a,0x3c,0x89,0x2b,0x40,0x10,0x89,
0x26,0x40,0x38,0x99,0x28,0x6d,0x04,0x99,0x30,0x7e,0x44,0x89,0x30,0x40,0x00,0x89,
0x28,0x40,0x82,0x34,0x99,0x28,0x64,0x4c,0x89,0x28,0x40,0x34,0x99,0x26,0x4f,0x4c,
0x89,0x26,0x40,0x34,0x99,0x28,0x50,0x4c,0x89,0x28,0x40,0x34,0x99,0x26,0x5c,0x4c,
0x89,0x26,0x40,0x81,0x34,0x99,0x30,0x56,0x30,0x89,0x30,0x40,0x38,0x99,0x39,0x7a,
0x18,0x99,0x28,0x6d,0x00,0x99,0x30,0x7e,0x20,0x89,0x39,0x40,0x2c,0x89,0x28,0x40,
0x0c,0x89,0x30,0x40,0x81,0x28,0x99,0x26,0x61,0x4c,0x89,0x26,0x40,0x38,0x99,0x28,
0x7f,0x60,0x89,0x28,0x40,0x82,0x20,0x99,0x28,0x75,0x44,0x89,0x28,0x40,0x38,0x99,
0x26,0x56,0x44,0x89,0x26,0x40,0x3c,0x99,0x28,0x71,0x40,0x89,0x28,0x40,0x40,0x99,
0x26,0x52,0x00,0x99,0x26,0x7a,0x01,0x89,0x26,0x00,0x13,0x89,0x26,0x40,0x0c,0x99,
0x26,0x4d,0x14,0x89,0x26,0x40,0x0c,0x99,0x26,0x50,0x04,0x89,0x26,0x40,0x1c,0x99,
0x26,0x4d,0x10,0x89,0x26,0x40,0x10,0x99,0x26,0x4c,0x10,0x89,0x26,0x40,0x10,0x99,
0x26,0x4a,0x14,0x89,0x26,0x40,0x0c,0x99,0x26,0x4c,0x10,0x89,0x26,0x40,0x10,0x99,
0x26,0x4c,0x14,0x89,0x26,0x40,0x0c,0x99,0x26,0x4d,0x10,0x89,0x26,0x40,0x10,0x99,
0x26,0x4d,0x14,0x89,0x26,0x40,0x0c,0x99,0x26,0x52,0x10,0x89,0x26,0x40,0x10,0x99,
0x26,0x56,0x10,0x89,0x26,0x40,0x10,0x99,0x30,0x7f,0x04,0x99,0x26,0x4a,0x0c,0x89,
0x26,0x40,0x10,0x99,0x26,0x48,0x10,0x89,0x26,0x40,0x10,0x99,0x26,0x4a,0x10,0x89,
0x26,0x40,0x00,0x89,0x30,0x40,0x10,0x99,0x26,0x4c,0x14,0x89,0x26,0x40,0x0c,0x99,
0x26,0x4a,0x14,0x89,0x26,0x40,0x0c,0x99,0x26,0x46,0x10,0x89,0x26,0x40,0x10,0x99,
0x26,0x47,0x10,0x89,0x26,0x40,0x10,0x99,0x26,0x49,0x10,0x89,0x26,0x40,0x10,0x99,
0x26,0x50,0x10,0x89,0x26,0x40,0x10,0x99,0x26,0x4d,0x10,0x89,0x26,0x40,0x10,0x99,
0x26,0x4f,0x14,0x89,0x26,0x40,0x0c,0x99,0x26,0x5a,0x14,0x89,0x26,0x40,0x0c,0x99,
0x26,0x7f,0x34,0x89,0x26,0x40,0x82,0x48,0x99,0x39,0x7a,0x04,0x99,0x33,0x7f,0x04,
0x99,0x28,0x7a,0x30,0x89,0x39,0x40,0x10,0x89,0x28,0x40,0x0c,0x89,0x33,0x40,0x81,
0x2c,0x99,0x26,0x7a,0x34,0x89,0x26,0x40,0x50,0x99,0x26,0x4c,0x04,0x99,0x30,0x7a,
0x04,0x99,0x28,0x7e,0x08,0x89,0x26,0x40,0x10,0x99,0x26,0x49,0x14,0x89,0x26,0x40,
0x0c,0x99,0x26,0x47,0x04,0x89,0x28,0x40,0x0c,0x89,0x30,0x40,0x04,0x89,0x26,0x40,
0x0c,0x99,0x26,0x44,0x14,0x89,0x26,0x40,0x0c,0x99,0x26,0x48,0x10,0x89,0x26,0x40,
0x10,0x99,0x26,0x41,0x10,0x89,0x26,0x40,0x10,0x99,0x26,0x44,0x10,0x89,0x26,0x40,
0x10,0x99,0x26,0x4c,0x10,0x89,0x26,0x40,0x10,0x99,0x26,0x4c,0x10,0x89,0x26,0x40,
0x10,0x99,0x26,0x47,0x14,0x89,0x26,0x40,0x0c,0x99,0x26,0x48,0x14,0x89,0x26,0x40,
0x0c,0x99,0x26,0x4a,0x10,0x89,0x26,0x40,0x14,0x99,0x26,0x4c,0x0c,0x89,0x26,0x40,
0x10,0x99,0x26,0x3b,0x10,0x89,0x26,0x40,0x10,0x99,0x26,0x47,0x10,0x89,0x26,0x40,
0x10,0x99,0x26,0x3f,0x10,0x89,0x26,0x40,0x10,0x99,0x26,0x49,0x14,0x89,0x26,0x40,
0x0c,0x99,0x26,0x43,0x14,0x89,0x26,0x40,0x0c,0x99,0x26,0x48,0x10,0x89,0x26,0x40,
0x10,0x99,0x26,0x46,0x10,0x89,0x26,0x40,0x14,0x99,0x26,0x4d,0x0c,0x89,0x26,0x40,
0x10,0x99,0x26,0x45,0x10,0x89,0x26,0x40,0x10,0x99,0x26,0x50,0x14,0x89,0x26,0x40,
0x0c,0x99,0x26,0x4f,0x14,0x89,0x26,0x40,0x0c,0x99,0x33,0x7f,0x04,0x99,0x28,0x7f,
0x44,0x89,0x28,0x40,0x00,0x89,0x33,0x40,0x81,0x38,0x99,0x33,0x7f,0x04,0x99,0x26,
0x7a,0x24,0x89,0x26,0x40,0x18,0x89,0x33,0x40,0x40,0x99,0x26,0x48,0x00,0x99,0x29,
0x7a,0x04,0x99,0x28,0x7f,0x10,0x89,0x26,0x40,0x0c,0x99,0x26,0x3f,0x14,0x89,0x26,
0x40,0x0c,0x99,0x26,0x4f,0x04,0x89,0x28,0x40,0x04,0x89,0x29,0x40,0x0c,0x89,0x26,
0x40,0x0c,0x99,0x26,0x40,0x10,0x89,0x26,0x40,0x10,0x99,0x26,0x4f,0x10,0x89,0x26,
0x40,0x10,0x99,0x26,0x42,0x10,0x89,0x26,0x40,0x10,0x99,0x26,0x4f,0x10,0x89,0x26,
0x40,0x10,0x99,0x26,0x48,0x14,0x89,0x26,0x40,0x0c,0x99,0x26,0x4a,0x14,0x89,0x26,
0x40,0x0c,0x99,0x26,0x4a,0x14,0x89,0x26,0x40,0x0c,0x99,0x26,0x50,0x14,0x89,0x26,
0x40,0x0c,0x99,0x26,0x4c,0x10,0x89,0x26,0x40,0x10,0x99,0x3b,0x2e,0x00,0x99,0x26,
0x50,0x10,0x89,0x26,0x40,0x0c,0x89,0x3b,0x40,0x04,0x99,0x26,0x3d,0x10,0x89,0x26,
0x40,0x00,0x99,0x39,0x3c,0x10,0x99,0x26,0x4c,0x08,0x89,0x39,0x40,0x0c,0x89,0x26,
0x40,0x0c,0x99,0x3b,0x34,0x00,0x99,0x26,0x40,0x10,0x89,0x26,0x40,0x0c,0x89,0x3b,
0x40,0x04,0x99,0x26,0x4a,0x10,0x99,0x39,0x40,0x04,0x89,0x26,0x40,0x0c,0x99,0x26,
0x42,0x0c,0x89,0x39,0x40,0x04,0x89,0x26,0x40,0x10,0x99,0x3b,0x3c,0x00,0x99,0x26,
0x4a,0x10,0x89,0x26,0x40,0x0c,0x89,0x3b,0x40,0x04,0x99,0x26,0x3e,0x10,0x89,0x26,
0x40,0x00,0x99,0x39,0x47,0x10,0x99,0x26,0x47,0x0c,0x89,0x39,0x40,0x04,0x89,0x26,
0x40,0x10,0x99,0x3b,0x38,0x00,0x99,0x26,0x45,0x14,0x89,0x26,0x40,0x08,0x89,0x3b,
0x40,0x04,0x99,0x26,0x4f,0x10,0x89,0x26,0x40,0x00,0x99,0x39,0x3e,0x10,0x99,0x26,
0x48,0x0c,0x89,0x39,0x40,0x08,0x89,0x26,0x40,0x0c,0x99,0x3b,0x3a,0x00,0x99,0x26,
0x4d,0x10,0x89,0x26,0x40,0x08,0x89,0x3b,0x40,0x08,0x99,0x26,0x38,0x10,0x89,0x26,
0x40,0x00,0x99,0x39,0x4f,0x10,0x99,0x26,0x49,0x0c,0x89,0x39,0x40,0x04,0x89,0x26,
0x40,0x10,0x99,0x3b,0x47,0x00,0x99,0x26,0x3b,0x10,0x89,0x26,0x40,0x0c,0x89,0x3b,
0x40,0x04,0x99,0x26,0x52,0x10,0x89,0x26,0x40,0x00,0x99,0x39,0x4d,0x0c,0x99,0x26,
0x47,0x10,0x89,0x39,0x40,0x08,0x89,0x26,0x40,0x0c,0x99,0x3b,0x45,0x00,0x99,0x26,
0x5c,0x10,0x89,0x26,0x40,0x0c,0x89,0x3b,0x40,0x04,0x99,0x26,0x50,0x10,0x89,0x26,
0x40,0x00,0x99,0x39,0x50,0x10,0x99,0x26,0x61,0x0c,0x89,0x39,0x40,0x04,0x89,0x26,
0x40,0x10,0x99,0x3b,0x48,0x00,0x99,0x26,0x5a,0x10,0x89,0x26,0x40,0x0c,0x89,0x3b,
0x40,0x04,0x99,0x26,0x6d,0x10,0x89,0x26,0x40,0x00,0x99,0x39,0x61,0x10,0x99,0x26,
0x6d,0x0c,0x89,0x39,0x40,0x00,0x99,0x39,0x71,0x08,0x89,0x26,0x40,0x0c,0x99,0x29,
0x64,0x04,0x99,0x28,0x7a,0x18,0x89,0x39,0x40,0x40,0x89,0x28,0x40,0x04,0x89,0x29,
0x40,0x82,0x20,0x99,0x29,0x45,0x00,0x99,0x28,0x56,0x38,0x89,0x29,0x40,0x0c,0x89,
0x28,0x40,0x3c,0x99,0x29,0x4d,0x00,0x99,0x26,0x4d,0x34,0x89,0x29,0x40,0x1c,0x89,
0x26,0x40,0x30,0x99,0x29,0x5c,0x00,0x99,0x28,0x4f,0x38,0x89,0x29,0x40,0x08,0x89,
0x28,0x40,0x40,0x99,0x29,0x71,0x04,0x99,0x26,0x67,0x34,0x89,0x29,0x40,0x1c,0x89,
0x26,0x40,0x82,0x2c,0x99,0x29,0x56,0x04,0x99,0x28,0x4f,0x34,0x89,0x29,0x40,0x04,
0x89,0x28,0x40,0x44,0x99,0x29,0x58,0x04,0x99,0x26,0x47,0x2c,0x89,0x29,0x40,0x0c,
0x89,0x26,0x40,0x44,0x99,0x29,0x64,0x04,0x99,0x28,0x58,0x2c,0x89,0x29,0x40,0x10,
0x89,0x28,0x40,0x48,0x99,0x29,0x71,0x04,0x99,0x26,0x6a,0x30,0x89,0x29,0x40,0x20,
0x89,0x26,0x40,0x82,0x28,0x99,0x29,0x5a,0x00,0x99,0x28,0x4d,0x30,0x89,0x29,0x40,
0x1c,0x89,0x28,0x40,0x34,0x99,0x29,0x56,0x00,0x99,0x26,0x4a,0x30,0x89,0x29,0x40,
0x1c,0x89,0x26,0x40,0x34,0x99,0x29,0x5a,0x00,0x99,0x28,0x4c,0x30,0x89,0x29,0x40,
0x08,0x89,0x28,0x40,0x48,0x99,0x29,0x61,0x00,0x99,0x26,0x4f,0x34,0x89,0x29,0x40,
0x08,0x89,0x26,0x40,0x44,0x99,0x29,0x64,0x00,0x99,0x28,0x52,0x34,0x89,0x29,0x40,
0x10,0x89,0x28,0x40,0x3c,0x99,0x29,0x67,0x00,0x99,0x26,0x58,0x2c,0x89,0x29,0x40,
0x10,0x89,0x26,0x40,0x44,0x99,0x29,0x6d,0x00,0x99,0x28,0x67,0x34,0x89,0x29,0x40,
0x08,0x89,0x28,0x40,0x44,0x99,0x29,0x6a,0x04,0x99,0x26,0x5c,0x30,0x89,0x26,0x40,
0x00,0x89,0x29,0x40,0x4c,0x99,0x29,0x71,0x00,0x99,0x28,0x71,0x38,0x89,0x28,0x40,
0x00,0x89,0x29,0x40,0x4c,0x99,0x29,0x75,0x04,0x99,0x26,0x7e,0x34,0x89,0x29,0x40,
0x08,0x89,0x26,0x40,0x82,0x3c,0x99,0x29,0x6d,0x04,0x99,0x28,0x71,0x28,0x89,0x29,
0x40,0x14,0x89,0x28,0x40,0x40,0x99,0x29,0x61,0x00,0x99,0x26,0x5a,0x34,0x89,0x26,
0x40,0x00,0x89,0x29,0x40,0x4c,0x99,0x29,0x71,0x00,0x99,0x28,0x75,0x30,0x89,0x29,
0x40,0x04,0x89,0x28,0x40,0x4c,0x99,0x29,0x75,0x00,0x99,0x26,0x7e,0x3c,0x89,0x26,
0x40,0x00,0x89,0x29,0x40,0x82,0x4c,0x99,0x29,0x71,0x00,0x99,0x28,0x71,0x2c,0x89,
0x29,0x40,0x08,0x89,0x28,0x40,0x48,0x99,0x29,0x64,0x00,0x99,0x26,0x67,0x30,0x89,
0x26,0x40,0x08,0x89,0x29,0x40,0x44,0x99,0x29,0x75,0x04,0x99,0x28,0x7a,0x2c,0x89,
0x29,0x40,0x04,0x89,0x28,0x40,0x38,0x99,0x39,0x75,0x1c,0x99,0x29,0x7e,0x00,0x99,
0x26,0x7a,0x1c,0x89,0x39,0x40,0x10,0x89,0x26,0x40,0x08,0x89,0x29,0x40,0x97,0x70,
0xff,0x2f,0x00,0x4d,0x54,0x72,0x6b,0x00,0x00,0x00,0x1e,0x00,0xff,0x03,0x08,0x47,
0x53,0x2f,0x52,0x45,0x53,0x45,0x54,0x00,0xf0,0x0a,0x41,0x10,0x42,0x12,0x40,0x00,
0x7f,0x00,0x41,0xf7,0xb0,0x00,0xff,0x2f,0x00,
};
